<svg width="448" height="200" viewBox="0 0 448 200" fill="none" xmlns="http://www.w3.org/2000/svg">
<path d="M168 100L132 100" stroke="#5D8AFF" stroke-width="0.8" stroke-linecap="round" stroke-linejoin="round" stroke-dasharray="4 4"/>
<path d="M232 43H193C186.373 43 181 48.3726 181 55V144C181 150.627 186.373 156 193 156H232" stroke="#5D8AFF" stroke-width="0.8" stroke-linecap="round" stroke-linejoin="round" stroke-dasharray="4 4"/>
<rect width="132" height="200" rx="16" fill="url(#paint0_radial)"/>
<g opacity="0.24" filter="url(#filter0_i)">
<path d="M20 189C20 186.239 22.2386 184 25 184H107C109.761 184 112 186.239 112 189V200H20V189Z" fill="#2A53C0"/>
</g>
<rect opacity="0.24" x="22" y="124" width="88" height="6" rx="3" fill="white"/>
<rect opacity="0.24" x="42" y="144" width="48" height="6" rx="3" fill="white"/>
<circle cx="66" cy="58" r="10.5" fill="white"/>
<circle cx="66" cy="64" r="27" stroke="white" stroke-width="4"/>
<path d="M83.2691 84.519C83.6924 84.2866 83.893 83.7831 83.7112 83.3357C82.5458 80.4684 80.3301 77.9439 77.3443 76.0997C74.0898 74.0896 70.1022 73 66 73C61.8978 73 57.9102 74.0896 54.6558 76.0997C51.6699 77.9439 49.4542 80.4684 48.2888 83.3357C48.107 83.7831 48.3076 84.2866 48.7309 84.519L60.2249 90.8294C63.8218 92.8041 68.1782 92.8041 71.7751 90.8294L83.2691 84.519Z" fill="white"/>
<rect x="232.5" y="0.5" width="215" height="87" rx="15.5" fill="#F5F8FF" stroke="#5D8AFF"/>
<rect x="252" y="42" width="112" height="5" rx="2.5" fill="#5785FD" fill-opacity="0.12"/>
<rect x="252" y="60" width="112" height="5" rx="2.5" fill="#5785FD" fill-opacity="0.12"/>
<rect x="252" y="24" width="58" height="5" rx="2.5" fill="#5785FD" fill-opacity="0.12"/>
<path d="M415.29 49.8484C413.706 52.0241 411.14 53.4411 408.249 53.4411H404.192C402.791 53.4411 401.597 52.5514 401.145 51.3061C400.588 51.1398 400.041 50.9238 399.507 50.6585C398.376 50.0969 397.35 49.336 396.447 48.3934C390.586 49.681 386.199 54.9032 386.199 61.1507V61.9673C386.199 63.0899 387.109 63.9999 388.232 63.9999H419.768C420.891 63.9999 421.801 63.0899 421.801 61.9673V61.1507C421.801 56.3245 419.183 52.1099 415.29 49.8484Z" fill="#5786FF"/>
<path d="M394.286 44.204C395.16 44.204 395.92 43.7198 396.314 43.0053C396.325 43.0336 396.335 43.0617 396.346 43.0898C396.349 43.0982 396.352 43.1067 396.355 43.1151C397.279 45.5476 399.077 47.5869 401.448 48.4778C402.022 47.5667 403.036 46.9607 404.192 46.9607H408.249C408.653 46.9607 409.03 46.8465 409.36 46.6619C409.915 46.3519 410.413 45.5653 410.671 45.1484C411.083 44.4812 411.402 43.7745 411.685 43.0041C411.844 43.293 412.063 43.5443 412.325 43.7412V44.7359C412.325 46.9836 410.497 48.8123 408.249 48.8123H404.192C403.425 48.8123 402.803 49.4341 402.803 50.201C402.803 50.968 403.425 51.5897 404.192 51.5897H408.249C412.028 51.5897 415.102 48.5151 415.102 44.7359V43.7412C415.665 43.3189 416.028 42.6468 416.028 41.8896V37.7023V36.0966C416.028 35.3239 415.649 34.6402 415.067 34.2198C414.616 28.509 409.825 24 404 24C398.175 24 393.384 28.509 392.933 34.2197C392.351 34.6401 391.972 35.3239 391.972 36.0966V41.8894C391.972 43.1713 393.013 44.204 394.286 44.204ZM404 26.7774C408.312 26.7774 411.869 30.0726 412.284 34.2772C412.011 34.4918 411.788 34.7662 411.634 35.081C410.323 31.6624 407.398 29.2822 404 29.2822C400.528 29.2822 397.65 31.7442 396.371 35.0674C396.369 35.0719 396.368 35.0765 396.366 35.0811C396.212 34.7663 395.989 34.4919 395.716 34.2772C396.132 30.0726 399.688 26.7774 404 26.7774Z" fill="#5786FF"/>
<rect x="232.5" y="112.5" width="215" height="87" rx="15.5" fill="#F5F8FF" stroke="#5D8AFF"/>
<rect x="252" y="154" width="112" height="5" rx="2.5" fill="#5785FD" fill-opacity="0.12"/>
<rect x="252" y="172" width="112" height="5" rx="2.5" fill="#5785FD" fill-opacity="0.12"/>
<rect x="252" y="136" width="58" height="5" rx="2.5" fill="#5785FD" fill-opacity="0.12"/>
<path d="M415.29 161.848C413.706 164.024 411.14 165.441 408.249 165.441H404.192C402.791 165.441 401.597 164.551 401.145 163.306C400.588 163.14 400.041 162.924 399.507 162.659C398.376 162.097 397.35 161.336 396.447 160.393C390.586 161.681 386.199 166.903 386.199 173.151V173.967C386.199 175.09 387.109 176 388.232 176H419.768C420.891 176 421.801 175.09 421.801 173.967V173.151C421.801 168.324 419.183 164.11 415.29 161.848Z" fill="#5786FF"/>
<path d="M394.286 156.204C395.16 156.204 395.92 155.72 396.314 155.005C396.325 155.034 396.335 155.062 396.346 155.09C396.349 155.098 396.352 155.107 396.355 155.115C397.279 157.548 399.077 159.587 401.448 160.478C402.022 159.567 403.036 158.961 404.192 158.961H408.249C408.653 158.961 409.03 158.846 409.36 158.662C409.915 158.352 410.413 157.565 410.671 157.148C411.083 156.481 411.402 155.775 411.685 155.004C411.844 155.293 412.063 155.544 412.325 155.741V156.736C412.325 158.984 410.497 160.812 408.249 160.812H404.192C403.425 160.812 402.803 161.434 402.803 162.201C402.803 162.968 403.425 163.59 404.192 163.59H408.249C412.028 163.59 415.102 160.515 415.102 156.736V155.741C415.665 155.319 416.028 154.647 416.028 153.89V149.702V148.097C416.028 147.324 415.649 146.64 415.067 146.22C414.616 140.509 409.825 136 404 136C398.175 136 393.384 140.509 392.933 146.22C392.351 146.64 391.972 147.324 391.972 148.097V153.889C391.972 155.171 393.013 156.204 394.286 156.204ZM404 138.777C408.312 138.777 411.869 142.073 412.284 146.277C412.011 146.492 411.788 146.766 411.634 147.081C410.323 143.662 407.398 141.282 404 141.282C400.528 141.282 397.65 143.744 396.371 147.067C396.369 147.072 396.368 147.077 396.366 147.081C396.212 146.766 395.989 146.492 395.716 146.277C396.132 142.073 399.688 138.777 404 138.777Z" fill="#5786FF"/>
<circle cx="49.5" cy="79.5" r="15" fill="#FEC600" stroke="#618DFF" stroke-width="3"/>
<circle cx="49.5" cy="79.5" r="6.375" stroke="white" stroke-width="1.5" stroke-linecap="round"/>
<path d="M47.625 79.125C48.1082 79.125 48.5 78.7332 48.5 78.25C48.5 77.7668 48.1082 77.375 47.625 77.375C47.1417 77.375 46.75 77.7668 46.75 78.25C46.75 78.7332 47.1417 79.125 47.625 79.125Z" fill="white" stroke="white" stroke-width="0.5" stroke-linecap="round"/>
<path d="M51.375 79.125C51.8582 79.125 52.25 78.7332 52.25 78.25C52.25 77.7668 51.8582 77.375 51.375 77.375C50.8917 77.375 50.5 77.7668 50.5 78.25C50.5 78.7332 50.8917 79.125 51.375 79.125Z" fill="white" stroke="white" stroke-width="0.5" stroke-linecap="round"/>
<path fill-rule="evenodd" clip-rule="evenodd" d="M47.6137 81.375C47.3332 81.375 47.1929 81.375 47.1196 81.4932C47.0462 81.6115 47.0994 81.7186 47.2057 81.9328C47.5902 82.7079 48.4728 83.25 49.5 83.25C50.5272 83.25 51.4097 82.7079 51.7943 81.9328C51.9006 81.7186 51.9537 81.6115 51.8804 81.4932C51.8071 81.375 51.6668 81.375 51.3863 81.375H47.6137Z" fill="white"/>
<circle cx="181" cy="100" r="16" fill="#F5F8FF"/>
<path d="M187.594 97.1874H179.094C178.318 97.1874 177.688 97.8182 177.688 98.5936V103.281C177.688 104.057 178.318 104.687 179.094 104.687H186.462L188.2 106.425C188.335 106.56 188.538 106.599 188.711 106.527C188.886 106.454 189 106.283 189 106.094V98.5936C189 97.8182 188.369 97.1874 187.594 97.1874ZM185.25 102.344H181.438C181.178 102.344 180.969 102.134 180.969 101.875C180.969 101.616 181.178 101.406 181.438 101.406H185.25C185.509 101.406 185.719 101.616 185.719 101.875C185.719 102.134 185.509 102.344 185.25 102.344ZM186.188 100.469H180.5C180.241 100.469 180.031 100.259 180.031 99.9999C180.031 99.7408 180.241 99.5311 180.5 99.5311H186.188C186.447 99.5311 186.656 99.7408 186.656 99.9999C186.656 100.259 186.447 100.469 186.188 100.469Z" fill="#5D8AFF"/>
<path d="M173.289 102.777C173.462 102.849 173.665 102.81 173.8 102.675L175.538 100.937H176.75V98.5936C176.75 97.3013 177.801 96.2499 179.094 96.2499H184.312V94.8436C184.312 94.067 183.683 93.4374 182.906 93.4374H174.406C173.63 93.4374 173 94.067 173 94.8436V102.344C173 102.533 173.114 102.704 173.289 102.777Z" fill="#5D8AFF" fill-opacity="0.5"/>
<defs>
<filter id="filter0_i" x="20" y="184" width="92" height="18" filterUnits="userSpaceOnUse" color-interpolation-filters="sRGB">
<feFlood flood-opacity="0" result="BackgroundImageFix"/>
<feBlend mode="normal" in="SourceGraphic" in2="BackgroundImageFix" result="shape"/>
<feColorMatrix in="SourceAlpha" type="matrix" values="0 0 0 0 0 0 0 0 0 0 0 0 0 0 0 0 0 0 127 0" result="hardAlpha"/>
<feOffset dy="2"/>
<feGaussianBlur stdDeviation="1"/>
<feComposite in2="hardAlpha" operator="arithmetic" k2="-1" k3="1"/>
<feColorMatrix type="matrix" values="0 0 0 0 0 0 0 0 0 0 0 0 0 0 0 0 0 0 0.12 0"/>
<feBlend mode="normal" in2="shape" result="effect1_innerShadow"/>
</filter>
<radialGradient id="paint0_radial" cx="0" cy="0" r="1" gradientUnits="userSpaceOnUse" gradientTransform="translate(8.25 13.3333) rotate(58.9911) scale(217.792 193.172)">
<stop stop-color="#6D96FF"/>
<stop offset="1" stop-color="#5786FF"/>
</radialGradient>
</defs>
</svg>
