<svg width="460" height="240" viewBox="0 0 460 240" fill="none" xmlns="http://www.w3.org/2000/svg">
<rect x="13" y="13" width="130" height="226" rx="15" stroke="#E3EAFF" stroke-width="2"/>
<rect x="170" y="12" width="132" height="228" rx="16" fill="#F5F8FF"/>
<path d="M204 80C204 97.6731 218.327 112 236 112C253.673 112 268 97.6731 268 80C268 62.3269 253.673 48 236 48C218.327 48 204 62.3269 204 80Z" fill="#E8EFFF"/>
<path d="M235.941 55.1112L235.147 57.5645H232.563L234.649 59.0815L233.855 61.5467L235.941 60.0297L238.027 61.5467L237.233 59.0815L239.319 57.5645H236.735L235.941 55.1112Z" fill="#CCDBFF"/>
<path d="M236.735 100.231L235.941 97.7779L235.147 100.231H232.563L234.649 101.748L233.855 104.213L235.941 102.696L238.027 104.213L237.233 101.748L239.319 100.231H236.735Z" fill="#CCDBFF"/>
<path d="M214.607 81.363L216.693 82.88L215.899 80.4149L217.985 78.8978H215.402L214.607 76.4445L213.813 78.8978H211.23L213.316 80.4149L212.522 82.88L214.607 81.363Z" fill="#CCDBFF"/>
<path d="M225.274 57.9675L224.48 60.4208H221.896L223.982 61.9497L223.188 64.4031L225.274 62.886L227.36 64.4031L226.566 61.9497L228.652 60.4208H226.068L225.274 57.9675Z" fill="#CCDBFF"/>
<path d="M217.464 65.7779L216.67 68.2312H214.086L216.172 69.7482L215.378 72.2134L217.464 70.6964L219.55 72.2134L218.756 69.7482L220.842 68.2312H218.27L217.464 65.7779Z" fill="#CCDBFF"/>
<path d="M218.27 89.5645L217.464 87.1112L216.67 89.5645H214.086L216.172 91.0815L215.378 93.5467L217.464 92.0297L219.55 93.5467L218.756 91.0815L220.842 89.5645H218.27Z" fill="#CCDBFF"/>
<path d="M226.068 97.3749L225.274 94.9215L224.48 97.3749H221.896L223.982 98.8919L223.188 101.357L225.274 99.8282L227.36 101.357L226.566 98.8919L228.652 97.3749H226.068Z" fill="#CCDBFF"/>
<path d="M260.652 78.8978H258.068L257.274 76.4445L256.48 78.8978H253.896L255.982 80.4149L255.188 82.88L257.274 81.363L259.36 82.88L258.566 80.4149L260.652 78.8978Z" fill="#CCDBFF"/>
<path d="M246.607 57.9675L245.813 60.4208H243.23L245.316 61.9497L244.522 64.4031L246.607 62.886L248.693 64.4031L247.899 61.9497L249.985 60.4208H247.402L246.607 57.9675Z" fill="#CCDBFF"/>
<path d="M253.126 69.7482L252.332 72.2134L254.418 70.6964L256.504 72.2134L255.71 69.7482L257.796 68.2312H255.212L254.418 65.7779L253.612 68.2312H251.04L253.126 69.7482Z" fill="#CCDBFF"/>
<path d="M255.212 89.5645L254.418 87.1112L253.612 89.5645H251.04L253.126 91.0815L252.332 93.5467L254.418 92.0297L256.504 93.5467L255.71 91.0815L257.796 89.5645H255.212Z" fill="#CCDBFF"/>
<path d="M247.402 97.3749L246.607 94.9215L245.813 97.3749H243.23L245.316 98.8919L244.522 101.357L246.607 99.8282L248.693 101.357L247.899 98.8919L249.985 97.3749H247.402Z" fill="#CCDBFF"/>
<path d="M221.854 209H233.878V205.76H225.574V201.656H233.398V198.416H225.574V194.36H233.878V191.12H221.854V209Z" fill="#5786FF" fill-opacity="0.56"/>
<path d="M244.051 209.288C245.459 209.288 246.715 208.992 247.819 208.4C248.923 207.808 249.787 207 250.411 205.976C251.051 204.936 251.371 203.76 251.371 202.448V191.12H247.651V202.208C247.651 202.912 247.491 203.552 247.171 204.128C246.867 204.688 246.443 205.128 245.899 205.448C245.371 205.768 244.755 205.928 244.051 205.928C243.363 205.928 242.747 205.768 242.203 205.448C241.659 205.128 241.227 204.688 240.907 204.128C240.603 203.552 240.451 202.912 240.451 202.208V191.12H236.731V202.448C236.731 203.76 237.043 204.936 237.667 205.976C238.307 207 239.179 207.808 240.283 208.4C241.387 208.992 242.643 209.288 244.051 209.288Z" fill="#5786FF" fill-opacity="0.56"/>
<path d="M210.811 162H212.091V152.544L216.059 158.32H216.123L220.091 152.576V162H221.371V150.08H220.251L216.091 156.128L211.931 150.08H210.811V162Z" fill="#5786FF" fill-opacity="0.56"/>
<path d="M226.81 162.192C227.471 162.192 228.069 162.059 228.602 161.792C229.135 161.525 229.541 161.184 229.818 160.768V162H231.018V156.112C231.018 155.547 230.879 155.051 230.602 154.624C230.335 154.187 229.957 153.845 229.466 153.6C228.986 153.355 228.431 153.232 227.802 153.232C227.322 153.232 226.858 153.323 226.41 153.504C225.962 153.675 225.562 153.909 225.21 154.208C224.869 154.507 224.618 154.837 224.458 155.2L225.546 155.792C225.738 155.376 226.031 155.04 226.426 154.784C226.821 154.517 227.279 154.384 227.802 154.384C228.399 154.384 228.885 154.544 229.258 154.864C229.631 155.184 229.818 155.6 229.818 156.112V156.56L226.714 157.072C225.765 157.232 225.071 157.557 224.634 158.048C224.197 158.539 223.978 159.115 223.978 159.776C223.978 160.245 224.101 160.661 224.346 161.024C224.591 161.387 224.927 161.675 225.354 161.888C225.781 162.091 226.266 162.192 226.81 162.192ZM225.258 159.728C225.258 159.333 225.391 158.992 225.658 158.704C225.935 158.416 226.383 158.219 227.002 158.112L229.818 157.648V158.288C229.818 158.811 229.695 159.285 229.45 159.712C229.205 160.139 228.863 160.48 228.426 160.736C227.989 160.981 227.477 161.104 226.89 161.104C226.41 161.104 226.015 160.971 225.706 160.704C225.407 160.437 225.258 160.112 225.258 159.728Z" fill="#5786FF" fill-opacity="0.56"/>
<path d="M233.806 162H235.006V156.72C235.006 156.016 235.193 155.472 235.566 155.088C235.94 154.704 236.436 154.512 237.054 154.512H237.806V153.312H237.262C236.74 153.312 236.286 153.403 235.902 153.584C235.529 153.765 235.23 154.021 235.006 154.352V153.424H233.806V162Z" fill="#5786FF" fill-opacity="0.56"/>
<path d="M239.533 162H240.733V159.424L242.365 157.744L245.453 162H246.893L243.229 156.864L246.589 153.424H245.037L240.733 157.776V149.888H239.533V162Z" fill="#5786FF" fill-opacity="0.56"/>
<path d="M252.366 162.192C252.953 162.192 253.486 162.096 253.966 161.904C254.457 161.701 254.878 161.44 255.23 161.12C255.582 160.789 255.843 160.432 256.014 160.048L254.99 159.504C254.723 159.952 254.377 160.325 253.95 160.624C253.523 160.923 252.995 161.072 252.366 161.072C251.854 161.072 251.374 160.949 250.926 160.704C250.478 160.459 250.11 160.117 249.822 159.68C249.545 159.232 249.395 158.699 249.374 158.08H256.126C256.147 157.941 256.163 157.808 256.174 157.68C256.185 157.541 256.19 157.419 256.19 157.312C256.19 156.8 256.099 156.304 255.918 155.824C255.737 155.333 255.475 154.896 255.134 154.512C254.793 154.117 254.377 153.808 253.886 153.584C253.406 153.349 252.857 153.232 252.238 153.232C251.459 153.232 250.755 153.424 250.126 153.808C249.507 154.192 249.017 154.72 248.654 155.392C248.291 156.053 248.11 156.816 248.11 157.68C248.11 158.544 248.297 159.317 248.67 160C249.043 160.683 249.55 161.221 250.19 161.616C250.841 162 251.566 162.192 252.366 162.192ZM252.238 154.352C252.718 154.352 253.155 154.464 253.55 154.688C253.955 154.912 254.275 155.221 254.51 155.616C254.755 156 254.883 156.448 254.894 156.96H249.406C249.47 156.427 249.635 155.968 249.902 155.584C250.179 155.189 250.521 154.885 250.926 154.672C251.331 154.459 251.769 154.352 252.238 154.352Z" fill="#5786FF" fill-opacity="0.56"/>
<path d="M261.906 162.096C262.002 162.096 262.13 162.091 262.29 162.08C262.45 162.069 262.594 162.048 262.722 162.016V160.928C262.636 160.939 262.535 160.949 262.418 160.96C262.3 160.971 262.199 160.976 262.114 160.976C261.58 160.976 261.212 160.837 261.01 160.56C260.807 160.283 260.706 159.931 260.706 159.504V154.624H262.594V153.424H260.706V151.44H259.506V152.16C259.506 152.523 259.399 152.827 259.186 153.072C258.972 153.307 258.684 153.424 258.322 153.424H257.922V154.624H259.506V159.504C259.506 160.336 259.714 160.976 260.13 161.424C260.546 161.872 261.138 162.096 261.906 162.096Z" fill="#5786FF" fill-opacity="0.56"/>
<rect x="328" y="12" width="132" height="228" rx="16" fill="#F5F8FF"/>
<path d="M384.786 209.288C386.194 209.288 387.45 208.992 388.554 208.4C389.658 207.808 390.522 207 391.146 205.976C391.786 204.936 392.106 203.76 392.106 202.448V191.12H388.386V202.208C388.386 202.912 388.226 203.552 387.906 204.128C387.602 204.688 387.178 205.128 386.634 205.448C386.106 205.768 385.49 205.928 384.786 205.928C384.098 205.928 383.482 205.768 382.938 205.448C382.394 205.128 381.962 204.688 381.642 204.128C381.338 203.552 381.186 202.912 381.186 202.208V191.12H377.466V202.448C377.466 203.76 377.778 204.936 378.402 205.976C379.042 207 379.914 207.808 381.018 208.4C382.122 208.992 383.378 209.288 384.786 209.288Z" fill="#5786FF" fill-opacity="0.56"/>
<path d="M396.009 209H399.729V204.104L401.937 201.44L406.305 209H410.649L404.457 198.416L410.505 191.12H405.849L399.729 198.464V191.12H396.009V209Z" fill="#5786FF" fill-opacity="0.56"/>
<path d="M367.811 162H369.091V152.544L373.059 158.32H373.123L377.091 152.576V162H378.371V150.08H377.251L373.091 156.128L368.931 150.08H367.811V162Z" fill="#5786FF" fill-opacity="0.56"/>
<path d="M383.81 162.192C384.471 162.192 385.069 162.059 385.602 161.792C386.135 161.525 386.541 161.184 386.818 160.768V162H388.018V156.112C388.018 155.547 387.879 155.051 387.602 154.624C387.335 154.187 386.957 153.845 386.466 153.6C385.986 153.355 385.431 153.232 384.802 153.232C384.322 153.232 383.858 153.323 383.41 153.504C382.962 153.675 382.562 153.909 382.21 154.208C381.869 154.507 381.618 154.837 381.458 155.2L382.546 155.792C382.738 155.376 383.031 155.04 383.426 154.784C383.821 154.517 384.279 154.384 384.802 154.384C385.399 154.384 385.885 154.544 386.258 154.864C386.631 155.184 386.818 155.6 386.818 156.112V156.56L383.714 157.072C382.765 157.232 382.071 157.557 381.634 158.048C381.197 158.539 380.978 159.115 380.978 159.776C380.978 160.245 381.101 160.661 381.346 161.024C381.591 161.387 381.927 161.675 382.354 161.888C382.781 162.091 383.266 162.192 383.81 162.192ZM382.258 159.728C382.258 159.333 382.391 158.992 382.658 158.704C382.935 158.416 383.383 158.219 384.002 158.112L386.818 157.648V158.288C386.818 158.811 386.695 159.285 386.45 159.712C386.205 160.139 385.863 160.48 385.426 160.736C384.989 160.981 384.477 161.104 383.89 161.104C383.41 161.104 383.015 160.971 382.706 160.704C382.407 160.437 382.258 160.112 382.258 159.728Z" fill="#5786FF" fill-opacity="0.56"/>
<path d="M390.806 162H392.006V156.72C392.006 156.016 392.193 155.472 392.566 155.088C392.94 154.704 393.436 154.512 394.054 154.512H394.806V153.312H394.262C393.74 153.312 393.286 153.403 392.902 153.584C392.529 153.765 392.23 154.021 392.006 154.352V153.424H390.806V162Z" fill="#5786FF" fill-opacity="0.56"/>
<path d="M396.533 162H397.733V159.424L399.365 157.744L402.453 162H403.893L400.229 156.864L403.589 153.424H402.037L397.733 157.776V149.888H396.533V162Z" fill="#5786FF" fill-opacity="0.56"/>
<path d="M409.366 162.192C409.953 162.192 410.486 162.096 410.966 161.904C411.457 161.701 411.878 161.44 412.23 161.12C412.582 160.789 412.843 160.432 413.014 160.048L411.99 159.504C411.723 159.952 411.377 160.325 410.95 160.624C410.523 160.923 409.995 161.072 409.366 161.072C408.854 161.072 408.374 160.949 407.926 160.704C407.478 160.459 407.11 160.117 406.822 159.68C406.545 159.232 406.395 158.699 406.374 158.08H413.126C413.147 157.941 413.163 157.808 413.174 157.68C413.185 157.541 413.19 157.419 413.19 157.312C413.19 156.8 413.099 156.304 412.918 155.824C412.737 155.333 412.475 154.896 412.134 154.512C411.793 154.117 411.377 153.808 410.886 153.584C410.406 153.349 409.857 153.232 409.238 153.232C408.459 153.232 407.755 153.424 407.126 153.808C406.507 154.192 406.017 154.72 405.654 155.392C405.291 156.053 405.11 156.816 405.11 157.68C405.11 158.544 405.297 159.317 405.67 160C406.043 160.683 406.55 161.221 407.19 161.616C407.841 162 408.566 162.192 409.366 162.192ZM409.238 154.352C409.718 154.352 410.155 154.464 410.55 154.688C410.955 154.912 411.275 155.221 411.51 155.616C411.755 156 411.883 156.448 411.894 156.96H406.406C406.47 156.427 406.635 155.968 406.902 155.584C407.179 155.189 407.521 154.885 407.926 154.672C408.331 154.459 408.769 154.352 409.238 154.352Z" fill="#5786FF" fill-opacity="0.56"/>
<path d="M418.906 162.096C419.002 162.096 419.13 162.091 419.29 162.08C419.45 162.069 419.594 162.048 419.722 162.016V160.928C419.636 160.939 419.535 160.949 419.418 160.96C419.3 160.971 419.199 160.976 419.114 160.976C418.58 160.976 418.212 160.837 418.01 160.56C417.807 160.283 417.706 159.931 417.706 159.504V154.624H419.594V153.424H417.706V151.44H416.506V152.16C416.506 152.523 416.399 152.827 416.186 153.072C415.972 153.307 415.684 153.424 415.322 153.424H414.922V154.624H416.506V159.504C416.506 160.336 416.714 160.976 417.13 161.424C417.546 161.872 418.138 162.096 418.906 162.096Z" fill="#5786FF" fill-opacity="0.56"/>
<mask id="mask0" mask-type="alpha" maskUnits="userSpaceOnUse" x="362" y="48" width="64" height="64">
<path d="M362 80C362 97.6731 376.327 112 394 112C411.673 112 426 97.6731 426 80C426 62.3269 411.673 48 394 48C376.327 48 362 62.3269 362 80Z" fill="#00247D"/>
</mask>
<g mask="url(#mask0)">
<path d="M432.794 47.9998H355.256V112H432.794V47.9998Z" fill="#E8EFFF"/>
<path d="M428.092 117.748L394.025 89.6369L359.957 117.748L350.554 106.363L382.418 80.0616L350.554 53.7477L359.957 42.3631L394.025 70.4862L428.092 42.3631L437.495 53.7477L405.618 80.0616L437.495 106.363L428.092 117.748Z" fill="#F5F8FF"/>
<path d="M429.656 115.791L394.025 86.3752L358.394 115.791L352.117 108.197L386.296 79.9998L352.117 51.7906L358.394 44.1967L394.025 73.6121L429.656 44.1967L435.932 51.7906L401.754 79.9998L435.932 108.197L429.656 115.791Z" fill="#DEE8FF"/>
<path d="M402.025 112H386.025V87.9998H355.256V71.9998H386.025V47.9998H402.025V71.9998H432.794V87.9998H402.025V112Z" fill="#F5F8FF"/>
<path d="M399.563 112H388.486V85.5383H355.256V74.4614H388.486V47.9998H399.563V74.4614H432.794V85.5383H399.563V112Z" fill="#DEE8FF"/>
</g>
<rect x="1.5" y="1.5" width="129" height="225" rx="14.5" fill="url(#paint0_radial)" stroke="url(#paint1_linear)" stroke-width="3"/>
<path d="M57.7549 197.288C59.1629 197.288 60.4189 196.992 61.5229 196.4C62.6269 195.808 63.4909 195 64.1149 193.976C64.7549 192.936 65.0749 191.76 65.0749 190.448V179.12H61.3549V190.208C61.3549 190.912 61.1949 191.552 60.8749 192.128C60.5709 192.688 60.1469 193.128 59.6029 193.448C59.0749 193.768 58.4589 193.928 57.7549 193.928C57.0669 193.928 56.4509 193.768 55.9069 193.448C55.3629 193.128 54.9309 192.688 54.6109 192.128C54.3069 191.552 54.1549 190.912 54.1549 190.208V179.12H50.4349V190.448C50.4349 191.76 50.7469 192.936 51.3709 193.976C52.0109 195 52.8829 195.808 53.9869 196.4C55.0909 196.992 56.3469 197.288 57.7549 197.288Z" fill="white"/>
<path d="M75.4821 197.288C76.7461 197.288 77.8501 197.064 78.7941 196.616C79.7541 196.152 80.5061 195.52 81.0501 194.72C81.5941 193.904 81.8661 192.976 81.8661 191.936C81.8661 189.536 80.4341 187.872 77.5701 186.944L74.1381 185.84C73.0501 185.472 72.5061 184.864 72.5061 184.016C72.5061 183.44 72.7381 182.976 73.2021 182.624C73.6661 182.256 74.2741 182.072 75.0261 182.072C75.8901 182.072 76.6581 182.312 77.3301 182.792C78.0021 183.256 78.5061 183.904 78.8421 184.736L81.8661 183.368C81.3701 181.96 80.5061 180.856 79.2741 180.056C78.0581 179.24 76.6421 178.832 75.0261 178.832C73.8101 178.832 72.7301 179.056 71.7861 179.504C70.8581 179.952 70.1301 180.576 69.6021 181.376C69.0901 182.176 68.8341 183.104 68.8341 184.16C68.8341 186.592 70.2661 188.28 73.1301 189.224L76.6341 190.376C77.6901 190.728 78.2181 191.32 78.2181 192.152C78.2181 192.728 77.9861 193.192 77.5221 193.544C77.0741 193.88 76.4741 194.048 75.7221 194.048C74.7621 194.048 73.8821 193.768 73.0821 193.208C72.2981 192.648 71.6821 191.88 71.2341 190.904L68.1861 192.272C68.5381 193.296 69.0661 194.184 69.7701 194.936C70.4901 195.688 71.3381 196.272 72.3141 196.688C73.3061 197.088 74.3621 197.288 75.4821 197.288Z" fill="white"/>
<g clip-path="url(#clip0)">
<path d="M66 100C83.6731 100 98 85.6731 98 68C98 50.3269 83.6731 36 66 36C48.3269 36 34 50.3269 34 68C34 85.6731 48.3269 100 66 100Z" fill="white"/>
<path d="M64.6087 67.9999H98C98 65.1117 97.615 62.3137 96.8976 59.6521H64.6087V67.9999Z" fill="#CFDDFF"/>
<path d="M64.6087 51.3043H93.3032C91.3443 48.1078 88.8397 45.2824 85.9195 42.9564H64.6087V51.3043Z" fill="#CFDDFF"/>
<path d="M66 100C73.5311 100 80.4532 97.397 85.9195 93.0435H46.0805C51.5468 97.397 58.4689 100 66 100Z" fill="#CFDDFF"/>
<path d="M38.6968 84.6955H93.3033C94.8759 82.1293 96.0955 79.3243 96.8976 76.3476H35.1024C35.9045 79.3243 37.1241 82.1293 38.6968 84.6955Z" fill="#CFDDFF"/>
<path d="M48.823 40.9973H51.7391L49.0266 42.9679L50.0627 46.1565L47.3504 44.1859L44.638 46.1565L45.533 43.4019C43.1447 45.3912 41.0515 47.722 39.3265 50.319H40.2609L38.5342 51.5734C38.2652 52.0221 38.0072 52.478 37.76 52.9406L38.5845 55.4783L37.0463 54.3606C36.6639 55.1707 36.3141 55.9991 35.9998 56.8447L36.9081 59.6408H40.2609L37.5484 61.6114L38.5845 64.8L35.8721 62.8294L34.2474 64.0099C34.0847 65.3171 34 66.6486 34 68H66C66 50.327 66 48.2435 66 36C59.6785 36 53.7856 37.8338 48.823 40.9973ZM50.0627 64.8L47.3504 62.8294L44.638 64.8L45.6741 61.6114L42.9616 59.6408H46.3144L47.3504 56.4521L48.3864 59.6408H51.7391L49.0266 61.6114L50.0627 64.8ZM49.0266 52.2896L50.0627 55.4783L47.3504 53.5076L44.638 55.4783L45.6741 52.2896L42.9616 50.319H46.3144L47.3504 47.1304L48.3864 50.319H51.7391L49.0266 52.2896ZM61.541 64.8L58.8286 62.8294L56.1162 64.8L57.1524 61.6114L54.4399 59.6408H57.7926L58.8286 56.4521L59.8646 59.6408H63.2174L60.5049 61.6114L61.541 64.8ZM60.5049 52.2896L61.541 55.4783L58.8286 53.5076L56.1162 55.4783L57.1524 52.2896L54.4399 50.319H57.7926L58.8286 47.1304L59.8646 50.319H63.2174L60.5049 52.2896ZM60.5049 42.9679L61.541 46.1565L58.8286 44.1859L56.1162 46.1565L57.1524 42.9679L54.4399 40.9973H57.7926L58.8286 37.8086L59.8646 40.9973H63.2174L60.5049 42.9679Z" fill="#A2BCFF"/>
</g>
<path d="M40.8111 150H42.0911V140.544L46.0591 146.32H46.1231L50.0911 140.576V150H51.3711V138.08H50.2511L46.0911 144.128L41.9311 138.08H40.8111V150Z" fill="white"/>
<path d="M56.8101 150.192C57.4715 150.192 58.0688 150.059 58.6021 149.792C59.1355 149.525 59.5408 149.184 59.8181 148.768V150H61.0181V144.112C61.0181 143.547 60.8795 143.051 60.6021 142.624C60.3355 142.187 59.9568 141.845 59.4661 141.6C58.9861 141.355 58.4315 141.232 57.8021 141.232C57.3221 141.232 56.8581 141.323 56.4101 141.504C55.9621 141.675 55.5621 141.909 55.2101 142.208C54.8688 142.507 54.6181 142.837 54.4581 143.2L55.5461 143.792C55.7381 143.376 56.0315 143.04 56.4261 142.784C56.8208 142.517 57.2795 142.384 57.8021 142.384C58.3995 142.384 58.8848 142.544 59.2581 142.864C59.6315 143.184 59.8181 143.6 59.8181 144.112V144.56L56.7141 145.072C55.7648 145.232 55.0715 145.557 54.6341 146.048C54.1968 146.539 53.9781 147.115 53.9781 147.776C53.9781 148.245 54.1008 148.661 54.3461 149.024C54.5915 149.387 54.9275 149.675 55.3541 149.888C55.7808 150.091 56.2661 150.192 56.8101 150.192ZM55.2581 147.728C55.2581 147.333 55.3915 146.992 55.6581 146.704C55.9355 146.416 56.3835 146.219 57.0021 146.112L59.8181 145.648V146.288C59.8181 146.811 59.6955 147.285 59.4501 147.712C59.2048 148.139 58.8635 148.48 58.4261 148.736C57.9888 148.981 57.4768 149.104 56.8901 149.104C56.4101 149.104 56.0155 148.971 55.7061 148.704C55.4075 148.437 55.2581 148.112 55.2581 147.728Z" fill="white"/>
<path d="M63.8064 150H65.0064V144.72C65.0064 144.016 65.193 143.472 65.5664 143.088C65.9397 142.704 66.4357 142.512 67.0544 142.512H67.8064V141.312H67.2624C66.7397 141.312 66.2864 141.403 65.9024 141.584C65.529 141.765 65.2304 142.021 65.0064 142.352V141.424H63.8064V150Z" fill="white"/>
<path d="M69.5326 150H70.7326V147.424L72.3646 145.744L75.4526 150H76.8926L73.2286 144.864L76.5886 141.424H75.0366L70.7326 145.776V137.888H69.5326V150Z" fill="white"/>
<path d="M82.366 150.192C82.9527 150.192 83.486 150.096 83.966 149.904C84.4567 149.701 84.878 149.44 85.23 149.12C85.582 148.789 85.8433 148.432 86.014 148.048L84.99 147.504C84.7233 147.952 84.3767 148.325 83.95 148.624C83.5233 148.923 82.9953 149.072 82.366 149.072C81.854 149.072 81.374 148.949 80.926 148.704C80.478 148.459 80.11 148.117 79.822 147.68C79.5447 147.232 79.3953 146.699 79.374 146.08H86.126C86.1473 145.941 86.1633 145.808 86.174 145.68C86.1847 145.541 86.19 145.419 86.19 145.312C86.19 144.8 86.0993 144.304 85.918 143.824C85.7367 143.333 85.4753 142.896 85.134 142.512C84.7927 142.117 84.3767 141.808 83.886 141.584C83.406 141.349 82.8567 141.232 82.238 141.232C81.4593 141.232 80.7553 141.424 80.126 141.808C79.5073 142.192 79.0167 142.72 78.654 143.392C78.2913 144.053 78.11 144.816 78.11 145.68C78.11 146.544 78.2967 147.317 78.67 148C79.0433 148.683 79.55 149.221 80.19 149.616C80.8407 150 81.566 150.192 82.366 150.192ZM82.238 142.352C82.718 142.352 83.1553 142.464 83.55 142.688C83.9553 142.912 84.2753 143.221 84.51 143.616C84.7553 144 84.8833 144.448 84.894 144.96H79.406C79.47 144.427 79.6353 143.968 79.902 143.584C80.1793 143.189 80.5207 142.885 80.926 142.672C81.3313 142.459 81.7687 142.352 82.238 142.352Z" fill="white"/>
<path d="M91.9058 150.096C92.0018 150.096 92.1297 150.091 92.2897 150.08C92.4497 150.069 92.5937 150.048 92.7217 150.016V148.928C92.6364 148.939 92.5351 148.949 92.4178 148.96C92.3004 148.971 92.1991 148.976 92.1138 148.976C91.5804 148.976 91.2124 148.837 91.0098 148.56C90.8071 148.283 90.7057 147.931 90.7057 147.504V142.624H92.5938V141.424H90.7057V139.44H89.5057V140.16C89.5057 140.523 89.3991 140.827 89.1857 141.072C88.9724 141.307 88.6844 141.424 88.3218 141.424H87.9217V142.624H89.5057V147.504C89.5057 148.336 89.7137 148.976 90.1297 149.424C90.5457 149.872 91.1378 150.096 91.9058 150.096Z" fill="white"/>
<defs>
<radialGradient id="paint0_radial" cx="0" cy="0" r="1" gradientUnits="userSpaceOnUse" gradientTransform="translate(8.25 15.2) rotate(62.1993) scale(240.567 199.367)">
<stop stop-color="#6D96FF"/>
<stop offset="1" stop-color="#5786FF"/>
</radialGradient>
<linearGradient id="paint1_linear" x1="66" y1="0" x2="66" y2="228" gradientUnits="userSpaceOnUse">
<stop stop-color="white" stop-opacity="0.12"/>
<stop offset="1" stop-color="white" stop-opacity="0.06"/>
</linearGradient>
<clipPath id="clip0">
<rect width="64" height="64" fill="white" transform="translate(34 36)"/>
</clipPath>
</defs>
</svg>
