<svg width="448" height="200" viewBox="0 0 448 200" fill="none" xmlns="http://www.w3.org/2000/svg">
<rect x="88" width="360" height="200" rx="16" fill="#F6F5FF"/>
<rect x="285" y="30" width="133" height="12" rx="6" fill="#6A52FF" fill-opacity="0.08"/>
<rect x="118" y="62" width="300" height="12" rx="6" fill="#6A52FF" fill-opacity="0.08"/>
<rect x="118" y="94" width="300" height="12" rx="6" fill="#6A52FF" fill-opacity="0.08"/>
<rect x="118" y="126" width="300" height="12" rx="6" fill="#6A52FF" fill-opacity="0.08"/>
<g filter="url(#filter0_b)">
<circle r="40" transform="matrix(-1 0 0 1 86.6667 93.3333)" fill="white" fill-opacity="0.04"/>
<circle r="40" transform="matrix(-1 0 0 1 86.6667 93.3333)" stroke="#6A52FF" stroke-width="10"/>
</g>
<path d="M86.6667 73.3333C89.2931 73.3333 91.8938 73.8506 94.3204 74.8557C96.7469 75.8608 98.9517 77.334 100.809 79.1912C102.666 81.0483 104.139 83.2531 105.144 85.6796C106.149 88.1062 106.667 90.7069 106.667 93.3333" stroke="#6A52FF" stroke-width="4" stroke-linecap="round"/>
<path d="M26.6667 153.333L46.6667 133.333" stroke="#6A52FF" stroke-width="10" stroke-linecap="round"/>
<rect x="152" y="158" width="266" height="12" rx="6" fill="#6A52FF" fill-opacity="0.08"/>
<defs>
<filter id="filter0_b" x="33.6667" y="40.3333" width="106" height="106" filterUnits="userSpaceOnUse" color-interpolation-filters="sRGB">
<feFlood flood-opacity="0" result="BackgroundImageFix"/>
<feGaussianBlur in="BackgroundImage" stdDeviation="4"/>
<feComposite in2="SourceAlpha" operator="in" result="effect1_backgroundBlur"/>
<feBlend mode="normal" in="SourceGraphic" in2="effect1_backgroundBlur" result="shape"/>
</filter>
</defs>
</svg>
