<svg width="448" height="408" viewBox="0 0 448 408" fill="none" xmlns="http://www.w3.org/2000/svg">
<rect x="1" y="145" width="118" height="118" rx="15" stroke="#5786FF" stroke-opacity="0.12" stroke-width="2"/>
<path d="M24.536 196H28.888V172.16H19.928V175.872H24.536V196Z" fill="#5786FF"/>
<path d="M43.2983 196.384C45.0263 196.384 46.5196 196.064 47.7783 195.424C49.0583 194.763 50.0396 193.888 50.7223 192.8C51.4263 191.691 51.7783 190.475 51.7783 189.152C51.7783 187.829 51.4689 186.688 50.8503 185.728C50.2529 184.747 49.3783 183.947 48.2263 183.328C49.0369 182.795 49.6663 182.091 50.1143 181.216C50.5623 180.32 50.7863 179.339 50.7863 178.272C50.7863 177.013 50.4663 175.893 49.8263 174.912C49.1863 173.931 48.3009 173.163 47.1703 172.608C46.0396 172.053 44.7489 171.776 43.2983 171.776C41.8263 171.776 40.5249 172.064 39.3943 172.64C38.2636 173.195 37.3783 173.963 36.7383 174.944C36.0983 175.904 35.7783 177.013 35.7783 178.272C35.7783 179.317 36.0023 180.299 36.4503 181.216C36.8983 182.133 37.5383 182.837 38.3703 183.328C36.0023 184.565 34.8183 186.496 34.8183 189.12C34.8183 190.443 35.1596 191.659 35.8423 192.768C36.5463 193.877 37.5276 194.763 38.7863 195.424C40.0663 196.064 41.5703 196.384 43.2983 196.384ZM43.2983 181.632C42.3596 181.632 41.5916 181.344 40.9943 180.768C40.4183 180.171 40.1303 179.424 40.1303 178.528C40.1303 177.653 40.4183 176.928 40.9943 176.352C41.5916 175.755 42.3596 175.456 43.2983 175.456C44.2369 175.456 44.9943 175.755 45.5703 176.352C46.1463 176.928 46.4343 177.653 46.4343 178.528C46.4343 179.424 46.1463 180.171 45.5703 180.768C44.9943 181.344 44.2369 181.632 43.2983 181.632ZM43.2983 192.704C42.0609 192.704 41.0689 192.363 40.3223 191.68C39.5756 190.997 39.2023 190.101 39.2023 188.992C39.2023 187.883 39.5756 186.997 40.3223 186.336C41.0689 185.653 42.0609 185.312 43.2983 185.312C44.5356 185.312 45.5276 185.653 46.2743 186.336C47.0423 186.997 47.4263 187.883 47.4263 188.992C47.4263 190.101 47.0423 190.997 46.2743 191.68C45.5276 192.363 44.5356 192.704 43.2983 192.704Z" fill="#5786FF"/>
<rect x="16" y="219" width="88" height="6" rx="3" fill="#5786FF" fill-opacity="0.2"/>
<rect x="16" y="239" width="32" height="6" rx="3" fill="#5786FF" fill-opacity="0.2"/>
<path d="M24.536 340H28.888V316.16H19.928V319.872H24.536V340Z" fill="#5786FF"/>
<path d="M36.1943 340H41.4103L48.0663 331.36C48.8983 330.272 49.5276 329.301 49.9543 328.448C50.4023 327.573 50.7009 326.752 50.8503 325.984C51.0209 325.216 51.1063 324.448 51.1063 323.68C51.1063 322.165 50.7436 320.811 50.0183 319.616C49.3143 318.421 48.3436 317.483 47.1063 316.8C45.8689 316.117 44.4396 315.776 42.8183 315.776C41.2183 315.776 39.7889 316.117 38.5303 316.8C37.2929 317.483 36.3116 318.432 35.5863 319.648C34.8823 320.843 34.5303 322.208 34.5303 323.744C34.5303 325.195 34.8503 326.496 35.4903 327.648C36.1516 328.779 37.0476 329.675 38.1783 330.336C39.3089 330.997 40.5996 331.328 42.0503 331.328C42.3916 331.328 42.7009 331.307 42.9783 331.264L36.1943 340ZM42.8183 327.68C41.7089 327.68 40.7703 327.317 40.0023 326.592C39.2556 325.845 38.8823 324.885 38.8823 323.712C38.8823 322.517 39.2556 321.547 40.0023 320.8C40.7703 320.053 41.7089 319.68 42.8183 319.68C43.9276 319.68 44.8556 320.053 45.6023 320.8C46.3489 321.547 46.7223 322.517 46.7223 323.712C46.7223 324.885 46.3489 325.845 45.6023 326.592C44.8556 327.317 43.9276 327.68 42.8183 327.68Z" fill="#5786FF"/>
<rect x="16" y="363" width="88" height="6" rx="3" fill="#5786FF" fill-opacity="0.2"/>
<rect x="16" y="383" width="32" height="6" rx="3" fill="#5786FF" fill-opacity="0.2"/>
<rect x="1" y="289" width="118" height="118" rx="15" stroke="#5786FF" stroke-opacity="0.12" stroke-width="2"/>
<rect x="144" y="144" width="304" height="264" rx="16" fill="#5786FF" fill-opacity="0.06"/>
<rect x="164" y="164" width="40" height="40" rx="20" fill="#5785FD" fill-opacity="0.12"/>
<rect x="224" y="192" width="204" height="6" rx="3" fill="#5785FD" fill-opacity="0.12"/>
<rect x="224" y="170" width="58" height="6" rx="3" fill="#5785FD" fill-opacity="0.12"/>
<rect x="164" y="286" width="40" height="40" rx="20" fill="#5785FD" fill-opacity="0.12"/>
<rect x="224" y="314" width="204" height="6" rx="3" fill="#5785FD" fill-opacity="0.12"/>
<rect x="224" y="292" width="58" height="6" rx="3" fill="#5785FD" fill-opacity="0.12"/>
<rect x="164" y="220" width="264" height="6" rx="3" fill="#5786FF" fill-opacity="0.05"/>
<rect x="164" y="242" width="264" height="6" rx="3" fill="#5786FF" fill-opacity="0.05"/>
<rect x="164" y="264" width="215" height="6" rx="3" fill="#5786FF" fill-opacity="0.05"/>
<rect x="164" y="342" width="264" height="6" rx="3" fill="#5786FF" fill-opacity="0.05"/>
<rect x="164" y="364" width="264" height="6" rx="3" fill="#5786FF" fill-opacity="0.05"/>
<rect x="164" y="386" width="215" height="6" rx="3" fill="#5786FF" fill-opacity="0.05"/>
<rect x="145" y="1" width="302" height="118" rx="15" fill="#5786FF" fill-opacity="0.06" stroke="#5786FF" stroke-width="2"/>
<rect x="164" y="20" width="40" height="40" rx="20" fill="#5786FF" fill-opacity="0.12"/>
<rect x="224" y="48" width="204" height="6" rx="3" fill="#5786FF" fill-opacity="0.12"/>
<rect x="224" y="26" width="58" height="6" rx="3" fill="#5786FF" fill-opacity="0.12"/>
<rect x="164" y="76" width="264" height="6" rx="3" fill="#5786FF" fill-opacity="0.05"/>
<rect x="164" y="98" width="215" height="6" rx="3" fill="#5786FF" fill-opacity="0.05"/>
<rect width="120" height="120" rx="16" fill="url(#paint0_radial)"/>
<path d="M25.0054 52H29.3574V28.16H20.3974V31.872H25.0054V52Z" fill="white"/>
<path d="M35.9596 52H40.7596L50.4556 31.808V28.128H34.6476V31.808H45.8796L35.9596 52Z" fill="white"/>
<g opacity="0.24">
<rect x="16" y="75" width="88" height="6" rx="3" fill="white"/>
<rect x="16" y="95" width="32" height="6" rx="3" fill="white"/>
</g>
<rect x="94" y="14" width="12" height="12" rx="6" fill="white"/>
<defs>
<radialGradient id="paint0_radial" cx="0" cy="0" r="1" gradientUnits="userSpaceOnUse" gradientTransform="translate(7.5 8) rotate(47.6754) scale(151.486)">
<stop stop-color="#6D96FF"/>
<stop offset="1" stop-color="#5786FF"/>
</radialGradient>
</defs>
</svg>
