<svg width="448" height="208" viewBox="0 0 448 208" fill="none" xmlns="http://www.w3.org/2000/svg">
<rect x="241" y="1" width="206" height="206" rx="15" fill="#F6F5FF" stroke="#6A52FF" stroke-width="2"/>
<path d="M350.552 92.8683L350.656 93.0282L350.84 93.0779L359.346 95.3731C359.346 95.3731 359.346 95.3731 359.346 95.3731C360.794 95.764 361.363 97.5179 360.422 98.6843L360.811 98.9983L360.422 98.6843L354.89 105.541L354.77 105.689L354.78 105.88L355.225 114.678L355.225 114.678C355.301 116.177 353.807 117.258 352.408 116.725C352.408 116.725 352.408 116.725 352.408 116.725L344.178 113.582L344 113.514L343.822 113.582L335.591 116.725C334.19 117.26 332.699 116.175 332.775 114.678L332.775 114.678L333.22 105.88L333.23 105.689L333.11 105.541L327.578 98.6843L327.578 98.6843C326.636 97.5174 327.207 95.7639 328.654 95.3731C328.654 95.3731 328.654 95.3731 328.654 95.3731L337.159 93.0779L337.344 93.0282L337.448 92.8683L342.259 85.4885L342.259 85.4884C343.078 84.2322 344.922 84.233 345.741 85.4884L346.159 85.2154L345.741 85.4885L350.552 92.8683Z" fill="#6A52FF" stroke="#6A52FF" stroke-width="0.999984"/>
<mask id="path-3-inside-1" fill="white">
<path fill-rule="evenodd" clip-rule="evenodd" d="M320.804 93.3492C321.206 92.9902 321.7 92.7138 322.272 92.5594L334.213 89.3389L340.968 78.9837C342.395 76.7961 345.606 76.7978 347.032 78.9837L353.787 89.3389L365.729 92.5594C366.301 92.7137 366.794 92.9899 367.195 93.3484C367.2 93.2847 367.202 93.2204 367.202 93.1555V82.6713C367.202 75.5636 361.42 69.7809 354.312 69.7809H344H333.687C326.58 69.7809 320.797 75.5636 320.797 82.6713V93.1555C320.797 93.2206 320.8 93.2852 320.804 93.3492Z"/>
</mask>
<path fill-rule="evenodd" clip-rule="evenodd" d="M320.804 93.3492C321.206 92.9902 321.7 92.7138 322.272 92.5594L334.213 89.3389L340.968 78.9837C342.395 76.7961 345.606 76.7978 347.032 78.9837L353.787 89.3389L365.729 92.5594C366.301 92.7137 366.794 92.9899 367.195 93.3484C367.2 93.2847 367.202 93.2204 367.202 93.1555V82.6713C367.202 75.5636 361.42 69.7809 354.312 69.7809H344H333.687C326.58 69.7809 320.797 75.5636 320.797 82.6713V93.1555C320.797 93.2206 320.8 93.2852 320.804 93.3492Z" fill="#6A52FF" fill-opacity="0.36"/>
<path d="M322.272 92.5594L322.011 91.5939L322.011 91.5939L322.272 92.5594ZM320.804 93.3492L319.807 93.4232L319.957 95.4465L321.47 94.0949L320.804 93.3492ZM334.213 89.3389L334.473 90.3044L334.842 90.205L335.051 89.8852L334.213 89.3389ZM340.968 78.9837L341.806 79.5301L341.806 79.53L340.968 78.9837ZM347.032 78.9837L346.195 79.5301L346.195 79.5301L347.032 78.9837ZM353.787 89.3389L352.95 89.8852L353.158 90.205L353.527 90.3044L353.787 89.3389ZM365.729 92.5594L365.989 91.5939L365.989 91.5939L365.729 92.5594ZM367.195 93.3484L366.529 94.0944L368.043 95.4454L368.193 93.4222L367.195 93.3484ZM322.011 91.5939C321.286 91.7895 320.654 92.1422 320.138 92.6034L321.47 94.0949C321.758 93.8382 322.113 93.638 322.532 93.5248L322.011 91.5939ZM333.953 88.3734L322.011 91.5939L322.532 93.5249L334.473 90.3044L333.953 88.3734ZM340.13 78.4374L333.376 88.7925L335.051 89.8852L341.806 79.5301L340.13 78.4374ZM347.87 78.4374C346.05 75.647 341.952 75.6445 340.13 78.4374L341.806 79.53C342.838 77.9477 345.163 77.9486 346.195 79.5301L347.87 78.4374ZM354.625 88.7925L347.87 78.4374L346.195 79.5301L352.95 89.8852L354.625 88.7925ZM365.989 91.5939L354.048 88.3734L353.527 90.3044L365.468 93.5249L365.989 91.5939ZM367.861 92.6024C367.345 92.1417 366.714 91.7894 365.989 91.5939L365.468 93.5249C365.887 93.638 366.242 93.838 366.529 94.0944L367.861 92.6024ZM368.193 93.4222C368.199 93.334 368.202 93.245 368.202 93.1555H366.202C366.202 93.1957 366.201 93.2354 366.198 93.2746L368.193 93.4222ZM368.202 93.1555V82.6713H366.202V93.1555H368.202ZM368.202 82.6713C368.202 75.0113 361.972 68.781 354.312 68.781V70.7809C360.868 70.7809 366.202 76.1158 366.202 82.6713H368.202ZM354.312 68.781H344V70.7809H354.312V68.781ZM344 68.781H333.687V70.7809H344V68.781ZM333.687 68.781C326.027 68.781 319.797 75.0113 319.797 82.6713H321.797C321.797 76.1158 327.132 70.7809 333.687 70.7809V68.781ZM319.797 82.6713V93.1555H321.797V82.6713H319.797ZM319.797 93.1555C319.797 93.2454 319.8 93.3347 319.807 93.4232L321.802 93.2751C321.799 93.2358 321.797 93.1959 321.797 93.1555H319.797Z" fill="#6A52FF" mask="url(#path-3-inside-1)"/>
<path d="M355.032 55.6013C355.032 61.7223 350.052 66.7027 343.931 66.7027C337.81 66.7027 332.83 61.7221 332.83 55.6013C332.83 49.4806 337.81 44.5 343.931 44.5C350.052 44.5 355.032 49.4804 355.032 55.6013Z" fill="#6A52FF" fill-opacity="0.36" stroke="#6A52FF" stroke-width="0.999984"/>
<path d="M280.771 167H286.423C287.791 167 288.871 166.646 289.663 165.938C290.455 165.23 290.851 164.258 290.851 163.022C290.851 162.35 290.689 161.732 290.365 161.168C290.053 160.604 289.579 160.142 288.943 159.782C289.855 159.146 290.311 158.252 290.311 157.1C290.311 156.032 289.957 155.18 289.249 154.544C288.553 153.908 287.605 153.59 286.405 153.59H280.771V167ZM282.535 159.098V155.192H286.369C287.017 155.192 287.539 155.36 287.935 155.696C288.331 156.02 288.529 156.482 288.529 157.082C288.529 157.67 288.331 158.156 287.935 158.54C287.539 158.912 287.017 159.098 286.369 159.098H282.535ZM282.535 165.38V160.682H286.495C287.275 160.682 287.899 160.898 288.367 161.33C288.835 161.762 289.069 162.332 289.069 163.04C289.069 163.76 288.835 164.33 288.367 164.75C287.899 165.17 287.275 165.38 286.495 165.38H282.535Z" fill="#6A52FF"/>
<path d="M297.5 167.216C298.496 167.216 299.36 166.982 300.092 166.514C300.824 166.046 301.34 165.476 301.64 164.804L300.236 164.084C299.96 164.552 299.6 164.936 299.156 165.236C298.712 165.536 298.166 165.686 297.518 165.686C296.978 165.686 296.474 165.566 296.006 165.326C295.55 165.074 295.172 164.72 294.872 164.264C294.584 163.808 294.428 163.268 294.404 162.644H301.82C301.88 162.32 301.91 162.02 301.91 161.744C301.91 160.94 301.73 160.184 301.37 159.476C301.01 158.768 300.488 158.192 299.804 157.748C299.132 157.304 298.316 157.082 297.356 157.082C296.456 157.082 295.652 157.298 294.944 157.73C294.236 158.162 293.672 158.762 293.252 159.53C292.844 160.286 292.64 161.15 292.64 162.122C292.64 163.094 292.85 163.964 293.27 164.732C293.69 165.5 294.266 166.106 294.998 166.55C295.73 166.994 296.564 167.216 297.5 167.216ZM297.356 158.576C297.848 158.576 298.298 158.69 298.706 158.918C299.114 159.134 299.444 159.44 299.696 159.836C299.948 160.232 300.08 160.688 300.092 161.204H294.44C294.56 160.388 294.896 159.746 295.448 159.278C296 158.81 296.636 158.576 297.356 158.576Z" fill="#6A52FF"/>
<path d="M308.719 170.96C309.619 170.96 310.417 170.768 311.113 170.384C311.821 170.012 312.373 169.496 312.769 168.836C313.165 168.176 313.363 167.426 313.363 166.586V157.298H311.725V158.648C311.341 158.156 310.867 157.772 310.303 157.496C309.739 157.22 309.115 157.082 308.431 157.082C307.519 157.082 306.703 157.298 305.983 157.73C305.275 158.15 304.717 158.726 304.309 159.458C303.901 160.19 303.697 161.012 303.697 161.924C303.697 162.836 303.901 163.658 304.309 164.39C304.729 165.122 305.293 165.704 306.001 166.136C306.721 166.556 307.537 166.766 308.449 166.766C309.109 166.766 309.721 166.634 310.285 166.37C310.849 166.106 311.311 165.728 311.671 165.236V166.586C311.671 167.174 311.533 167.672 311.257 168.08C310.993 168.5 310.639 168.812 310.195 169.016C309.751 169.232 309.253 169.34 308.701 169.34C307.981 169.34 307.381 169.178 306.901 168.854C306.433 168.542 306.115 168.158 305.947 167.702L304.381 168.422C304.705 169.178 305.251 169.79 306.019 170.258C306.787 170.726 307.687 170.96 308.719 170.96ZM308.593 165.146C307.993 165.146 307.453 165.002 306.973 164.714C306.505 164.426 306.133 164.042 305.857 163.562C305.593 163.07 305.461 162.524 305.461 161.924C305.461 161.324 305.599 160.784 305.875 160.304C306.151 159.812 306.523 159.422 306.991 159.134C307.471 158.846 308.005 158.702 308.593 158.702C309.169 158.702 309.691 158.846 310.159 159.134C310.627 159.422 310.993 159.812 311.257 160.304C311.533 160.784 311.671 161.324 311.671 161.924C311.671 162.512 311.533 163.052 311.257 163.544C310.993 164.036 310.627 164.426 310.159 164.714C309.691 165.002 309.169 165.146 308.593 165.146Z" fill="#6A52FF"/>
<path d="M315.958 155.75H317.632V153.59H315.958V155.75ZM315.958 167H317.632V157.298H315.958V167Z" fill="#6A52FF"/>
<path d="M320.23 167H321.904V161.258C321.904 160.466 322.126 159.842 322.57 159.386C323.014 158.93 323.578 158.702 324.262 158.702C324.946 158.702 325.504 158.93 325.936 159.386C326.368 159.83 326.584 160.454 326.584 161.258V167H328.276V160.718C328.276 160.022 328.114 159.404 327.79 158.864C327.478 158.312 327.046 157.88 326.494 157.568C325.954 157.244 325.336 157.082 324.64 157.082C324.04 157.082 323.5 157.208 323.02 157.46C322.54 157.7 322.156 158.042 321.868 158.486V157.298H320.23V167Z" fill="#6A52FF"/>
<path d="M330.671 167H332.345V161.258C332.345 160.466 332.567 159.842 333.011 159.386C333.455 158.93 334.019 158.702 334.703 158.702C335.387 158.702 335.945 158.93 336.377 159.386C336.809 159.83 337.025 160.454 337.025 161.258V167H338.717V160.718C338.717 160.022 338.555 159.404 338.231 158.864C337.919 158.312 337.487 157.88 336.935 157.568C336.395 157.244 335.777 157.082 335.081 157.082C334.481 157.082 333.941 157.208 333.461 157.46C332.981 157.7 332.597 158.042 332.309 158.486V157.298H330.671V167Z" fill="#6A52FF"/>
<path d="M345.576 167.216C346.572 167.216 347.436 166.982 348.168 166.514C348.9 166.046 349.416 165.476 349.716 164.804L348.312 164.084C348.036 164.552 347.676 164.936 347.232 165.236C346.788 165.536 346.242 165.686 345.594 165.686C345.054 165.686 344.55 165.566 344.082 165.326C343.626 165.074 343.248 164.72 342.948 164.264C342.66 163.808 342.504 163.268 342.48 162.644H349.896C349.956 162.32 349.986 162.02 349.986 161.744C349.986 160.94 349.806 160.184 349.446 159.476C349.086 158.768 348.564 158.192 347.88 157.748C347.208 157.304 346.392 157.082 345.432 157.082C344.532 157.082 343.728 157.298 343.02 157.73C342.312 158.162 341.748 158.762 341.328 159.53C340.92 160.286 340.716 161.15 340.716 162.122C340.716 163.094 340.926 163.964 341.346 164.732C341.766 165.5 342.342 166.106 343.074 166.55C343.806 166.994 344.64 167.216 345.576 167.216ZM345.432 158.576C345.924 158.576 346.374 158.69 346.782 158.918C347.19 159.134 347.52 159.44 347.772 159.836C348.024 160.232 348.156 160.688 348.168 161.204H342.516C342.636 160.388 342.972 159.746 343.524 159.278C344.076 158.81 344.712 158.576 345.432 158.576Z" fill="#6A52FF"/>
<path d="M352.169 167H353.843V161.222C353.843 160.442 354.053 159.842 354.473 159.422C354.893 158.99 355.445 158.774 356.129 158.774H356.975V157.19H356.381C355.781 157.19 355.265 157.298 354.833 157.514C354.401 157.718 354.059 158.03 353.807 158.45V157.298H352.169V167Z" fill="#6A52FF"/>
<path d="M361.936 167.216C362.632 167.216 363.244 167.096 363.772 166.856C364.3 166.616 364.714 166.286 365.014 165.866C365.314 165.434 365.464 164.942 365.464 164.39C365.464 163.718 365.242 163.142 364.798 162.662C364.354 162.182 363.742 161.828 362.962 161.6L361.378 161.132C361.186 161.072 360.988 161 360.784 160.916C360.58 160.82 360.406 160.688 360.262 160.52C360.118 160.34 360.046 160.112 360.046 159.836C360.046 159.452 360.19 159.14 360.478 158.9C360.778 158.66 361.168 158.54 361.648 158.54C362.176 158.54 362.656 158.69 363.088 158.99C363.532 159.278 363.862 159.674 364.078 160.178L365.446 159.548C365.158 158.768 364.672 158.162 363.988 157.73C363.316 157.298 362.554 157.082 361.702 157.082C361.066 157.082 360.49 157.202 359.974 157.442C359.47 157.682 359.068 158.018 358.768 158.45C358.48 158.87 358.336 159.368 358.336 159.944C358.336 160.568 358.534 161.12 358.93 161.6C359.338 162.068 359.98 162.422 360.856 162.662L362.314 163.076C362.518 163.124 362.728 163.202 362.944 163.31C363.172 163.406 363.364 163.544 363.52 163.724C363.688 163.892 363.772 164.12 363.772 164.408C363.772 164.816 363.598 165.146 363.25 165.398C362.902 165.65 362.464 165.776 361.936 165.776C361.348 165.776 360.814 165.614 360.334 165.29C359.854 164.954 359.476 164.492 359.2 163.904L357.868 164.552C358.168 165.368 358.678 166.016 359.398 166.496C360.118 166.976 360.964 167.216 361.936 167.216Z" fill="#6A52FF"/>
<path d="M375.825 167.216C376.809 167.216 377.667 167.012 378.399 166.604C379.143 166.196 379.725 165.638 380.145 164.93C380.565 164.21 380.775 163.394 380.775 162.482V153.59H378.993V162.446C378.993 163.058 378.855 163.604 378.579 164.084C378.315 164.552 377.943 164.918 377.463 165.182C376.995 165.446 376.449 165.578 375.825 165.578C375.201 165.578 374.649 165.446 374.169 165.182C373.701 164.918 373.329 164.552 373.053 164.084C372.789 163.604 372.657 163.058 372.657 162.446V153.59H370.875V162.482C370.875 163.394 371.085 164.21 371.505 164.93C371.925 165.638 372.507 166.196 373.251 166.604C373.995 167.012 374.853 167.216 375.825 167.216Z" fill="#6A52FF"/>
<path d="M386.95 167.216C387.646 167.216 388.258 167.096 388.786 166.856C389.314 166.616 389.728 166.286 390.028 165.866C390.328 165.434 390.478 164.942 390.478 164.39C390.478 163.718 390.256 163.142 389.812 162.662C389.368 162.182 388.756 161.828 387.976 161.6L386.392 161.132C386.2 161.072 386.002 161 385.798 160.916C385.594 160.82 385.42 160.688 385.276 160.52C385.132 160.34 385.06 160.112 385.06 159.836C385.06 159.452 385.204 159.14 385.492 158.9C385.792 158.66 386.182 158.54 386.662 158.54C387.19 158.54 387.67 158.69 388.102 158.99C388.546 159.278 388.876 159.674 389.092 160.178L390.46 159.548C390.172 158.768 389.686 158.162 389.002 157.73C388.33 157.298 387.568 157.082 386.716 157.082C386.08 157.082 385.504 157.202 384.988 157.442C384.484 157.682 384.082 158.018 383.782 158.45C383.494 158.87 383.35 159.368 383.35 159.944C383.35 160.568 383.548 161.12 383.944 161.6C384.352 162.068 384.994 162.422 385.87 162.662L387.328 163.076C387.532 163.124 387.742 163.202 387.958 163.31C388.186 163.406 388.378 163.544 388.534 163.724C388.702 163.892 388.786 164.12 388.786 164.408C388.786 164.816 388.612 165.146 388.264 165.398C387.916 165.65 387.478 165.776 386.95 165.776C386.362 165.776 385.828 165.614 385.348 165.29C384.868 164.954 384.49 164.492 384.214 163.904L382.882 164.552C383.182 165.368 383.692 166.016 384.412 166.496C385.132 166.976 385.978 167.216 386.95 167.216Z" fill="#6A52FF"/>
<path d="M397.133 167.216C398.129 167.216 398.993 166.982 399.725 166.514C400.457 166.046 400.973 165.476 401.273 164.804L399.869 164.084C399.593 164.552 399.233 164.936 398.789 165.236C398.345 165.536 397.799 165.686 397.151 165.686C396.611 165.686 396.107 165.566 395.639 165.326C395.183 165.074 394.805 164.72 394.505 164.264C394.217 163.808 394.061 163.268 394.037 162.644H401.453C401.513 162.32 401.543 162.02 401.543 161.744C401.543 160.94 401.363 160.184 401.003 159.476C400.643 158.768 400.121 158.192 399.437 157.748C398.765 157.304 397.949 157.082 396.989 157.082C396.089 157.082 395.285 157.298 394.577 157.73C393.869 158.162 393.305 158.762 392.885 159.53C392.477 160.286 392.273 161.15 392.273 162.122C392.273 163.094 392.483 163.964 392.903 164.732C393.323 165.5 393.899 166.106 394.631 166.55C395.363 166.994 396.197 167.216 397.133 167.216ZM396.989 158.576C397.481 158.576 397.931 158.69 398.339 158.918C398.747 159.134 399.077 159.44 399.329 159.836C399.581 160.232 399.713 160.688 399.725 161.204H394.073C394.193 160.388 394.529 159.746 395.081 159.278C395.633 158.81 396.269 158.576 396.989 158.576Z" fill="#6A52FF"/>
<path d="M403.726 167H405.4V161.222C405.4 160.442 405.61 159.842 406.03 159.422C406.45 158.99 407.002 158.774 407.686 158.774H408.532V157.19H407.938C407.338 157.19 406.822 157.298 406.39 157.514C405.958 157.718 405.616 158.03 405.364 158.45V157.298H403.726V167Z" fill="#6A52FF"/>
<rect x="0.5" y="0.5" width="207" height="207" rx="15.5" fill="url(#paint0_radial)" stroke="#6A52FF"/>
<mask id="path-8-outside-2" maskUnits="userSpaceOnUse" x="28.7059" y="152.374" width="152" height="20" fill="black">
<rect fill="white" x="28.7059" y="152.374" width="152" height="20"/>
<path d="M29.7059 167H38.4359V165.38H31.4699V161.078H38.0759V159.458H31.4699V155.21H38.4359V153.59H29.7059V167Z"/>
<path d="M39.3259 167H41.3779L43.7359 163.526L46.0939 167H48.1099L44.7439 162.14L48.1279 157.298H46.0939L43.7359 160.754L41.3599 157.298H39.3439L42.7279 162.14L39.3259 167Z"/>
<path d="M49.6173 170.6H51.2913V165.65C51.6633 166.154 52.1373 166.544 52.7133 166.82C53.3013 167.084 53.9433 167.216 54.6393 167.216C55.5633 167.216 56.3853 166.994 57.1053 166.55C57.8373 166.106 58.4133 165.506 58.8333 164.75C59.2533 163.982 59.4633 163.118 59.4633 162.158C59.4633 161.186 59.2533 160.322 58.8333 159.566C58.4133 158.798 57.8433 158.192 57.1233 157.748C56.4033 157.304 55.5813 157.082 54.6573 157.082C53.9253 157.082 53.2653 157.226 52.6773 157.514C52.1013 157.79 51.6273 158.174 51.2553 158.666V157.298H49.6173V170.6ZM54.5133 165.596C53.9133 165.596 53.3673 165.446 52.8753 165.146C52.3833 164.846 51.9933 164.438 51.7053 163.922C51.4293 163.394 51.2913 162.806 51.2913 162.158C51.2913 161.498 51.4293 160.91 51.7053 160.394C51.9933 159.878 52.3833 159.47 52.8753 159.17C53.3673 158.858 53.9133 158.702 54.5133 158.702C55.1253 158.702 55.6653 158.852 56.1333 159.152C56.6133 159.452 56.9913 159.866 57.2673 160.394C57.5433 160.91 57.6813 161.498 57.6813 162.158C57.6813 162.806 57.5433 163.394 57.2673 163.922C56.9913 164.438 56.6133 164.846 56.1333 165.146C55.6653 165.446 55.1253 165.596 54.5133 165.596Z"/>
<path d="M66.1223 167.216C67.1183 167.216 67.9823 166.982 68.7143 166.514C69.4463 166.046 69.9623 165.476 70.2623 164.804L68.8583 164.084C68.5823 164.552 68.2223 164.936 67.7783 165.236C67.3343 165.536 66.7883 165.686 66.1403 165.686C65.6003 165.686 65.0963 165.566 64.6283 165.326C64.1723 165.074 63.7943 164.72 63.4943 164.264C63.2063 163.808 63.0503 163.268 63.0263 162.644H70.4423C70.5023 162.32 70.5323 162.02 70.5323 161.744C70.5323 160.94 70.3523 160.184 69.9923 159.476C69.6323 158.768 69.1103 158.192 68.4263 157.748C67.7543 157.304 66.9383 157.082 65.9783 157.082C65.0783 157.082 64.2743 157.298 63.5663 157.73C62.8583 158.162 62.2943 158.762 61.8743 159.53C61.4663 160.286 61.2623 161.15 61.2623 162.122C61.2623 163.094 61.4723 163.964 61.8923 164.732C62.3123 165.5 62.8883 166.106 63.6203 166.55C64.3523 166.994 65.1863 167.216 66.1223 167.216ZM65.9783 158.576C66.4703 158.576 66.9203 158.69 67.3283 158.918C67.7363 159.134 68.0663 159.44 68.3183 159.836C68.5703 160.232 68.7023 160.688 68.7143 161.204H63.0623C63.1823 160.388 63.5183 159.746 64.0703 159.278C64.6223 158.81 65.2583 158.576 65.9783 158.576Z"/>
<path d="M72.7149 167H74.3889V161.222C74.3889 160.442 74.5989 159.842 75.0189 159.422C75.4389 158.99 75.9909 158.774 76.6749 158.774H77.5209V157.19H76.9269C76.3269 157.19 75.8109 157.298 75.3789 157.514C74.9469 157.718 74.6049 158.03 74.3529 158.45V157.298H72.7149V167Z"/>
<path d="M79.0079 155.75H80.6819V153.59H79.0079V155.75ZM79.0079 167H80.6819V157.298H79.0079V167Z"/>
<path d="M87.7434 167.216C88.7394 167.216 89.6034 166.982 90.3354 166.514C91.0674 166.046 91.5834 165.476 91.8834 164.804L90.4794 164.084C90.2034 164.552 89.8434 164.936 89.3994 165.236C88.9554 165.536 88.4094 165.686 87.7614 165.686C87.2214 165.686 86.7174 165.566 86.2494 165.326C85.7934 165.074 85.4154 164.72 85.1154 164.264C84.8274 163.808 84.6714 163.268 84.6474 162.644H92.0634C92.1234 162.32 92.1534 162.02 92.1534 161.744C92.1534 160.94 91.9734 160.184 91.6134 159.476C91.2534 158.768 90.7314 158.192 90.0474 157.748C89.3754 157.304 88.5594 157.082 87.5994 157.082C86.6994 157.082 85.8954 157.298 85.1874 157.73C84.4794 158.162 83.9154 158.762 83.4954 159.53C83.0874 160.286 82.8834 161.15 82.8834 162.122C82.8834 163.094 83.0934 163.964 83.5134 164.732C83.9334 165.5 84.5094 166.106 85.2414 166.55C85.9734 166.994 86.8074 167.216 87.7434 167.216ZM87.5994 158.576C88.0914 158.576 88.5414 158.69 88.9494 158.918C89.3574 159.134 89.6874 159.44 89.9394 159.836C90.1914 160.232 90.3234 160.688 90.3354 161.204H84.6834C84.8034 160.388 85.1394 159.746 85.6914 159.278C86.2434 158.81 86.8794 158.576 87.5994 158.576Z"/>
<path d="M94.336 167H96.01V161.258C96.01 160.466 96.232 159.842 96.676 159.386C97.12 158.93 97.684 158.702 98.368 158.702C99.052 158.702 99.61 158.93 100.042 159.386C100.474 159.83 100.69 160.454 100.69 161.258V167H102.382V160.718C102.382 160.022 102.22 159.404 101.896 158.864C101.584 158.312 101.152 157.88 100.6 157.568C100.06 157.244 99.442 157.082 98.746 157.082C98.146 157.082 97.606 157.208 97.126 157.46C96.646 157.7 96.262 158.042 95.974 158.486V157.298H94.336V167Z"/>
<path d="M109.277 167.216C109.913 167.216 110.507 167.102 111.059 166.874C111.623 166.646 112.109 166.334 112.517 165.938C112.925 165.542 113.231 165.098 113.435 164.606L111.941 163.85C111.713 164.378 111.365 164.804 110.897 165.128C110.441 165.44 109.901 165.596 109.277 165.596C108.689 165.596 108.155 165.446 107.675 165.146C107.207 164.846 106.835 164.438 106.559 163.922C106.283 163.394 106.145 162.806 106.145 162.158C106.145 161.486 106.283 160.892 106.559 160.376C106.835 159.86 107.207 159.452 107.675 159.152C108.155 158.852 108.689 158.702 109.277 158.702C109.889 158.702 110.429 158.864 110.897 159.188C111.365 159.5 111.713 159.908 111.941 160.412L113.435 159.692C113.231 159.188 112.919 158.738 112.499 158.342C112.091 157.946 111.611 157.64 111.059 157.424C110.507 157.196 109.913 157.082 109.277 157.082C108.329 157.082 107.483 157.304 106.739 157.748C106.007 158.18 105.431 158.78 105.011 159.548C104.591 160.304 104.381 161.168 104.381 162.14C104.381 163.1 104.591 163.964 105.011 164.732C105.431 165.5 106.007 166.106 106.739 166.55C107.483 166.994 108.329 167.216 109.277 167.216Z"/>
<path d="M120.087 167.216C121.083 167.216 121.947 166.982 122.679 166.514C123.411 166.046 123.927 165.476 124.227 164.804L122.823 164.084C122.547 164.552 122.187 164.936 121.743 165.236C121.299 165.536 120.753 165.686 120.105 165.686C119.565 165.686 119.061 165.566 118.593 165.326C118.137 165.074 117.759 164.72 117.459 164.264C117.171 163.808 117.015 163.268 116.991 162.644H124.407C124.467 162.32 124.497 162.02 124.497 161.744C124.497 160.94 124.317 160.184 123.957 159.476C123.597 158.768 123.075 158.192 122.391 157.748C121.719 157.304 120.903 157.082 119.943 157.082C119.043 157.082 118.239 157.298 117.531 157.73C116.823 158.162 116.259 158.762 115.839 159.53C115.431 160.286 115.227 161.15 115.227 162.122C115.227 163.094 115.437 163.964 115.857 164.732C116.277 165.5 116.853 166.106 117.585 166.55C118.317 166.994 119.151 167.216 120.087 167.216ZM119.943 158.576C120.435 158.576 120.885 158.69 121.293 158.918C121.701 159.134 122.031 159.44 122.283 159.836C122.535 160.232 122.667 160.688 122.679 161.204H117.027C117.147 160.388 117.483 159.746 118.035 159.278C118.587 158.81 119.223 158.576 119.943 158.576Z"/>
<path d="M131.09 167.216C131.81 167.216 132.464 167.078 133.052 166.802C133.652 166.514 134.132 166.106 134.492 165.578V167H136.13V153.374H134.438V158.594C134.066 158.114 133.592 157.742 133.016 157.478C132.44 157.214 131.798 157.082 131.09 157.082C130.178 157.082 129.356 157.304 128.624 157.748C127.904 158.192 127.334 158.798 126.914 159.566C126.494 160.322 126.284 161.186 126.284 162.158C126.284 163.118 126.494 163.982 126.914 164.75C127.334 165.506 127.904 166.106 128.624 166.55C129.356 166.994 130.178 167.216 131.09 167.216ZM131.234 165.596C130.622 165.596 130.076 165.446 129.596 165.146C129.116 164.846 128.738 164.438 128.462 163.922C128.186 163.394 128.048 162.806 128.048 162.158C128.048 161.498 128.186 160.91 128.462 160.394C128.738 159.866 129.116 159.452 129.596 159.152C130.088 158.852 130.634 158.702 131.234 158.702C131.846 158.702 132.392 158.858 132.872 159.17C133.352 159.47 133.73 159.878 134.006 160.394C134.294 160.91 134.438 161.498 134.438 162.158C134.438 162.806 134.294 163.394 134.006 163.922C133.73 164.438 133.352 164.846 132.872 165.146C132.392 165.446 131.846 165.596 131.234 165.596Z"/>
<path d="M146.89 167.216C147.874 167.216 148.732 167.012 149.464 166.604C150.208 166.196 150.79 165.638 151.21 164.93C151.63 164.21 151.84 163.394 151.84 162.482V153.59H150.058V162.446C150.058 163.058 149.92 163.604 149.644 164.084C149.38 164.552 149.008 164.918 148.528 165.182C148.06 165.446 147.514 165.578 146.89 165.578C146.266 165.578 145.714 165.446 145.234 165.182C144.766 164.918 144.394 164.552 144.118 164.084C143.854 163.604 143.722 163.058 143.722 162.446V153.59H141.94V162.482C141.94 163.394 142.15 164.21 142.57 164.93C142.99 165.638 143.572 166.196 144.316 166.604C145.06 167.012 145.918 167.216 146.89 167.216Z"/>
<path d="M158.015 167.216C158.711 167.216 159.323 167.096 159.851 166.856C160.379 166.616 160.793 166.286 161.093 165.866C161.393 165.434 161.543 164.942 161.543 164.39C161.543 163.718 161.321 163.142 160.877 162.662C160.433 162.182 159.821 161.828 159.041 161.6L157.457 161.132C157.265 161.072 157.067 161 156.863 160.916C156.659 160.82 156.485 160.688 156.341 160.52C156.197 160.34 156.125 160.112 156.125 159.836C156.125 159.452 156.269 159.14 156.557 158.9C156.857 158.66 157.247 158.54 157.727 158.54C158.255 158.54 158.735 158.69 159.167 158.99C159.611 159.278 159.941 159.674 160.157 160.178L161.525 159.548C161.237 158.768 160.751 158.162 160.067 157.73C159.395 157.298 158.633 157.082 157.781 157.082C157.145 157.082 156.569 157.202 156.053 157.442C155.549 157.682 155.147 158.018 154.847 158.45C154.559 158.87 154.415 159.368 154.415 159.944C154.415 160.568 154.613 161.12 155.009 161.6C155.417 162.068 156.059 162.422 156.935 162.662L158.393 163.076C158.597 163.124 158.807 163.202 159.023 163.31C159.251 163.406 159.443 163.544 159.599 163.724C159.767 163.892 159.851 164.12 159.851 164.408C159.851 164.816 159.677 165.146 159.329 165.398C158.981 165.65 158.543 165.776 158.015 165.776C157.427 165.776 156.893 165.614 156.413 165.29C155.933 164.954 155.555 164.492 155.279 163.904L153.947 164.552C154.247 165.368 154.757 166.016 155.477 166.496C156.197 166.976 157.043 167.216 158.015 167.216Z"/>
<path d="M168.198 167.216C169.194 167.216 170.058 166.982 170.79 166.514C171.522 166.046 172.038 165.476 172.338 164.804L170.934 164.084C170.658 164.552 170.298 164.936 169.854 165.236C169.41 165.536 168.864 165.686 168.216 165.686C167.676 165.686 167.172 165.566 166.704 165.326C166.248 165.074 165.87 164.72 165.57 164.264C165.282 163.808 165.126 163.268 165.102 162.644H172.518C172.578 162.32 172.608 162.02 172.608 161.744C172.608 160.94 172.428 160.184 172.068 159.476C171.708 158.768 171.186 158.192 170.502 157.748C169.83 157.304 169.014 157.082 168.054 157.082C167.154 157.082 166.35 157.298 165.642 157.73C164.934 158.162 164.37 158.762 163.95 159.53C163.542 160.286 163.338 161.15 163.338 162.122C163.338 163.094 163.548 163.964 163.968 164.732C164.388 165.5 164.964 166.106 165.696 166.55C166.428 166.994 167.262 167.216 168.198 167.216ZM168.054 158.576C168.546 158.576 168.996 158.69 169.404 158.918C169.812 159.134 170.142 159.44 170.394 159.836C170.646 160.232 170.778 160.688 170.79 161.204H165.138C165.258 160.388 165.594 159.746 166.146 159.278C166.698 158.81 167.334 158.576 168.054 158.576Z"/>
<path d="M174.791 167H176.465V161.222C176.465 160.442 176.675 159.842 177.095 159.422C177.515 158.99 178.067 158.774 178.751 158.774H179.597V157.19H179.003C178.403 157.19 177.887 157.298 177.455 157.514C177.023 157.718 176.681 158.03 176.429 158.45V157.298H174.791V167Z"/>
</mask>
<path d="M29.7059 167H38.4359V165.38H31.4699V161.078H38.0759V159.458H31.4699V155.21H38.4359V153.59H29.7059V167Z" fill="white"/>
<path d="M39.3259 167H41.3779L43.7359 163.526L46.0939 167H48.1099L44.7439 162.14L48.1279 157.298H46.0939L43.7359 160.754L41.3599 157.298H39.3439L42.7279 162.14L39.3259 167Z" fill="white"/>
<path d="M49.6173 170.6H51.2913V165.65C51.6633 166.154 52.1373 166.544 52.7133 166.82C53.3013 167.084 53.9433 167.216 54.6393 167.216C55.5633 167.216 56.3853 166.994 57.1053 166.55C57.8373 166.106 58.4133 165.506 58.8333 164.75C59.2533 163.982 59.4633 163.118 59.4633 162.158C59.4633 161.186 59.2533 160.322 58.8333 159.566C58.4133 158.798 57.8433 158.192 57.1233 157.748C56.4033 157.304 55.5813 157.082 54.6573 157.082C53.9253 157.082 53.2653 157.226 52.6773 157.514C52.1013 157.79 51.6273 158.174 51.2553 158.666V157.298H49.6173V170.6ZM54.5133 165.596C53.9133 165.596 53.3673 165.446 52.8753 165.146C52.3833 164.846 51.9933 164.438 51.7053 163.922C51.4293 163.394 51.2913 162.806 51.2913 162.158C51.2913 161.498 51.4293 160.91 51.7053 160.394C51.9933 159.878 52.3833 159.47 52.8753 159.17C53.3673 158.858 53.9133 158.702 54.5133 158.702C55.1253 158.702 55.6653 158.852 56.1333 159.152C56.6133 159.452 56.9913 159.866 57.2673 160.394C57.5433 160.91 57.6813 161.498 57.6813 162.158C57.6813 162.806 57.5433 163.394 57.2673 163.922C56.9913 164.438 56.6133 164.846 56.1333 165.146C55.6653 165.446 55.1253 165.596 54.5133 165.596Z" fill="white"/>
<path d="M66.1223 167.216C67.1183 167.216 67.9823 166.982 68.7143 166.514C69.4463 166.046 69.9623 165.476 70.2623 164.804L68.8583 164.084C68.5823 164.552 68.2223 164.936 67.7783 165.236C67.3343 165.536 66.7883 165.686 66.1403 165.686C65.6003 165.686 65.0963 165.566 64.6283 165.326C64.1723 165.074 63.7943 164.72 63.4943 164.264C63.2063 163.808 63.0503 163.268 63.0263 162.644H70.4423C70.5023 162.32 70.5323 162.02 70.5323 161.744C70.5323 160.94 70.3523 160.184 69.9923 159.476C69.6323 158.768 69.1103 158.192 68.4263 157.748C67.7543 157.304 66.9383 157.082 65.9783 157.082C65.0783 157.082 64.2743 157.298 63.5663 157.73C62.8583 158.162 62.2943 158.762 61.8743 159.53C61.4663 160.286 61.2623 161.15 61.2623 162.122C61.2623 163.094 61.4723 163.964 61.8923 164.732C62.3123 165.5 62.8883 166.106 63.6203 166.55C64.3523 166.994 65.1863 167.216 66.1223 167.216ZM65.9783 158.576C66.4703 158.576 66.9203 158.69 67.3283 158.918C67.7363 159.134 68.0663 159.44 68.3183 159.836C68.5703 160.232 68.7023 160.688 68.7143 161.204H63.0623C63.1823 160.388 63.5183 159.746 64.0703 159.278C64.6223 158.81 65.2583 158.576 65.9783 158.576Z" fill="white"/>
<path d="M72.7149 167H74.3889V161.222C74.3889 160.442 74.5989 159.842 75.0189 159.422C75.4389 158.99 75.9909 158.774 76.6749 158.774H77.5209V157.19H76.9269C76.3269 157.19 75.8109 157.298 75.3789 157.514C74.9469 157.718 74.6049 158.03 74.3529 158.45V157.298H72.7149V167Z" fill="white"/>
<path d="M79.0079 155.75H80.6819V153.59H79.0079V155.75ZM79.0079 167H80.6819V157.298H79.0079V167Z" fill="white"/>
<path d="M87.7434 167.216C88.7394 167.216 89.6034 166.982 90.3354 166.514C91.0674 166.046 91.5834 165.476 91.8834 164.804L90.4794 164.084C90.2034 164.552 89.8434 164.936 89.3994 165.236C88.9554 165.536 88.4094 165.686 87.7614 165.686C87.2214 165.686 86.7174 165.566 86.2494 165.326C85.7934 165.074 85.4154 164.72 85.1154 164.264C84.8274 163.808 84.6714 163.268 84.6474 162.644H92.0634C92.1234 162.32 92.1534 162.02 92.1534 161.744C92.1534 160.94 91.9734 160.184 91.6134 159.476C91.2534 158.768 90.7314 158.192 90.0474 157.748C89.3754 157.304 88.5594 157.082 87.5994 157.082C86.6994 157.082 85.8954 157.298 85.1874 157.73C84.4794 158.162 83.9154 158.762 83.4954 159.53C83.0874 160.286 82.8834 161.15 82.8834 162.122C82.8834 163.094 83.0934 163.964 83.5134 164.732C83.9334 165.5 84.5094 166.106 85.2414 166.55C85.9734 166.994 86.8074 167.216 87.7434 167.216ZM87.5994 158.576C88.0914 158.576 88.5414 158.69 88.9494 158.918C89.3574 159.134 89.6874 159.44 89.9394 159.836C90.1914 160.232 90.3234 160.688 90.3354 161.204H84.6834C84.8034 160.388 85.1394 159.746 85.6914 159.278C86.2434 158.81 86.8794 158.576 87.5994 158.576Z" fill="white"/>
<path d="M94.336 167H96.01V161.258C96.01 160.466 96.232 159.842 96.676 159.386C97.12 158.93 97.684 158.702 98.368 158.702C99.052 158.702 99.61 158.93 100.042 159.386C100.474 159.83 100.69 160.454 100.69 161.258V167H102.382V160.718C102.382 160.022 102.22 159.404 101.896 158.864C101.584 158.312 101.152 157.88 100.6 157.568C100.06 157.244 99.442 157.082 98.746 157.082C98.146 157.082 97.606 157.208 97.126 157.46C96.646 157.7 96.262 158.042 95.974 158.486V157.298H94.336V167Z" fill="white"/>
<path d="M109.277 167.216C109.913 167.216 110.507 167.102 111.059 166.874C111.623 166.646 112.109 166.334 112.517 165.938C112.925 165.542 113.231 165.098 113.435 164.606L111.941 163.85C111.713 164.378 111.365 164.804 110.897 165.128C110.441 165.44 109.901 165.596 109.277 165.596C108.689 165.596 108.155 165.446 107.675 165.146C107.207 164.846 106.835 164.438 106.559 163.922C106.283 163.394 106.145 162.806 106.145 162.158C106.145 161.486 106.283 160.892 106.559 160.376C106.835 159.86 107.207 159.452 107.675 159.152C108.155 158.852 108.689 158.702 109.277 158.702C109.889 158.702 110.429 158.864 110.897 159.188C111.365 159.5 111.713 159.908 111.941 160.412L113.435 159.692C113.231 159.188 112.919 158.738 112.499 158.342C112.091 157.946 111.611 157.64 111.059 157.424C110.507 157.196 109.913 157.082 109.277 157.082C108.329 157.082 107.483 157.304 106.739 157.748C106.007 158.18 105.431 158.78 105.011 159.548C104.591 160.304 104.381 161.168 104.381 162.14C104.381 163.1 104.591 163.964 105.011 164.732C105.431 165.5 106.007 166.106 106.739 166.55C107.483 166.994 108.329 167.216 109.277 167.216Z" fill="white"/>
<path d="M120.087 167.216C121.083 167.216 121.947 166.982 122.679 166.514C123.411 166.046 123.927 165.476 124.227 164.804L122.823 164.084C122.547 164.552 122.187 164.936 121.743 165.236C121.299 165.536 120.753 165.686 120.105 165.686C119.565 165.686 119.061 165.566 118.593 165.326C118.137 165.074 117.759 164.72 117.459 164.264C117.171 163.808 117.015 163.268 116.991 162.644H124.407C124.467 162.32 124.497 162.02 124.497 161.744C124.497 160.94 124.317 160.184 123.957 159.476C123.597 158.768 123.075 158.192 122.391 157.748C121.719 157.304 120.903 157.082 119.943 157.082C119.043 157.082 118.239 157.298 117.531 157.73C116.823 158.162 116.259 158.762 115.839 159.53C115.431 160.286 115.227 161.15 115.227 162.122C115.227 163.094 115.437 163.964 115.857 164.732C116.277 165.5 116.853 166.106 117.585 166.55C118.317 166.994 119.151 167.216 120.087 167.216ZM119.943 158.576C120.435 158.576 120.885 158.69 121.293 158.918C121.701 159.134 122.031 159.44 122.283 159.836C122.535 160.232 122.667 160.688 122.679 161.204H117.027C117.147 160.388 117.483 159.746 118.035 159.278C118.587 158.81 119.223 158.576 119.943 158.576Z" fill="white"/>
<path d="M131.09 167.216C131.81 167.216 132.464 167.078 133.052 166.802C133.652 166.514 134.132 166.106 134.492 165.578V167H136.13V153.374H134.438V158.594C134.066 158.114 133.592 157.742 133.016 157.478C132.44 157.214 131.798 157.082 131.09 157.082C130.178 157.082 129.356 157.304 128.624 157.748C127.904 158.192 127.334 158.798 126.914 159.566C126.494 160.322 126.284 161.186 126.284 162.158C126.284 163.118 126.494 163.982 126.914 164.75C127.334 165.506 127.904 166.106 128.624 166.55C129.356 166.994 130.178 167.216 131.09 167.216ZM131.234 165.596C130.622 165.596 130.076 165.446 129.596 165.146C129.116 164.846 128.738 164.438 128.462 163.922C128.186 163.394 128.048 162.806 128.048 162.158C128.048 161.498 128.186 160.91 128.462 160.394C128.738 159.866 129.116 159.452 129.596 159.152C130.088 158.852 130.634 158.702 131.234 158.702C131.846 158.702 132.392 158.858 132.872 159.17C133.352 159.47 133.73 159.878 134.006 160.394C134.294 160.91 134.438 161.498 134.438 162.158C134.438 162.806 134.294 163.394 134.006 163.922C133.73 164.438 133.352 164.846 132.872 165.146C132.392 165.446 131.846 165.596 131.234 165.596Z" fill="white"/>
<path d="M146.89 167.216C147.874 167.216 148.732 167.012 149.464 166.604C150.208 166.196 150.79 165.638 151.21 164.93C151.63 164.21 151.84 163.394 151.84 162.482V153.59H150.058V162.446C150.058 163.058 149.92 163.604 149.644 164.084C149.38 164.552 149.008 164.918 148.528 165.182C148.06 165.446 147.514 165.578 146.89 165.578C146.266 165.578 145.714 165.446 145.234 165.182C144.766 164.918 144.394 164.552 144.118 164.084C143.854 163.604 143.722 163.058 143.722 162.446V153.59H141.94V162.482C141.94 163.394 142.15 164.21 142.57 164.93C142.99 165.638 143.572 166.196 144.316 166.604C145.06 167.012 145.918 167.216 146.89 167.216Z" fill="white"/>
<path d="M158.015 167.216C158.711 167.216 159.323 167.096 159.851 166.856C160.379 166.616 160.793 166.286 161.093 165.866C161.393 165.434 161.543 164.942 161.543 164.39C161.543 163.718 161.321 163.142 160.877 162.662C160.433 162.182 159.821 161.828 159.041 161.6L157.457 161.132C157.265 161.072 157.067 161 156.863 160.916C156.659 160.82 156.485 160.688 156.341 160.52C156.197 160.34 156.125 160.112 156.125 159.836C156.125 159.452 156.269 159.14 156.557 158.9C156.857 158.66 157.247 158.54 157.727 158.54C158.255 158.54 158.735 158.69 159.167 158.99C159.611 159.278 159.941 159.674 160.157 160.178L161.525 159.548C161.237 158.768 160.751 158.162 160.067 157.73C159.395 157.298 158.633 157.082 157.781 157.082C157.145 157.082 156.569 157.202 156.053 157.442C155.549 157.682 155.147 158.018 154.847 158.45C154.559 158.87 154.415 159.368 154.415 159.944C154.415 160.568 154.613 161.12 155.009 161.6C155.417 162.068 156.059 162.422 156.935 162.662L158.393 163.076C158.597 163.124 158.807 163.202 159.023 163.31C159.251 163.406 159.443 163.544 159.599 163.724C159.767 163.892 159.851 164.12 159.851 164.408C159.851 164.816 159.677 165.146 159.329 165.398C158.981 165.65 158.543 165.776 158.015 165.776C157.427 165.776 156.893 165.614 156.413 165.29C155.933 164.954 155.555 164.492 155.279 163.904L153.947 164.552C154.247 165.368 154.757 166.016 155.477 166.496C156.197 166.976 157.043 167.216 158.015 167.216Z" fill="white"/>
<path d="M168.198 167.216C169.194 167.216 170.058 166.982 170.79 166.514C171.522 166.046 172.038 165.476 172.338 164.804L170.934 164.084C170.658 164.552 170.298 164.936 169.854 165.236C169.41 165.536 168.864 165.686 168.216 165.686C167.676 165.686 167.172 165.566 166.704 165.326C166.248 165.074 165.87 164.72 165.57 164.264C165.282 163.808 165.126 163.268 165.102 162.644H172.518C172.578 162.32 172.608 162.02 172.608 161.744C172.608 160.94 172.428 160.184 172.068 159.476C171.708 158.768 171.186 158.192 170.502 157.748C169.83 157.304 169.014 157.082 168.054 157.082C167.154 157.082 166.35 157.298 165.642 157.73C164.934 158.162 164.37 158.762 163.95 159.53C163.542 160.286 163.338 161.15 163.338 162.122C163.338 163.094 163.548 163.964 163.968 164.732C164.388 165.5 164.964 166.106 165.696 166.55C166.428 166.994 167.262 167.216 168.198 167.216ZM168.054 158.576C168.546 158.576 168.996 158.69 169.404 158.918C169.812 159.134 170.142 159.44 170.394 159.836C170.646 160.232 170.778 160.688 170.79 161.204H165.138C165.258 160.388 165.594 159.746 166.146 159.278C166.698 158.81 167.334 158.576 168.054 158.576Z" fill="white"/>
<path d="M174.791 167H176.465V161.222C176.465 160.442 176.675 159.842 177.095 159.422C177.515 158.99 178.067 158.774 178.751 158.774H179.597V157.19H179.003C178.403 157.19 177.887 157.298 177.455 157.514C177.023 157.718 176.681 158.03 176.429 158.45V157.298H174.791V167Z" fill="white"/>
<path d="M29.7059 167H38.4359V165.38H31.4699V161.078H38.0759V159.458H31.4699V155.21H38.4359V153.59H29.7059V167Z" stroke="#6A52FF" stroke-width="2" mask="url(#path-8-outside-2)"/>
<path d="M39.3259 167H41.3779L43.7359 163.526L46.0939 167H48.1099L44.7439 162.14L48.1279 157.298H46.0939L43.7359 160.754L41.3599 157.298H39.3439L42.7279 162.14L39.3259 167Z" stroke="#6A52FF" stroke-width="2" mask="url(#path-8-outside-2)"/>
<path d="M49.6173 170.6H51.2913V165.65C51.6633 166.154 52.1373 166.544 52.7133 166.82C53.3013 167.084 53.9433 167.216 54.6393 167.216C55.5633 167.216 56.3853 166.994 57.1053 166.55C57.8373 166.106 58.4133 165.506 58.8333 164.75C59.2533 163.982 59.4633 163.118 59.4633 162.158C59.4633 161.186 59.2533 160.322 58.8333 159.566C58.4133 158.798 57.8433 158.192 57.1233 157.748C56.4033 157.304 55.5813 157.082 54.6573 157.082C53.9253 157.082 53.2653 157.226 52.6773 157.514C52.1013 157.79 51.6273 158.174 51.2553 158.666V157.298H49.6173V170.6ZM54.5133 165.596C53.9133 165.596 53.3673 165.446 52.8753 165.146C52.3833 164.846 51.9933 164.438 51.7053 163.922C51.4293 163.394 51.2913 162.806 51.2913 162.158C51.2913 161.498 51.4293 160.91 51.7053 160.394C51.9933 159.878 52.3833 159.47 52.8753 159.17C53.3673 158.858 53.9133 158.702 54.5133 158.702C55.1253 158.702 55.6653 158.852 56.1333 159.152C56.6133 159.452 56.9913 159.866 57.2673 160.394C57.5433 160.91 57.6813 161.498 57.6813 162.158C57.6813 162.806 57.5433 163.394 57.2673 163.922C56.9913 164.438 56.6133 164.846 56.1333 165.146C55.6653 165.446 55.1253 165.596 54.5133 165.596Z" stroke="#6A52FF" stroke-width="2" mask="url(#path-8-outside-2)"/>
<path d="M66.1223 167.216C67.1183 167.216 67.9823 166.982 68.7143 166.514C69.4463 166.046 69.9623 165.476 70.2623 164.804L68.8583 164.084C68.5823 164.552 68.2223 164.936 67.7783 165.236C67.3343 165.536 66.7883 165.686 66.1403 165.686C65.6003 165.686 65.0963 165.566 64.6283 165.326C64.1723 165.074 63.7943 164.72 63.4943 164.264C63.2063 163.808 63.0503 163.268 63.0263 162.644H70.4423C70.5023 162.32 70.5323 162.02 70.5323 161.744C70.5323 160.94 70.3523 160.184 69.9923 159.476C69.6323 158.768 69.1103 158.192 68.4263 157.748C67.7543 157.304 66.9383 157.082 65.9783 157.082C65.0783 157.082 64.2743 157.298 63.5663 157.73C62.8583 158.162 62.2943 158.762 61.8743 159.53C61.4663 160.286 61.2623 161.15 61.2623 162.122C61.2623 163.094 61.4723 163.964 61.8923 164.732C62.3123 165.5 62.8883 166.106 63.6203 166.55C64.3523 166.994 65.1863 167.216 66.1223 167.216ZM65.9783 158.576C66.4703 158.576 66.9203 158.69 67.3283 158.918C67.7363 159.134 68.0663 159.44 68.3183 159.836C68.5703 160.232 68.7023 160.688 68.7143 161.204H63.0623C63.1823 160.388 63.5183 159.746 64.0703 159.278C64.6223 158.81 65.2583 158.576 65.9783 158.576Z" stroke="#6A52FF" stroke-width="2" mask="url(#path-8-outside-2)"/>
<path d="M72.7149 167H74.3889V161.222C74.3889 160.442 74.5989 159.842 75.0189 159.422C75.4389 158.99 75.9909 158.774 76.6749 158.774H77.5209V157.19H76.9269C76.3269 157.19 75.8109 157.298 75.3789 157.514C74.9469 157.718 74.6049 158.03 74.3529 158.45V157.298H72.7149V167Z" stroke="#6A52FF" stroke-width="2" mask="url(#path-8-outside-2)"/>
<path d="M79.0079 155.75H80.6819V153.59H79.0079V155.75ZM79.0079 167H80.6819V157.298H79.0079V167Z" stroke="#6A52FF" stroke-width="2" mask="url(#path-8-outside-2)"/>
<path d="M87.7434 167.216C88.7394 167.216 89.6034 166.982 90.3354 166.514C91.0674 166.046 91.5834 165.476 91.8834 164.804L90.4794 164.084C90.2034 164.552 89.8434 164.936 89.3994 165.236C88.9554 165.536 88.4094 165.686 87.7614 165.686C87.2214 165.686 86.7174 165.566 86.2494 165.326C85.7934 165.074 85.4154 164.72 85.1154 164.264C84.8274 163.808 84.6714 163.268 84.6474 162.644H92.0634C92.1234 162.32 92.1534 162.02 92.1534 161.744C92.1534 160.94 91.9734 160.184 91.6134 159.476C91.2534 158.768 90.7314 158.192 90.0474 157.748C89.3754 157.304 88.5594 157.082 87.5994 157.082C86.6994 157.082 85.8954 157.298 85.1874 157.73C84.4794 158.162 83.9154 158.762 83.4954 159.53C83.0874 160.286 82.8834 161.15 82.8834 162.122C82.8834 163.094 83.0934 163.964 83.5134 164.732C83.9334 165.5 84.5094 166.106 85.2414 166.55C85.9734 166.994 86.8074 167.216 87.7434 167.216ZM87.5994 158.576C88.0914 158.576 88.5414 158.69 88.9494 158.918C89.3574 159.134 89.6874 159.44 89.9394 159.836C90.1914 160.232 90.3234 160.688 90.3354 161.204H84.6834C84.8034 160.388 85.1394 159.746 85.6914 159.278C86.2434 158.81 86.8794 158.576 87.5994 158.576Z" stroke="#6A52FF" stroke-width="2" mask="url(#path-8-outside-2)"/>
<path d="M94.336 167H96.01V161.258C96.01 160.466 96.232 159.842 96.676 159.386C97.12 158.93 97.684 158.702 98.368 158.702C99.052 158.702 99.61 158.93 100.042 159.386C100.474 159.83 100.69 160.454 100.69 161.258V167H102.382V160.718C102.382 160.022 102.22 159.404 101.896 158.864C101.584 158.312 101.152 157.88 100.6 157.568C100.06 157.244 99.442 157.082 98.746 157.082C98.146 157.082 97.606 157.208 97.126 157.46C96.646 157.7 96.262 158.042 95.974 158.486V157.298H94.336V167Z" stroke="#6A52FF" stroke-width="2" mask="url(#path-8-outside-2)"/>
<path d="M109.277 167.216C109.913 167.216 110.507 167.102 111.059 166.874C111.623 166.646 112.109 166.334 112.517 165.938C112.925 165.542 113.231 165.098 113.435 164.606L111.941 163.85C111.713 164.378 111.365 164.804 110.897 165.128C110.441 165.44 109.901 165.596 109.277 165.596C108.689 165.596 108.155 165.446 107.675 165.146C107.207 164.846 106.835 164.438 106.559 163.922C106.283 163.394 106.145 162.806 106.145 162.158C106.145 161.486 106.283 160.892 106.559 160.376C106.835 159.86 107.207 159.452 107.675 159.152C108.155 158.852 108.689 158.702 109.277 158.702C109.889 158.702 110.429 158.864 110.897 159.188C111.365 159.5 111.713 159.908 111.941 160.412L113.435 159.692C113.231 159.188 112.919 158.738 112.499 158.342C112.091 157.946 111.611 157.64 111.059 157.424C110.507 157.196 109.913 157.082 109.277 157.082C108.329 157.082 107.483 157.304 106.739 157.748C106.007 158.18 105.431 158.78 105.011 159.548C104.591 160.304 104.381 161.168 104.381 162.14C104.381 163.1 104.591 163.964 105.011 164.732C105.431 165.5 106.007 166.106 106.739 166.55C107.483 166.994 108.329 167.216 109.277 167.216Z" stroke="#6A52FF" stroke-width="2" mask="url(#path-8-outside-2)"/>
<path d="M120.087 167.216C121.083 167.216 121.947 166.982 122.679 166.514C123.411 166.046 123.927 165.476 124.227 164.804L122.823 164.084C122.547 164.552 122.187 164.936 121.743 165.236C121.299 165.536 120.753 165.686 120.105 165.686C119.565 165.686 119.061 165.566 118.593 165.326C118.137 165.074 117.759 164.72 117.459 164.264C117.171 163.808 117.015 163.268 116.991 162.644H124.407C124.467 162.32 124.497 162.02 124.497 161.744C124.497 160.94 124.317 160.184 123.957 159.476C123.597 158.768 123.075 158.192 122.391 157.748C121.719 157.304 120.903 157.082 119.943 157.082C119.043 157.082 118.239 157.298 117.531 157.73C116.823 158.162 116.259 158.762 115.839 159.53C115.431 160.286 115.227 161.15 115.227 162.122C115.227 163.094 115.437 163.964 115.857 164.732C116.277 165.5 116.853 166.106 117.585 166.55C118.317 166.994 119.151 167.216 120.087 167.216ZM119.943 158.576C120.435 158.576 120.885 158.69 121.293 158.918C121.701 159.134 122.031 159.44 122.283 159.836C122.535 160.232 122.667 160.688 122.679 161.204H117.027C117.147 160.388 117.483 159.746 118.035 159.278C118.587 158.81 119.223 158.576 119.943 158.576Z" stroke="#6A52FF" stroke-width="2" mask="url(#path-8-outside-2)"/>
<path d="M131.09 167.216C131.81 167.216 132.464 167.078 133.052 166.802C133.652 166.514 134.132 166.106 134.492 165.578V167H136.13V153.374H134.438V158.594C134.066 158.114 133.592 157.742 133.016 157.478C132.44 157.214 131.798 157.082 131.09 157.082C130.178 157.082 129.356 157.304 128.624 157.748C127.904 158.192 127.334 158.798 126.914 159.566C126.494 160.322 126.284 161.186 126.284 162.158C126.284 163.118 126.494 163.982 126.914 164.75C127.334 165.506 127.904 166.106 128.624 166.55C129.356 166.994 130.178 167.216 131.09 167.216ZM131.234 165.596C130.622 165.596 130.076 165.446 129.596 165.146C129.116 164.846 128.738 164.438 128.462 163.922C128.186 163.394 128.048 162.806 128.048 162.158C128.048 161.498 128.186 160.91 128.462 160.394C128.738 159.866 129.116 159.452 129.596 159.152C130.088 158.852 130.634 158.702 131.234 158.702C131.846 158.702 132.392 158.858 132.872 159.17C133.352 159.47 133.73 159.878 134.006 160.394C134.294 160.91 134.438 161.498 134.438 162.158C134.438 162.806 134.294 163.394 134.006 163.922C133.73 164.438 133.352 164.846 132.872 165.146C132.392 165.446 131.846 165.596 131.234 165.596Z" stroke="#6A52FF" stroke-width="2" mask="url(#path-8-outside-2)"/>
<path d="M146.89 167.216C147.874 167.216 148.732 167.012 149.464 166.604C150.208 166.196 150.79 165.638 151.21 164.93C151.63 164.21 151.84 163.394 151.84 162.482V153.59H150.058V162.446C150.058 163.058 149.92 163.604 149.644 164.084C149.38 164.552 149.008 164.918 148.528 165.182C148.06 165.446 147.514 165.578 146.89 165.578C146.266 165.578 145.714 165.446 145.234 165.182C144.766 164.918 144.394 164.552 144.118 164.084C143.854 163.604 143.722 163.058 143.722 162.446V153.59H141.94V162.482C141.94 163.394 142.15 164.21 142.57 164.93C142.99 165.638 143.572 166.196 144.316 166.604C145.06 167.012 145.918 167.216 146.89 167.216Z" stroke="#6A52FF" stroke-width="2" mask="url(#path-8-outside-2)"/>
<path d="M158.015 167.216C158.711 167.216 159.323 167.096 159.851 166.856C160.379 166.616 160.793 166.286 161.093 165.866C161.393 165.434 161.543 164.942 161.543 164.39C161.543 163.718 161.321 163.142 160.877 162.662C160.433 162.182 159.821 161.828 159.041 161.6L157.457 161.132C157.265 161.072 157.067 161 156.863 160.916C156.659 160.82 156.485 160.688 156.341 160.52C156.197 160.34 156.125 160.112 156.125 159.836C156.125 159.452 156.269 159.14 156.557 158.9C156.857 158.66 157.247 158.54 157.727 158.54C158.255 158.54 158.735 158.69 159.167 158.99C159.611 159.278 159.941 159.674 160.157 160.178L161.525 159.548C161.237 158.768 160.751 158.162 160.067 157.73C159.395 157.298 158.633 157.082 157.781 157.082C157.145 157.082 156.569 157.202 156.053 157.442C155.549 157.682 155.147 158.018 154.847 158.45C154.559 158.87 154.415 159.368 154.415 159.944C154.415 160.568 154.613 161.12 155.009 161.6C155.417 162.068 156.059 162.422 156.935 162.662L158.393 163.076C158.597 163.124 158.807 163.202 159.023 163.31C159.251 163.406 159.443 163.544 159.599 163.724C159.767 163.892 159.851 164.12 159.851 164.408C159.851 164.816 159.677 165.146 159.329 165.398C158.981 165.65 158.543 165.776 158.015 165.776C157.427 165.776 156.893 165.614 156.413 165.29C155.933 164.954 155.555 164.492 155.279 163.904L153.947 164.552C154.247 165.368 154.757 166.016 155.477 166.496C156.197 166.976 157.043 167.216 158.015 167.216Z" stroke="#6A52FF" stroke-width="2" mask="url(#path-8-outside-2)"/>
<path d="M168.198 167.216C169.194 167.216 170.058 166.982 170.79 166.514C171.522 166.046 172.038 165.476 172.338 164.804L170.934 164.084C170.658 164.552 170.298 164.936 169.854 165.236C169.41 165.536 168.864 165.686 168.216 165.686C167.676 165.686 167.172 165.566 166.704 165.326C166.248 165.074 165.87 164.72 165.57 164.264C165.282 163.808 165.126 163.268 165.102 162.644H172.518C172.578 162.32 172.608 162.02 172.608 161.744C172.608 160.94 172.428 160.184 172.068 159.476C171.708 158.768 171.186 158.192 170.502 157.748C169.83 157.304 169.014 157.082 168.054 157.082C167.154 157.082 166.35 157.298 165.642 157.73C164.934 158.162 164.37 158.762 163.95 159.53C163.542 160.286 163.338 161.15 163.338 162.122C163.338 163.094 163.548 163.964 163.968 164.732C164.388 165.5 164.964 166.106 165.696 166.55C166.428 166.994 167.262 167.216 168.198 167.216ZM168.054 158.576C168.546 158.576 168.996 158.69 169.404 158.918C169.812 159.134 170.142 159.44 170.394 159.836C170.646 160.232 170.778 160.688 170.79 161.204H165.138C165.258 160.388 165.594 159.746 166.146 159.278C166.698 158.81 167.334 158.576 168.054 158.576Z" stroke="#6A52FF" stroke-width="2" mask="url(#path-8-outside-2)"/>
<path d="M174.791 167H176.465V161.222C176.465 160.442 176.675 159.842 177.095 159.422C177.515 158.99 178.067 158.774 178.751 158.774H179.597V157.19H179.003C178.403 157.19 177.887 157.298 177.455 157.514C177.023 157.718 176.681 158.03 176.429 158.45V157.298H174.791V167Z" stroke="#6A52FF" stroke-width="2" mask="url(#path-8-outside-2)"/>
<mask id="path-9-inside-3" fill="white">
<path fill-rule="evenodd" clip-rule="evenodd" d="M80.8043 93.3492C81.2061 92.9902 81.6995 92.7138 82.2716 92.5594L94.2131 89.3389L100.968 78.9837C102.395 76.7961 105.606 76.7978 107.032 78.9837L113.787 89.3389L125.729 92.5594C126.301 92.7137 126.794 92.9899 127.195 93.3484C127.2 93.2847 127.202 93.2204 127.202 93.1555V82.6713C127.202 75.5636 121.42 69.7809 114.312 69.7809H104H93.6875C86.5797 69.7809 80.7971 75.5636 80.7971 82.6713V93.1555C80.7971 93.2206 80.7995 93.2852 80.8043 93.3492Z"/>
</mask>
<path fill-rule="evenodd" clip-rule="evenodd" d="M80.8043 93.3492C81.2061 92.9902 81.6995 92.7138 82.2716 92.5594L94.2131 89.3389L100.968 78.9837C102.395 76.7961 105.606 76.7978 107.032 78.9837L113.787 89.3389L125.729 92.5594C126.301 92.7137 126.794 92.9899 127.195 93.3484C127.2 93.2847 127.202 93.2204 127.202 93.1555V82.6713C127.202 75.5636 121.42 69.7809 114.312 69.7809H104H93.6875C86.5797 69.7809 80.7971 75.5636 80.7971 82.6713V93.1555C80.7971 93.2206 80.7995 93.2852 80.8043 93.3492Z" fill="white"/>
<path d="M82.2716 92.5594L82.0112 91.5939L82.0111 91.5939L82.2716 92.5594ZM80.8043 93.3492L79.807 93.4232L79.9573 95.4465L81.4705 94.0949L80.8043 93.3492ZM94.2131 89.3389L94.4735 90.3044L94.8421 90.205L95.0506 89.8852L94.2131 89.3389ZM100.968 78.9837L101.806 79.5301L101.806 79.53L100.968 78.9837ZM107.032 78.9837L106.195 79.5301L106.195 79.5301L107.032 78.9837ZM113.787 89.3389L112.95 89.8852L113.158 90.205L113.527 90.3044L113.787 89.3389ZM125.729 92.5594L125.989 91.5939L125.989 91.5939L125.729 92.5594ZM127.195 93.3484L126.529 94.0944L128.043 95.4454L128.193 93.4222L127.195 93.3484ZM82.0111 91.5939C81.2862 91.7895 80.6544 92.1422 80.1381 92.6034L81.4705 94.0949C81.7578 93.8382 82.1128 93.638 82.5321 93.5248L82.0111 91.5939ZM93.9527 88.3734L82.0112 91.5939L82.532 93.5249L94.4735 90.3044L93.9527 88.3734ZM100.13 78.4374L93.3756 88.7925L95.0506 89.8852L101.806 79.5301L100.13 78.4374ZM107.87 78.4374C106.05 75.647 101.952 75.6445 100.13 78.4374L101.806 79.53C102.838 77.9477 105.163 77.9486 106.195 79.5301L107.87 78.4374ZM114.625 88.7925L107.87 78.4374L106.195 79.5301L112.95 89.8852L114.625 88.7925ZM125.989 91.5939L114.048 88.3734L113.527 90.3044L125.468 93.5249L125.989 91.5939ZM127.861 92.6024C127.345 92.1417 126.714 91.7894 125.989 91.5939L125.468 93.5249C125.887 93.638 126.242 93.838 126.529 94.0944L127.861 92.6024ZM128.193 93.4222C128.199 93.334 128.202 93.245 128.202 93.1555H126.202C126.202 93.1957 126.201 93.2354 126.198 93.2746L128.193 93.4222ZM128.202 93.1555V82.6713H126.202V93.1555H128.202ZM128.202 82.6713C128.202 75.0113 121.972 68.781 114.312 68.781V70.7809C120.868 70.7809 126.202 76.1158 126.202 82.6713H128.202ZM114.312 68.781H104V70.7809H114.312V68.781ZM104 68.781H93.6875V70.7809H104V68.781ZM93.6875 68.781C86.0275 68.781 79.7971 75.0113 79.7971 82.6713H81.7971C81.7971 76.1158 87.132 70.7809 93.6875 70.7809V68.781ZM79.7971 82.6713V93.1555H81.7971V82.6713H79.7971ZM79.7971 93.1555C79.7971 93.2454 79.8005 93.3347 79.807 93.4232L81.8015 93.2751C81.7986 93.2358 81.7971 93.1959 81.7971 93.1555H79.7971Z" fill="#6A52FF" mask="url(#path-9-inside-3)"/>
<path d="M115.032 55.6013C115.032 61.7223 110.052 66.7027 103.931 66.7027C97.8101 66.7027 92.8296 61.7221 92.8296 55.6013C92.8296 49.4806 97.8102 44.5 103.931 44.5C110.052 44.5 115.032 49.4804 115.032 55.6013Z" fill="white" stroke="#6A52FF" stroke-width="0.999984"/>
<g filter="url(#filter0_d)">
<path d="M82.483 100.99L77.2915 99.5889L74.3547 95.0845C73.3391 93.5266 71.0517 93.5254 70.0354 95.0845L67.0986 99.5889L61.9071 100.99C60.1115 101.475 59.4038 103.65 60.5723 105.098L63.9489 109.283L63.6772 114.653C63.583 116.511 65.433 117.855 67.1715 117.192L72.1952 115.274L77.2188 117.192C78.954 117.854 80.8076 116.515 80.7131 114.653L80.4414 109.283L83.818 105.098C84.9857 103.65 84.2796 101.475 82.483 100.99Z" fill="#FEC600"/>
<path d="M76.8727 99.862L76.9769 100.022L77.1612 100.072L82.3527 101.473C83.8006 101.863 84.3698 103.617 83.4288 104.784L80.0522 108.969L79.9324 109.117L79.942 109.308L80.2138 114.679L80.2138 114.679C80.2899 116.178 78.7962 117.259 77.397 116.725L72.3735 114.807L72.1952 114.739L72.0168 114.807L66.9933 116.725C65.5921 117.26 64.1007 116.176 64.1765 114.679L64.1765 114.679L64.4483 109.308L64.4579 109.117L64.3381 108.969L60.9615 104.784L60.9614 104.784C60.0199 103.617 60.5903 101.863 62.0373 101.473C62.0374 101.473 62.0374 101.473 62.0374 101.473L67.2289 100.072L67.4132 100.022L67.5175 99.862L70.4542 95.3576L70.4543 95.3575C71.2732 94.1013 73.1174 94.1021 73.9359 95.3575L73.9359 95.3576L76.8727 99.862Z" stroke="#6A52FF" stroke-width="0.999984"/>
</g>
<g filter="url(#filter1_d)">
<path d="M146.093 100.99L140.901 99.5889L137.964 95.0845C136.949 93.5266 134.661 93.5254 133.645 95.0845L130.708 99.5889L125.517 100.99C123.721 101.475 123.014 103.65 124.182 105.098L127.559 109.283L127.287 114.653C127.193 116.511 129.043 117.855 130.781 117.192L135.805 115.274L140.829 117.192C142.564 117.854 144.417 116.514 144.323 114.653L144.051 109.283L147.428 105.098C148.596 103.65 147.89 101.475 146.093 100.99Z" fill="#FEC600"/>
<path d="M140.482 99.862L140.587 100.022L140.771 100.072L145.963 101.473C145.963 101.473 145.963 101.473 145.963 101.473C147.411 101.863 147.98 103.617 147.039 104.784L147.039 104.784L143.662 108.969L143.542 109.117L143.552 109.308L143.824 114.679L143.824 114.679C143.9 116.177 142.406 117.258 141.007 116.725C141.007 116.725 141.007 116.725 141.007 116.725L135.983 114.807L135.805 114.739L135.627 114.807L130.603 116.725C129.202 117.26 127.71 116.176 127.786 114.679L127.786 114.679L128.058 109.308L128.068 109.117L127.948 108.969L124.571 104.784L124.571 104.784C123.63 103.617 124.2 101.863 125.647 101.473C125.647 101.473 125.647 101.473 125.647 101.473L130.839 100.072L131.023 100.022L131.127 99.862L134.064 95.3576L134.064 95.3575C134.883 94.1013 136.727 94.1021 137.546 95.3575L137.546 95.3576L140.482 99.862Z" stroke="#6A52FF" stroke-width="0.999984"/>
</g>
<g filter="url(#filter2_d)">
<path d="M119.476 94.8904L110.971 92.5952L106.159 85.2154C105.144 83.6575 102.856 83.6563 101.84 85.2154L97.029 92.5952L88.5236 94.8904C86.7278 95.3752 86.0202 97.5501 87.1888 98.9983L92.7207 105.855L92.2753 114.653C92.1812 116.51 94.0308 117.856 95.7697 117.192L104 114.049L112.23 117.192C113.965 117.854 115.819 116.514 115.724 114.653L115.279 105.855L120.811 98.9983C121.979 97.5508 121.273 95.3754 119.476 94.8904Z" fill="#FEC600"/>
<path d="M110.552 92.8683L110.656 93.0282L110.84 93.0779L119.346 95.3731C119.346 95.3731 119.346 95.3731 119.346 95.3731C120.794 95.764 121.363 97.5179 120.422 98.6843L120.811 98.9983L120.422 98.6843L114.89 105.541L114.77 105.689L114.78 105.88L115.225 114.678L115.225 114.678C115.301 116.177 113.807 117.258 112.409 116.725C112.408 116.725 112.408 116.725 112.408 116.725L104.178 113.582L104 113.514L103.822 113.582L95.5914 116.725C94.19 117.26 92.6988 116.175 92.7747 114.678L92.7747 114.678L93.22 105.88L93.2297 105.689L93.1098 105.541L87.5779 98.6843L87.5779 98.6843C86.6363 97.5174 87.2066 95.7639 88.6538 95.3731C88.6538 95.3731 88.6539 95.3731 88.6539 95.3731L97.1592 93.0779L97.3435 93.0282L97.4478 92.8683L102.259 85.4885L102.259 85.4884C103.078 84.2322 104.922 84.233 105.741 85.4884L106.159 85.2154L105.741 85.4885L110.552 92.8683Z" stroke="#6A52FF" stroke-width="0.999984"/>
</g>
<defs>
<filter id="filter0_d" x="36" y="73.9156" width="72.3901" height="71.4482" filterUnits="userSpaceOnUse" color-interpolation-filters="sRGB">
<feFlood flood-opacity="0" result="BackgroundImageFix"/>
<feColorMatrix in="SourceAlpha" type="matrix" values="0 0 0 0 0 0 0 0 0 0 0 0 0 0 0 0 0 0 127 0"/>
<feOffset dy="4"/>
<feGaussianBlur stdDeviation="12"/>
<feColorMatrix type="matrix" values="0 0 0 0 0 0 0 0 0 0 0 0 0 0 0 0 0 0 0.16 0"/>
<feBlend mode="normal" in2="BackgroundImageFix" result="effect1_dropShadow"/>
<feBlend mode="normal" in="SourceGraphic" in2="effect1_dropShadow" result="shape"/>
</filter>
<filter id="filter1_d" x="99.6098" y="73.9156" width="72.3902" height="71.4482" filterUnits="userSpaceOnUse" color-interpolation-filters="sRGB">
<feFlood flood-opacity="0" result="BackgroundImageFix"/>
<feColorMatrix in="SourceAlpha" type="matrix" values="0 0 0 0 0 0 0 0 0 0 0 0 0 0 0 0 0 0 127 0"/>
<feOffset dy="4"/>
<feGaussianBlur stdDeviation="12"/>
<feColorMatrix type="matrix" values="0 0 0 0 0 0 0 0 0 0 0 0 0 0 0 0 0 0 0.16 0"/>
<feBlend mode="normal" in2="BackgroundImageFix" result="effect1_dropShadow"/>
<feBlend mode="normal" in="SourceGraphic" in2="effect1_dropShadow" result="shape"/>
</filter>
<filter id="filter2_d" x="62.6164" y="64.0466" width="82.7668" height="81.3173" filterUnits="userSpaceOnUse" color-interpolation-filters="sRGB">
<feFlood flood-opacity="0" result="BackgroundImageFix"/>
<feColorMatrix in="SourceAlpha" type="matrix" values="0 0 0 0 0 0 0 0 0 0 0 0 0 0 0 0 0 0 127 0"/>
<feOffset dy="4"/>
<feGaussianBlur stdDeviation="12"/>
<feColorMatrix type="matrix" values="0 0 0 0 0 0 0 0 0 0 0 0 0 0 0 0 0 0 0.16 0"/>
<feBlend mode="normal" in2="BackgroundImageFix" result="effect1_dropShadow"/>
<feBlend mode="normal" in="SourceGraphic" in2="effect1_dropShadow" result="shape"/>
</filter>
<radialGradient id="paint0_radial" cx="0" cy="0" r="1" gradientUnits="userSpaceOnUse" gradientTransform="translate(7 7) rotate(47.997) scale(270.485)">
<stop stop-color="#7863FF"/>
<stop offset="1" stop-color="#6A52FF"/>
</radialGradient>
</defs>
</svg>
