<svg width="120" height="41" viewBox="0 0 120 41" fill="none" xmlns="http://www.w3.org/2000/svg">
<path d="M26.2667 19.3856C26.2423 16.477 28.6472 15.0633 28.7528 14.9983C27.3879 13.0159 25.2755 12.7397 24.5362 12.7153C22.765 12.5284 21.0426 13.7796 20.1408 13.7796C19.2227 13.7796 17.8253 12.7397 16.3304 12.7641C14.4048 12.7966 12.5931 13.9096 11.61 15.6483C9.57071 19.1825 11.09 24.3822 13.048 27.2421C14.0311 28.6395 15.1685 30.2075 16.6716 30.1507C18.134 30.0938 18.6865 29.2163 20.4495 29.2163C22.2044 29.2163 22.7163 30.1507 24.2437 30.1182C25.8199 30.0938 26.8029 28.7126 27.7535 27.2989C28.8828 25.6984 29.3378 24.1141 29.3541 24.0329C29.3134 24.0166 26.2992 22.8629 26.2667 19.3856Z" fill="white"/>
<path d="M23.3822 10.8385C24.1703 9.85539 24.7065 8.51483 24.5603 7.1499C23.4228 7.19865 21.9929 7.93799 21.1723 8.90481C20.4492 9.75789 19.7993 11.1472 19.9618 12.4553C21.2454 12.5527 22.5616 11.8053 23.3822 10.8385Z" fill="white"/>
<path d="M47.4877 29.9473H45.4403L44.3191 26.4212H40.4193L39.355 29.9473H37.3645L41.2237 17.9473H43.6123L47.4877 29.9473ZM43.986 24.9425L42.9705 21.8146C42.8648 21.4896 42.6617 20.7421 42.3692 19.5559H42.3286C42.2068 20.0678 42.0199 20.8234 41.7599 21.8146L40.7606 24.9425H43.986Z" fill="white"/>
<path d="M57.408 25.5195C57.408 26.99 57.0099 28.1519 56.2055 29.0049C55.4906 29.7686 54.5969 30.1424 53.5407 30.1424C52.3951 30.1424 51.5745 29.7361 51.0708 28.9156V33.4572H49.1453V24.1383C49.1453 23.2121 49.1209 22.2697 49.0721 21.2947H50.7621L50.8677 22.6678H50.9002C51.542 21.6359 52.517 21.116 53.8169 21.116C54.8406 21.116 55.6855 21.5222 56.368 22.3265C57.0667 23.139 57.408 24.1952 57.408 25.5195ZM55.4499 25.5845C55.4499 24.7395 55.2631 24.0489 54.8812 23.5046C54.4669 22.9359 53.9063 22.6515 53.2076 22.6515C52.7363 22.6515 52.3057 22.814 51.9157 23.1227C51.5339 23.4396 51.2739 23.8458 51.1602 24.3577C51.1033 24.5933 51.0708 24.7883 51.0708 24.9426V26.3888C51.0708 27.0144 51.2658 27.5506 51.6476 27.9812C52.0295 28.4118 52.5332 28.6312 53.1507 28.6312C53.8738 28.6312 54.4344 28.3468 54.8406 27.7944C55.2468 27.2338 55.4499 26.5026 55.4499 25.5845Z" fill="white"/>
<path d="M67.3525 25.5195C67.3525 26.99 66.9544 28.1519 66.15 29.0049C65.4351 29.7686 64.5414 30.1424 63.4852 30.1424C62.3396 30.1424 61.519 29.7361 61.0153 28.9156V33.4572H59.0898V24.1383C59.0898 23.2121 59.0654 22.2697 59.0167 21.2947H60.7066L60.8122 22.6678H60.8447C61.4865 21.6359 62.4615 21.116 63.7614 21.116C64.7851 21.116 65.6301 21.5222 66.3125 22.3265C67.0112 23.139 67.3525 24.1952 67.3525 25.5195ZM65.3945 25.5845C65.3945 24.7395 65.2076 24.0489 64.8257 23.5046C64.4114 22.9359 63.8508 22.6515 63.1521 22.6515C62.6808 22.6515 62.2502 22.814 61.8603 23.1227C61.4784 23.4396 61.2265 23.8458 61.1047 24.3577C61.0478 24.5933 61.0153 24.7883 61.0153 24.9426V26.3888C61.0153 27.0144 61.2103 27.5506 61.5922 27.9812C61.974 28.4118 62.4777 28.6312 63.0952 28.6312C63.8183 28.6312 64.387 28.3468 64.7851 27.7944C65.1995 27.2338 65.3945 26.5026 65.3945 25.5845Z" fill="white"/>
<path d="M78.4829 26.5839C78.4829 27.6076 78.1254 28.4363 77.4186 29.0781C76.6386 29.7769 75.5499 30.1262 74.1525 30.1262C72.8607 30.1262 71.8288 29.8744 71.0489 29.3788L71.4957 27.7782C72.3407 28.2738 73.2669 28.5257 74.2744 28.5257C74.9974 28.5257 75.5662 28.3632 75.9643 28.0382C76.3705 27.7132 76.5736 27.2745 76.5736 26.7301C76.5736 26.2427 76.403 25.8364 76.078 25.5033C75.7449 25.1702 75.1924 24.8615 74.4206 24.5771C72.3001 23.789 71.252 22.6435 71.252 21.1404C71.252 20.1574 71.6257 19.353 72.3651 18.7193C73.1044 18.0937 74.0875 17.7769 75.3143 17.7769C76.403 17.7769 77.3129 17.9637 78.036 18.3456L77.5486 19.9055C76.8661 19.5399 76.1024 19.353 75.2412 19.353C74.5668 19.353 74.0306 19.5236 73.6488 19.8486C73.3319 20.1492 73.1694 20.5067 73.1694 20.9373C73.1694 21.4085 73.3563 21.8066 73.7219 22.1073C74.0387 22.3916 74.6237 22.7004 75.4687 23.0335C76.5005 23.4478 77.2561 23.9353 77.7435 24.4959C78.2391 25.0565 78.4829 25.7552 78.4829 26.5839Z" fill="white"/>
<path d="M84.8525 22.7405H82.732V26.941C82.732 28.0053 83.1057 28.5415 83.8532 28.5415C84.1944 28.5415 84.4788 28.509 84.7063 28.4521L84.7631 29.9146C84.3813 30.0527 83.8857 30.1258 83.2682 30.1258C82.5045 30.1258 81.9195 29.8902 81.4889 29.4271C81.0583 28.964 80.8471 28.184 80.8471 27.0953V22.7324H79.5878V21.2944H80.8471V19.7101L82.732 19.1414V21.2944H84.8525V22.7405Z" fill="white"/>
<path d="M94.391 25.5522C94.391 26.8846 94.0091 27.9733 93.2536 28.8264C92.4573 29.7038 91.4011 30.1425 90.085 30.1425C88.8175 30.1425 87.802 29.7201 87.0464 28.8832C86.2908 28.0464 85.9171 26.9821 85.9171 25.6984C85.9171 24.3578 86.307 23.261 87.0789 22.408C87.8588 21.5549 88.9069 21.1243 90.2231 21.1243C91.4905 21.1243 92.5142 21.5467 93.2861 22.3917C94.0254 23.2042 94.391 24.2604 94.391 25.5522ZM92.4005 25.5928C92.4005 24.7966 92.2299 24.1222 91.8886 23.5535C91.4824 22.8629 90.9056 22.5217 90.1581 22.5217C89.3863 22.5217 88.7932 22.8629 88.3951 23.5535C88.0457 24.1222 87.8832 24.8128 87.8832 25.6334C87.8832 26.4296 88.0538 27.1121 88.3951 27.6727C88.8094 28.3633 89.3944 28.7045 90.1418 28.7045C90.8731 28.7045 91.4499 28.3551 91.8724 27.6564C92.2217 27.0715 92.4005 26.389 92.4005 25.5928Z" fill="white"/>
<path d="M100.647 22.9846C100.46 22.9521 100.257 22.9359 100.037 22.9359C99.3629 22.9359 98.8349 23.1877 98.4692 23.6996C98.1524 24.1464 97.9899 24.7233 97.9899 25.4057V29.9474H96.0644V24.0164C96.0644 23.0171 96.0481 22.1072 96.0075 21.2947H97.6812L97.7543 22.9521H97.8112C98.0143 22.3834 98.3311 21.9203 98.7699 21.5791C99.2005 21.2703 99.6636 21.116 100.159 21.116C100.338 21.116 100.5 21.1322 100.639 21.1485L100.647 22.9846Z" fill="white"/>
<path d="M109.243 25.2105C109.243 25.5517 109.218 25.8442 109.17 26.0798H103.401C103.425 26.9329 103.702 27.591 104.238 28.0378C104.725 28.4359 105.351 28.639 106.123 28.639C106.976 28.639 107.756 28.5009 108.455 28.2328L108.755 29.5652C107.935 29.9227 106.968 30.1015 105.855 30.1015C104.514 30.1015 103.458 29.7034 102.694 28.9153C101.931 28.1272 101.549 27.0629 101.549 25.7386C101.549 24.4386 101.906 23.3499 102.621 22.4806C103.369 21.5544 104.376 21.0913 105.643 21.0913C106.887 21.0913 107.837 21.5544 108.471 22.4806C108.983 23.2281 109.243 24.1299 109.243 25.2105ZM107.407 24.7149C107.423 24.1462 107.293 23.6506 107.033 23.2362C106.7 22.7 106.188 22.4319 105.505 22.4319C104.88 22.4319 104.368 22.6919 103.978 23.2118C103.661 23.6262 103.466 24.1299 103.409 24.7067L107.407 24.7149Z" fill="white"/>
<path d="M43.0604 13.6575H42.053L41.5005 11.9269H39.5831L39.055 13.6575H38.0801L39.9731 7.75903H41.143L43.0604 13.6575ZM41.3299 11.1957L40.8343 9.65206C40.7856 9.49769 40.6881 9.12396 40.5337 8.53899H40.5175C40.4525 8.79085 40.3712 9.15646 40.2331 9.65206L39.7456 11.1957H41.3299Z" fill="white"/>
<path d="M47.8052 9.40015L46.1966 13.6574H45.2785L43.7186 9.40015H44.7341L45.4572 11.6507C45.5791 12.0244 45.6847 12.3819 45.766 12.7231H45.7903C45.8635 12.4144 45.9691 12.0569 46.0991 11.6507L46.814 9.40015H47.8052Z" fill="white"/>
<path d="M51.2341 13.6573L51.1609 13.1698H51.1366C50.8441 13.5598 50.4297 13.7548 49.8935 13.7548C49.1298 13.7548 48.5936 13.2186 48.5936 12.5036C48.5936 11.4555 49.5035 10.9112 51.0797 10.9112V10.83C51.0797 10.2694 50.7791 9.99312 50.1941 9.99312C49.7716 9.99312 49.406 10.0987 49.081 10.31L48.8861 9.69251C49.276 9.44877 49.7716 9.3269 50.3485 9.3269C51.4615 9.3269 52.0221 9.91187 52.0221 11.0899V12.658C52.0221 13.0886 52.0384 13.4217 52.0871 13.6736L51.2341 13.6573ZM51.1041 11.5368C50.056 11.5368 49.5279 11.7887 49.5279 12.398C49.5279 12.8448 49.796 13.0642 50.1779 13.0642C50.6572 13.0642 51.1041 12.6986 51.1041 12.1949V11.5368Z" fill="white"/>
<path d="M54.1264 8.70134C53.8095 8.70134 53.5658 8.4576 53.5658 8.13262C53.5658 7.80763 53.8177 7.57202 54.1426 7.57202C54.4676 7.57202 54.7276 7.80763 54.7195 8.13262C54.7195 8.47385 54.4757 8.70134 54.1264 8.70134ZM53.6714 9.40005H54.6139V13.6492H53.6714V9.40005Z" fill="white"/>
<path d="M56.2957 7.4502H57.2382V13.6492H56.2957V7.4502Z" fill="white"/>
<path d="M61.2512 13.6574L61.1781 13.1699H61.1537C60.8612 13.5599 60.4469 13.7549 59.9107 13.7549C59.1469 13.7549 58.6107 13.2186 58.6107 12.5037C58.6107 11.4556 59.5207 10.9113 61.0968 10.9113V10.83C61.0968 10.2694 60.7962 9.99319 60.2113 9.99319C59.7888 9.99319 59.4232 10.0988 59.0982 10.31L58.9032 9.68445C59.2932 9.44072 59.7888 9.31885 60.3656 9.31885C61.4787 9.31885 62.0393 9.90382 62.0393 11.0819V12.6499C62.0393 13.0805 62.0555 13.4136 62.0962 13.6655H61.2512V13.6574ZM61.1212 11.5369C60.0731 11.5369 59.545 11.7887 59.545 12.3981C59.545 12.8449 59.8132 13.0643 60.195 13.0643C60.6744 13.0643 61.1212 12.6987 61.1212 12.1949V11.5369Z" fill="white"/>
<path d="M65.8743 13.7549C65.273 13.7549 64.8262 13.503 64.5337 12.9993H64.5175L64.4606 13.6574H63.6562C63.6806 13.3161 63.6887 12.9343 63.6887 12.5118V7.4502H64.6393V10.0257H64.6556C64.9399 9.55446 65.3868 9.31885 66.0124 9.31885C67.0361 9.31885 67.751 10.1963 67.751 11.4719C67.751 12.788 66.9548 13.7549 65.8743 13.7549ZM65.6793 10.0582C65.1349 10.0582 64.6393 10.5294 64.6393 11.1875V11.935C64.6393 12.5199 65.0862 12.9993 65.663 12.9993C66.3699 12.9993 66.7923 12.4224 66.7923 11.5044C66.7923 10.6432 66.3536 10.0582 65.6793 10.0582Z" fill="white"/>
<path d="M69.1488 7.4502H70.0913V13.6492H69.1488V7.4502Z" fill="white"/>
<path d="M75.2339 11.7559H72.3984C72.4147 12.5602 72.9509 13.0152 73.739 13.0152C74.1614 13.0152 74.5433 12.9421 74.8845 12.8121L75.0308 13.4702C74.6327 13.6489 74.1614 13.7301 73.609 13.7301C72.2765 13.7301 71.4885 12.8933 71.4885 11.5853C71.4885 10.2853 72.2928 9.30225 73.5034 9.30225C74.5839 9.30225 75.2745 10.1066 75.2745 11.3253C75.2745 11.4959 75.2664 11.6421 75.2339 11.7559ZM74.3727 11.0815C74.3727 10.4234 74.0396 9.96034 73.4384 9.96034C72.894 9.96034 72.4715 10.4316 72.4065 11.0815H74.3727Z" fill="white"/>
<path d="M80.9615 13.7549C79.7184 13.7549 78.9141 12.8287 78.9141 11.5694C78.9141 10.2532 79.7346 9.31885 81.0346 9.31885C82.2614 9.31885 83.082 10.2044 83.082 11.4962C83.082 12.8205 82.237 13.7549 80.9615 13.7549ZM81.0021 10.0094C80.3196 10.0094 79.8809 10.6513 79.8809 11.5369C79.8809 12.4143 80.3277 13.048 80.994 13.048C81.6602 13.048 82.107 12.3656 82.107 11.5125C82.0989 10.6513 81.6683 10.0094 81.0021 10.0094Z" fill="white"/>
<path d="M88.1599 13.6572H87.2174V11.2117C87.2174 10.4561 86.925 10.0824 86.3562 10.0824C85.7956 10.0824 85.4138 10.5617 85.4138 11.1223V13.6491H84.4713V10.6186C84.4713 10.2449 84.4632 9.83864 84.4388 9.39992H85.2675L85.3082 10.058H85.3325C85.5844 9.60303 86.1044 9.31055 86.6812 9.31055C87.5749 9.31055 88.1599 9.99301 88.1599 11.1061V13.6572Z" fill="white"/>
<path d="M94.3427 10.1149H93.3028V12.1786C93.3028 12.7066 93.4896 12.9666 93.8552 12.9666C94.0177 12.9666 94.164 12.9504 94.2777 12.926L94.3021 13.641C94.1152 13.7141 93.8715 13.7466 93.5709 13.7466C92.8234 13.7466 92.3847 13.3322 92.3847 12.2598V10.1149H91.7672V9.40807H92.3847V8.62811L93.3109 8.34375V9.39995H94.3508V10.1149" fill="white"/>
<path d="M99.3476 13.6574H98.4051V11.2281C98.4051 10.4644 98.1126 10.0826 97.5439 10.0826C97.0564 10.0826 96.6015 10.4157 96.6015 11.09V13.6492H95.659V7.4502H96.6015V10.0013H96.6177C96.9183 9.53821 97.3408 9.31072 97.8933 9.31072C98.7951 9.31072 99.3476 10.0094 99.3476 11.1225V13.6574Z" fill="white"/>
<path d="M104.173 11.7559H101.338C101.354 12.5602 101.89 13.0152 102.678 13.0152C103.101 13.0152 103.483 12.9421 103.824 12.8121L103.97 13.4702C103.572 13.6489 103.101 13.7301 102.548 13.7301C101.216 13.7301 100.428 12.8933 100.428 11.5853C100.428 10.2853 101.232 9.30225 102.443 9.30225C103.523 9.30225 104.214 10.1066 104.214 11.3253C104.214 11.4959 104.206 11.6421 104.173 11.7559ZM103.312 11.0815C103.312 10.4234 102.979 9.96034 102.378 9.96034C101.833 9.96034 101.403 10.4316 101.346 11.0815H103.312Z" fill="white"/>
</svg>
