<svg width="58" height="58" viewBox="0 0 58 58" fill="none" xmlns="http://www.w3.org/2000/svg">
<circle cx="29" cy="29" r="29" fill="#D8E2FF"/>
<path fill-rule="evenodd" clip-rule="evenodd" d="M10.15 19.123V28.6355H15.1306C17.091 28.6355 18.9025 27.9475 18.9025 25.9265C18.9025 24.5602 17.9183 23.9365 16.8357 23.6101C17.4953 23.3455 18.2435 22.7897 18.2435 21.6246C18.2435 20.1333 16.7638 19.123 14.7717 19.123H10.15ZM13.2013 21.3385H14.3231C14.7797 21.3385 15.1279 21.6962 15.1279 22.0592C15.1279 22.3965 14.7661 22.7575 14.3231 22.7575H13.2013V21.3385ZM14.682 24.7318H13.2013V26.4453H14.5923C15.227 26.4453 15.6327 26.0496 15.6327 25.5731C15.6327 25.1244 15.1989 24.7318 14.682 24.7318Z" fill="white"/>
<path fill-rule="evenodd" clip-rule="evenodd" d="M12.618 29.6731V39.1856H17.5986C19.5589 39.1856 21.3705 38.4976 21.3705 36.4766C21.3705 35.1103 20.3862 34.4866 19.3037 34.1601C19.9632 33.8956 20.7115 33.3398 20.7115 32.1746C20.7115 30.6833 19.2318 29.6731 17.2396 29.6731H12.618ZM15.6693 31.8886H16.791C17.2477 31.8886 17.5959 32.2463 17.5959 32.6093C17.5959 32.9466 17.2341 33.3076 16.791 33.3076H15.6693V31.8886ZM17.15 35.2819H15.6693V36.9954H17.0602C17.695 36.9954 18.1007 36.5997 18.1007 36.1232C18.1007 35.6745 17.6669 35.2819 17.15 35.2819Z" fill="white"/>
<path d="M19.1419 28.6346V19.1221H26.8147V21.4194H22.1841V22.6668H25.9442V24.8206H22.1841V26.3462H26.8147V28.6346H19.1419Z" fill="white"/>
<path d="M30.9712 28.9067C33.1309 28.9067 34.8585 27.6748 34.8585 25.6784C34.8585 22.4565 30.6671 22.9523 30.6671 21.9492C30.6671 21.5617 31.0746 21.356 31.4925 21.356C32.2127 21.356 32.7331 21.8305 32.7331 21.8305L34.5363 20.1136C33.8151 19.4272 32.676 18.8501 31.1416 18.8501C28.8371 18.8501 27.3294 20.2179 27.3294 21.8678C27.3294 25.1307 31.4604 24.6571 31.4604 25.6809C31.4604 26.0398 31.1151 26.4008 30.4889 26.4008C29.7779 26.4008 29.2147 25.9716 28.7763 25.6074L26.9625 27.3367C27.6929 28.0481 28.8654 28.9067 30.9712 28.9067V28.9067Z" fill="white"/>
<path d="M37.2067 28.6346V21.4105H34.694V19.1221H42.7706V21.4105H40.2579V28.6346H37.2067Z" fill="white"/>
<path d="M21.4753 29.6665H24.5175V35.365C24.5175 35.9437 25.0934 36.4769 25.6938 36.4769C26.2602 36.4769 26.8328 35.9954 26.8328 35.3346V29.6665H29.866V35.2958C29.866 37.5296 28.0115 39.3114 25.6134 39.3114C23.2018 39.3114 21.4753 37.3722 21.4753 35.1741L21.4753 29.6665Z" fill="white"/>
<path d="M33.6171 39.179V35.7799L30.0415 29.6665H33.1195L35.1427 32.942L37.1729 29.6665H40.2579L36.6683 35.8149V39.179H33.6171Z" fill="white"/>
<g filter="url(#filter0_d)">
<path d="M40.258 34.8726L38.4632 36.6674V39.0904L40.258 40.8852H47.8501V34.8726H40.258Z" fill="url(#paint0_radial)"/>
</g>
<path d="M39.9632 37.8777C39.9632 38.1007 39.7824 38.2815 39.5594 38.2815C39.3364 38.2815 39.1556 38.1007 39.1556 37.8777C39.1556 37.6547 39.3364 37.4739 39.5594 37.4739C39.7824 37.4739 39.9632 37.6547 39.9632 37.8777Z" fill="white"/>
<defs>
<filter id="filter0_d" x="30.4632" y="28.8726" width="25.3869" height="22.0126" filterUnits="userSpaceOnUse" color-interpolation-filters="sRGB">
<feFlood flood-opacity="0" result="BackgroundImageFix"/>
<feColorMatrix in="SourceAlpha" type="matrix" values="0 0 0 0 0 0 0 0 0 0 0 0 0 0 0 0 0 0 127 0"/>
<feOffset dy="2"/>
<feGaussianBlur stdDeviation="4"/>
<feColorMatrix type="matrix" values="0 0 0 0 0.41625 0 0 0 0 0.540289 0 0 0 0 0.9 0 0 0 0.24 0"/>
<feBlend mode="normal" in2="BackgroundImageFix" result="effect1_dropShadow"/>
<feBlend mode="normal" in="SourceGraphic" in2="effect1_dropShadow" result="shape"/>
</filter>
<radialGradient id="paint0_radial" cx="0" cy="0" r="1" gradientUnits="userSpaceOnUse" gradientTransform="translate(39.5003 36.0001) rotate(29.0546) scale(10.2956 16.0735)">
<stop stop-color="#B8CAFF"/>
<stop offset="1" stop-color="#A3BAFE"/>
</radialGradient>
</defs>
</svg>
