<svg width="1440" height="899" viewBox="0 0 1440 899" fill="none" xmlns="http://www.w3.org/2000/svg">
<mask id="mask0" mask-type="alpha" maskUnits="userSpaceOnUse" x="0" y="0" width="1440" height="899">
<rect width="1440" height="899" fill="#C4C4C4"/>
</mask>
<g mask="url(#mask0)">
<mask id="mask1" mask-type="alpha" maskUnits="userSpaceOnUse" x="0" y="0" width="901" height="901">
<rect width="901" height="901" fill="url(#paint0_radial)"/>
</mask>
<g mask="url(#mask1)">
<path d="M60.2051 0L60.2051 901.445" stroke="#E6ECFE" stroke-width="0.8" stroke-linecap="round" stroke-linejoin="round" stroke-dasharray="6 4"/>
<path d="M112.274 0L112.274 901.445" stroke="#E6ECFE" stroke-width="0.8" stroke-linecap="round" stroke-linejoin="round" stroke-dasharray="6 4"/>
<path d="M164.343 0L164.343 901.445" stroke="#E6ECFE" stroke-width="0.8" stroke-linecap="round" stroke-linejoin="round" stroke-dasharray="6 4"/>
<path d="M216.412 0L216.412 901.445" stroke="#E6ECFE" stroke-width="0.8" stroke-linecap="round" stroke-linejoin="round" stroke-dasharray="6 4"/>
<path d="M268.481 0V901.445" stroke="#E6ECFE" stroke-width="0.8" stroke-linecap="round" stroke-linejoin="round" stroke-dasharray="6 4"/>
<path d="M320.55 0V901.445" stroke="#E6ECFE" stroke-width="0.8" stroke-linecap="round" stroke-linejoin="round" stroke-dasharray="6 4"/>
<path d="M372.619 0V901.445" stroke="#E6ECFE" stroke-width="0.8" stroke-linecap="round" stroke-linejoin="round" stroke-dasharray="6 4"/>
<path d="M424.688 0V901.445" stroke="#E6ECFE" stroke-width="0.8" stroke-linecap="round" stroke-linejoin="round" stroke-dasharray="6 4"/>
<path d="M476.757 0V901.445" stroke="#E6ECFE" stroke-width="0.8" stroke-linecap="round" stroke-linejoin="round" stroke-dasharray="6 4"/>
<path d="M528.826 0V901.445" stroke="#E6ECFE" stroke-width="0.8" stroke-linecap="round" stroke-linejoin="round" stroke-dasharray="6 4"/>
<path d="M580.895 0V901.445" stroke="#E6ECFE" stroke-width="0.8" stroke-linecap="round" stroke-linejoin="round" stroke-dasharray="6 4"/>
<path d="M632.964 0V901.445" stroke="#E6ECFE" stroke-width="0.8" stroke-linecap="round" stroke-linejoin="round" stroke-dasharray="6 4"/>
<path d="M685.033 0V901.445" stroke="#E6ECFE" stroke-width="0.8" stroke-linecap="round" stroke-linejoin="round" stroke-dasharray="6 4"/>
<path d="M737.102 0V901.445" stroke="#E6ECFE" stroke-width="0.8" stroke-linecap="round" stroke-linejoin="round" stroke-dasharray="6 4"/>
<path d="M789.171 0V901.445" stroke="#E6ECFE" stroke-width="0.8" stroke-linecap="round" stroke-linejoin="round" stroke-dasharray="6 4"/>
<path d="M841.24 0V901.445" stroke="#E6ECFE" stroke-width="0.8" stroke-linecap="round" stroke-linejoin="round" stroke-dasharray="6 4"/>
<path d="M901.444 60.2048L-0.000581503 60.2048" stroke="#E6ECFE" stroke-width="0.8" stroke-linecap="round" stroke-linejoin="round" stroke-dasharray="6 4"/>
<path d="M901.444 112.274L-0.000398397 112.274" stroke="#E6ECFE" stroke-width="0.8" stroke-linecap="round" stroke-linejoin="round" stroke-dasharray="6 4"/>
<path d="M901.444 164.343L-0.000398397 164.343" stroke="#E6ECFE" stroke-width="0.8" stroke-linecap="round" stroke-linejoin="round" stroke-dasharray="6 4"/>
<path d="M901.444 216.412L-0.000398397 216.412" stroke="#E6ECFE" stroke-width="0.8" stroke-linecap="round" stroke-linejoin="round" stroke-dasharray="6 4"/>
<path d="M901.444 268.481L-0.000398397 268.481" stroke="#E6ECFE" stroke-width="0.8" stroke-linecap="round" stroke-linejoin="round" stroke-dasharray="6 4"/>
<path d="M901.444 320.55L-0.000398397 320.55" stroke="#E6ECFE" stroke-width="0.8" stroke-linecap="round" stroke-linejoin="round" stroke-dasharray="6 4"/>
<path d="M901.444 372.619L-0.000398397 372.619" stroke="#E6ECFE" stroke-width="0.8" stroke-linecap="round" stroke-linejoin="round" stroke-dasharray="6 4"/>
<path d="M901.444 424.688L-0.000398397 424.688" stroke="#E6ECFE" stroke-width="0.8" stroke-linecap="round" stroke-linejoin="round" stroke-dasharray="6 4"/>
<path d="M901.444 476.757L-0.000398397 476.757" stroke="#E6ECFE" stroke-width="0.8" stroke-linecap="round" stroke-linejoin="round" stroke-dasharray="6 4"/>
<path d="M901.444 528.826L-0.000398397 528.826" stroke="#E6ECFE" stroke-width="0.8" stroke-linecap="round" stroke-linejoin="round" stroke-dasharray="6 4"/>
<path d="M901.444 580.895L-0.000398397 580.895" stroke="#E6ECFE" stroke-width="0.8" stroke-linecap="round" stroke-linejoin="round" stroke-dasharray="6 4"/>
<path d="M901.444 632.964L-0.000398397 632.964" stroke="#E6ECFE" stroke-width="0.8" stroke-linecap="round" stroke-linejoin="round" stroke-dasharray="6 4"/>
<path d="M901.444 685.033L-0.000398397 685.033" stroke="#E6ECFE" stroke-width="0.8" stroke-linecap="round" stroke-linejoin="round" stroke-dasharray="6 4"/>
<path d="M901.444 737.102L-0.000398397 737.102" stroke="#E6ECFE" stroke-width="0.8" stroke-linecap="round" stroke-linejoin="round" stroke-dasharray="6 4"/>
<path d="M901.444 789.171L-0.000398397 789.171" stroke="#E6ECFE" stroke-width="0.8" stroke-linecap="round" stroke-linejoin="round" stroke-dasharray="6 4"/>
<path d="M901.444 841.24L-0.000398397 841.24" stroke="#E6ECFE" stroke-width="0.8" stroke-linecap="round" stroke-linejoin="round" stroke-dasharray="6 4"/>
</g>
<g filter="url(#filter0_b)">
<rect x="899.491" y="546.676" width="46.7785" height="46.7785" rx="12" transform="rotate(126.062 899.491 546.676)" fill="url(#paint1_linear)" fill-opacity="0.56"/>
</g>
<path fill-rule="evenodd" clip-rule="evenodd" d="M871.953 559.575C868.444 562.02 863.581 561.678 860.451 558.548C858.849 556.946 857.977 554.89 857.836 552.794L866.344 553.164L871.953 559.575ZM873.457 558.257L868.184 552.229L873.847 546.566C876.595 549.997 876.465 554.972 873.457 558.257ZM872.433 545.152C868.899 542.321 863.727 542.544 860.451 545.82C859.048 547.223 858.205 548.975 857.922 550.796L866.419 551.166L872.433 545.152ZM874.593 559.962C870.297 564.258 863.333 564.258 859.037 559.962C854.741 555.666 854.741 548.701 859.037 544.406C863.333 540.11 870.297 540.11 874.593 544.406C878.889 548.701 878.889 555.666 874.593 559.962Z" fill="white"/>
<g filter="url(#filter1_d)">
<rect x="824.688" y="168.81" width="28.9178" height="28.9178" rx="8" transform="rotate(120.649 824.688 168.81)" fill="url(#paint2_linear)"/>
</g>
<path d="M801.095 169.005L797.634 175.376C797.371 175.861 797.55 176.468 798.036 176.732L804.406 180.193M801.095 169.005L808.345 172.944M801.095 169.005L805.783 167.618C806.038 167.543 806.311 167.572 806.545 167.698L813.43 171.439M804.406 180.193L808.345 172.944M804.406 180.193L809.094 178.806C809.349 178.73 809.563 178.557 809.689 178.324L813.43 171.439M808.345 172.944L813.43 171.439" stroke="white" stroke-width="1.5" stroke-linejoin="round"/>
<g filter="url(#filter2_b)">
<rect x="598" y="343.661" width="37.281" height="37.281" rx="8" transform="rotate(-39.3957 598 343.661)" fill="url(#paint3_linear)" fill-opacity="0.56"/>
</g>
<path fill-rule="evenodd" clip-rule="evenodd" d="M615.888 347.411L615.474 346.932L626.066 337.777L626.48 338.257C626.473 338.277 626.467 338.297 626.461 338.318L624.234 346.363L615.952 347.401C615.93 347.404 615.909 347.407 615.888 347.411ZM617.459 349.228L622.013 354.497L632.605 345.343L628.051 340.073L625.984 347.539C625.876 347.928 625.545 348.214 625.145 348.264L617.459 349.228ZM613.307 347.483C612.946 347.065 612.992 346.434 613.409 346.072L625.515 335.61C625.933 335.249 626.564 335.295 626.925 335.713L634.772 344.792C635.133 345.209 635.087 345.841 634.669 346.202L622.564 356.665C622.146 357.026 621.515 356.98 621.154 356.562L613.307 347.483Z" fill="white"/>
<g filter="url(#filter3_d)">
<rect x="368.059" y="487" width="37.281" height="37.281" rx="8" transform="rotate(25.5158 368.059 487)" fill="url(#paint4_linear)"/>
</g>
<path fill-rule="evenodd" clip-rule="evenodd" d="M383.038 515.046C381.454 518.573 377.312 520.148 373.785 518.565C370.258 516.981 368.682 512.839 370.266 509.312C371.849 505.785 375.992 504.209 379.519 505.793C383.046 507.376 384.621 511.519 383.038 515.046ZM384.862 515.865C382.827 520.399 377.5 522.425 372.966 520.389C368.431 518.354 366.406 513.027 368.441 508.493C370.477 503.958 375.803 501.932 380.338 503.968C384.872 506.004 386.898 511.33 384.862 515.865ZM376.789 513.474C376.867 513.695 376.847 513.938 376.729 514.202C376.615 514.456 376.442 514.622 376.209 514.699C375.979 514.774 375.722 514.747 375.438 514.62C375.097 514.467 374.88 514.248 374.788 513.963C374.739 513.801 374.73 513.625 374.763 513.433C374.81 513.16 374.71 512.866 374.458 512.753L373.975 512.536C373.723 512.423 373.421 512.534 373.346 512.8C373.208 513.282 373.209 513.737 373.346 514.163C373.532 514.722 373.895 515.165 374.524 515.532L374.298 516.035C374.186 516.286 374.297 516.581 374.548 516.695L374.698 516.763C374.951 516.878 375.248 516.765 375.361 516.513L375.587 516.01C376.213 516.218 376.524 516.109 377.019 515.921C377.513 515.733 377.883 515.366 378.129 514.818C378.26 514.525 378.33 514.249 378.338 513.99C378.348 513.727 378.306 513.472 378.212 513.225C378.119 512.975 377.979 512.726 377.792 512.48C377.606 512.23 377.355 511.941 377.038 511.613C376.724 511.287 376.53 511.017 376.455 510.806C376.379 510.594 376.397 510.366 376.507 510.121C376.625 509.857 376.79 509.684 377.001 509.601C377.214 509.514 377.453 509.53 377.717 509.649C377.984 509.769 378.153 509.961 378.224 510.225C378.266 510.372 378.27 510.538 378.234 510.724C378.182 510.995 378.282 511.289 378.534 511.403L379.017 511.62C379.269 511.733 379.57 511.621 379.646 511.356C379.776 510.904 379.786 510.478 379.677 510.077C379.533 509.536 379.345 509.165 378.811 508.829L379.077 508.237C379.19 507.985 379.077 507.689 378.825 507.576L378.674 507.508C378.422 507.395 378.126 507.508 378.013 507.76L377.754 508.337C377.152 508.136 376.739 508.195 376.235 508.386C375.731 508.578 375.357 508.946 375.113 509.49C374.971 509.805 374.899 510.1 374.896 510.373C374.897 510.648 374.949 510.911 375.053 511.163C375.161 511.413 375.313 511.661 375.508 511.907C375.704 512.15 375.948 512.416 376.24 512.705C376.532 512.995 376.715 513.251 376.789 513.474Z" fill="white"/>
<g filter="url(#filter4_d)">
<rect x="310" y="153.69" width="48" height="48" rx="12" transform="rotate(-76.5818 310 153.69)" fill="url(#paint5_linear)"/>
</g>
<path fill-rule="evenodd" clip-rule="evenodd" d="M343.315 127.128C342.646 126.654 341.878 126.298 341.037 126.098C337.773 125.319 334.445 127.119 333.31 130.278L332.539 132.424L332.521 132.475C332.183 133.405 331.652 134.253 330.962 134.963L330.924 135.002L330.138 135.805L330.105 135.838C329.777 136.174 329.479 136.478 329.266 136.745C329.049 137.016 328.796 137.394 328.758 137.882C328.72 138.364 328.859 138.843 329.147 139.231C329.439 139.623 329.855 139.808 330.183 139.922C330.506 140.034 330.92 140.133 331.376 140.242L331.422 140.253L343.226 143.069L343.272 143.08C343.728 143.189 344.142 143.288 344.481 143.333C344.826 143.38 345.28 143.402 345.717 143.184C346.15 142.968 346.49 142.603 346.674 142.156C346.86 141.704 346.805 141.252 346.734 140.912C346.664 140.577 346.536 140.172 346.394 139.724L346.38 139.68L346.041 138.608L346.025 138.556C345.804 137.849 345.698 137.114 345.707 136.376C345.402 136.361 345.093 136.318 344.785 136.244C344.411 136.155 344.058 136.026 343.727 135.863C343.652 136.973 343.784 138.088 344.116 139.152L344.134 139.211L344.473 140.282C344.633 140.789 344.729 141.097 344.776 141.321C344.779 141.333 344.781 141.345 344.783 141.356C344.772 141.354 344.76 141.353 344.748 141.351C344.521 141.321 344.207 141.247 343.69 141.124L331.886 138.308C331.369 138.184 331.056 138.108 330.839 138.033C330.828 138.029 330.817 138.025 330.806 138.021C330.813 138.013 330.82 138.003 330.828 137.994C330.971 137.815 331.196 137.583 331.567 137.204L332.353 136.401L332.396 136.357C333.283 135.444 333.966 134.354 334.401 133.158L334.421 133.1L335.192 130.954C335.982 128.754 338.3 127.501 340.573 128.043C341.023 128.151 341.443 128.322 341.825 128.545C342.222 127.97 342.732 127.489 343.315 127.128ZM345.354 129.47C344.702 129.672 344.17 130.204 344 130.917C343.966 131.058 343.948 131.199 343.945 131.338C344.01 131.585 344.055 131.839 344.077 132.097C344.306 132.692 344.814 133.167 345.481 133.326C345.667 133.371 345.854 133.388 346.037 133.379L346.045 133.316C346.215 131.948 345.951 130.617 345.354 129.47Z" fill="white"/>
<path d="M334.583 140.663C334.527 141.633 334.698 142.543 335.067 143.251C335.437 143.959 335.985 144.426 336.628 144.579C337.27 144.732 337.971 144.563 338.62 144.098C339.27 143.633 339.832 142.898 340.221 142.007" stroke="white" stroke-width="2" stroke-linecap="round"/>
<circle cx="345.945" cy="131.381" r="2.5" transform="rotate(13.4182 345.945 131.381)" fill="white" stroke="white"/>
<g filter="url(#filter5_b)">
<rect x="57.8367" y="416.804" width="73.9889" height="73.9889" rx="16" transform="rotate(143.478 57.8367 416.804)" fill="url(#paint6_linear)" fill-opacity="0.56"/>
</g>
<path d="M-7.56004 414.666L2.73657 429.124C3.05695 429.574 3.68135 429.679 4.13121 429.359L26.9387 413.116C27.3885 412.796 27.4935 412.172 27.1731 411.722L16.8765 397.263M-7.56004 414.666L-6.68081 409.436M-7.56004 414.666L-3.14588 414.4M16.8765 397.263L11.6466 396.384M16.8765 397.263L15.1815 401.348M-6.68081 409.436L-10.4514 404.142C-10.7718 403.692 -10.6668 403.067 -10.2169 402.747L6.48138 390.855C6.93124 390.535 7.55564 390.64 7.87602 391.09L11.6466 396.384M-6.68081 409.436L-3.14588 414.4M11.6466 396.384L15.1815 401.348M-3.14588 414.4L1.26828 414.134L9.47272 413.639C9.85442 413.616 10.1896 413.377 10.3361 413.024L15.1815 401.348" stroke="white" stroke-width="3" stroke-linejoin="round"/>
<rect x="687" y="491.419" width="5" height="5" rx="2" transform="rotate(-62.1109 687 491.419)" fill="url(#paint7_linear)"/>
<rect x="488" y="467.419" width="5" height="5" rx="2" transform="rotate(-62.1109 488 467.419)" fill="url(#paint8_linear)" fill-opacity="0.56"/>
<rect x="222" y="537.419" width="5" height="5" rx="2" transform="rotate(-62.1109 222 537.419)" fill="url(#paint9_linear)" fill-opacity="0.56"/>
<rect x="738" y="362.146" width="6.43539" height="6.43539" rx="2" transform="rotate(-1.2957 738 362.146)" fill="url(#paint10_linear)" fill-opacity="0.56"/>
<rect x="55" y="245.146" width="6.43539" height="6.43539" rx="2" transform="rotate(-1.2957 55 245.146)" fill="url(#paint11_linear)" fill-opacity="0.56"/>
<rect x="835" y="453.374" width="5" height="5" rx="2" transform="rotate(-61.0244 835 453.374)" fill="url(#paint12_linear)"/>
<rect x="484.833" y="242.542" width="6.43539" height="6.43539" rx="2" transform="rotate(-67.8338 484.833 242.542)" fill="url(#paint13_linear)" fill-opacity="0.56"/>
<rect x="592.169" y="161.583" width="5" height="5" rx="2" transform="rotate(-127.563 592.169 161.583)" fill="url(#paint14_linear)"/>
<rect x="35.0273" y="572.518" width="5" height="5" rx="2" transform="rotate(66.6841 35.0273 572.518)" fill="url(#paint15_linear)"/>
<rect x="89.1509" y="469.508" width="3" height="3" rx="1.5" transform="rotate(-5.99097 89.1509 469.508)" fill="url(#paint16_linear)"/>
<rect width="5" height="5" rx="2" transform="matrix(0.674223 0.738528 0.738528 -0.674223 233 93.3711)" fill="url(#paint17_linear)"/>
<rect width="3" height="3" rx="1.5" transform="matrix(-0.504244 0.863561 0.863561 0.504244 141.513 154)" fill="url(#paint18_linear)"/>
<rect width="3" height="3" rx="1.5" transform="matrix(-0.504244 0.863561 0.863561 0.504244 452.513 140)" fill="url(#paint19_linear)"/>
<rect width="3" height="3" rx="1.5" transform="matrix(-0.504244 0.863561 0.863561 0.504244 558.513 548)" fill="url(#paint20_linear)"/>
<rect width="3" height="3" rx="1.5" transform="matrix(-0.504244 0.863561 0.863561 0.504244 848.513 154)" fill="url(#paint21_linear)"/>
<rect width="3" height="3" rx="1.5" transform="matrix(-0.504244 0.863561 0.863561 0.504244 679.513 222)" fill="url(#paint22_linear)" fill-opacity="0.56"/>
<rect width="3" height="3" rx="1.5" transform="matrix(-0.504244 0.863561 0.863561 0.504244 562.513 360)" fill="url(#paint23_linear)" fill-opacity="0.56"/>
<rect width="3" height="3" rx="1.5" transform="matrix(-0.504244 0.863561 0.863561 0.504244 354.513 470)" fill="url(#paint24_linear)"/>
</g>
<defs>
<filter id="filter0_b" x="822.139" y="507.139" width="89.3515" height="89.3515" filterUnits="userSpaceOnUse" color-interpolation-filters="sRGB">
<feFlood flood-opacity="0" result="BackgroundImageFix"/>
<feGaussianBlur in="BackgroundImage" stdDeviation="6"/>
<feComposite in2="SourceAlpha" operator="in" result="effect1_backgroundBlur"/>
<feBlend mode="normal" in="SourceGraphic" in2="effect1_backgroundBlur" result="shape"/>
</filter>
<filter id="filter1_d" x="729.068" y="130.068" width="151.62" height="151.62" filterUnits="userSpaceOnUse" color-interpolation-filters="sRGB">
<feFlood flood-opacity="0" result="BackgroundImageFix"/>
<feColorMatrix in="SourceAlpha" type="matrix" values="0 0 0 0 0 0 0 0 0 0 0 0 0 0 0 0 0 0 127 0"/>
<feOffset dy="32"/>
<feGaussianBlur stdDeviation="28"/>
<feColorMatrix type="matrix" values="0 0 0 0 0.616667 0 0 0 0 0.700303 0 0 0 0 1 0 0 0 0.32 0"/>
<feBlend mode="normal" in2="BackgroundImageFix" result="effect1_dropShadow"/>
<feBlend mode="normal" in="SourceGraphic" in2="effect1_dropShadow" result="shape"/>
</filter>
<filter id="filter2_b" x="586" y="308" width="76.4713" height="76.4713" filterUnits="userSpaceOnUse" color-interpolation-filters="sRGB">
<feFlood flood-opacity="0" result="BackgroundImageFix"/>
<feGaussianBlur in="BackgroundImage" stdDeviation="6"/>
<feComposite in2="SourceAlpha" operator="in" result="effect1_backgroundBlur"/>
<feBlend mode="normal" in="SourceGraphic" in2="effect1_backgroundBlur" result="shape"/>
</filter>
<filter id="filter3_d" x="296" y="463" width="161.704" height="161.704" filterUnits="userSpaceOnUse" color-interpolation-filters="sRGB">
<feFlood flood-opacity="0" result="BackgroundImageFix"/>
<feColorMatrix in="SourceAlpha" type="matrix" values="0 0 0 0 0 0 0 0 0 0 0 0 0 0 0 0 0 0 127 0"/>
<feOffset dy="32"/>
<feGaussianBlur stdDeviation="28"/>
<feColorMatrix type="matrix" values="0 0 0 0 0.616667 0 0 0 0 0.700303 0 0 0 0 1 0 0 0 0.32 0"/>
<feBlend mode="normal" in2="BackgroundImageFix" result="effect1_dropShadow"/>
<feBlend mode="normal" in="SourceGraphic" in2="effect1_dropShadow" result="shape"/>
</filter>
<filter id="filter4_d" x="254" y="83" width="169.828" height="169.828" filterUnits="userSpaceOnUse" color-interpolation-filters="sRGB">
<feFlood flood-opacity="0" result="BackgroundImageFix"/>
<feColorMatrix in="SourceAlpha" type="matrix" values="0 0 0 0 0 0 0 0 0 0 0 0 0 0 0 0 0 0 127 0"/>
<feOffset dy="32"/>
<feGaussianBlur stdDeviation="28"/>
<feColorMatrix type="matrix" values="0 0 0 0 0.616667 0 0 0 0 0.700303 0 0 0 0 1 0 0 0 0.32 0"/>
<feBlend mode="normal" in2="BackgroundImageFix" result="effect1_dropShadow"/>
<feBlend mode="normal" in="SourceGraphic" in2="effect1_dropShadow" result="shape"/>
</filter>
<filter id="filter5_b" x="-57.6559" y="345.344" width="127.493" height="127.493" filterUnits="userSpaceOnUse" color-interpolation-filters="sRGB">
<feFlood flood-opacity="0" result="BackgroundImageFix"/>
<feGaussianBlur in="BackgroundImage" stdDeviation="6"/>
<feComposite in2="SourceAlpha" operator="in" result="effect1_backgroundBlur"/>
<feBlend mode="normal" in="SourceGraphic" in2="effect1_backgroundBlur" result="shape"/>
</filter>
<radialGradient id="paint0_radial" cx="0" cy="0" r="1" gradientUnits="userSpaceOnUse" gradientTransform="translate(24.943 37.1598) rotate(53.3624) scale(976.214 1459.66)">
<stop stop-color="#C4C4C4"/>
<stop offset="1" stop-color="#C4C4C4" stop-opacity="0"/>
</radialGradient>
<linearGradient id="paint1_linear" x1="900.53" y1="546.676" x2="955.248" y2="564.599" gradientUnits="userSpaceOnUse">
<stop stop-color="#BBCCFF"/>
<stop offset="1" stop-color="#9DB3FF"/>
</linearGradient>
<linearGradient id="paint2_linear" x1="825.33" y1="168.81" x2="859.156" y2="179.89" gradientUnits="userSpaceOnUse">
<stop stop-color="#BBCCFF"/>
<stop offset="1" stop-color="#9DB3FF"/>
</linearGradient>
<linearGradient id="paint3_linear" x1="598.828" y1="343.661" x2="642.437" y2="357.945" gradientUnits="userSpaceOnUse">
<stop stop-color="#BBCCFF"/>
<stop offset="1" stop-color="#9DB3FF"/>
</linearGradient>
<linearGradient id="paint4_linear" x1="368.888" y1="487" x2="412.496" y2="501.284" gradientUnits="userSpaceOnUse">
<stop stop-color="#BBCCFF"/>
<stop offset="1" stop-color="#9DB3FF"/>
</linearGradient>
<linearGradient id="paint5_linear" x1="311.067" y1="153.69" x2="367.213" y2="172.081" gradientUnits="userSpaceOnUse">
<stop stop-color="#BBCCFF"/>
<stop offset="1" stop-color="#9DB3FF"/>
</linearGradient>
<linearGradient id="paint6_linear" x1="59.4809" y1="416.804" x2="146.027" y2="445.152" gradientUnits="userSpaceOnUse">
<stop stop-color="#BBCCFF"/>
<stop offset="1" stop-color="#9DB3FF"/>
</linearGradient>
<linearGradient id="paint7_linear" x1="687.111" y1="491.419" x2="692.96" y2="493.335" gradientUnits="userSpaceOnUse">
<stop stop-color="#BBCCFF"/>
<stop offset="1" stop-color="#9DB3FF"/>
</linearGradient>
<linearGradient id="paint8_linear" x1="488.111" y1="467.419" x2="493.96" y2="469.335" gradientUnits="userSpaceOnUse">
<stop stop-color="#BBCCFF"/>
<stop offset="1" stop-color="#9DB3FF"/>
</linearGradient>
<linearGradient id="paint9_linear" x1="222.111" y1="537.419" x2="227.96" y2="539.335" gradientUnits="userSpaceOnUse">
<stop stop-color="#BBCCFF"/>
<stop offset="1" stop-color="#9DB3FF"/>
</linearGradient>
<linearGradient id="paint10_linear" x1="738.143" y1="362.145" x2="745.671" y2="364.611" gradientUnits="userSpaceOnUse">
<stop stop-color="#BBCCFF"/>
<stop offset="1" stop-color="#9DB3FF"/>
</linearGradient>
<linearGradient id="paint11_linear" x1="55.143" y1="245.145" x2="62.6706" y2="247.611" gradientUnits="userSpaceOnUse">
<stop stop-color="#BBCCFF"/>
<stop offset="1" stop-color="#9DB3FF"/>
</linearGradient>
<linearGradient id="paint12_linear" x1="835.111" y1="453.374" x2="840.96" y2="455.29" gradientUnits="userSpaceOnUse">
<stop stop-color="#BBCCFF"/>
<stop offset="1" stop-color="#9DB3FF"/>
</linearGradient>
<linearGradient id="paint13_linear" x1="484.976" y1="242.541" x2="492.504" y2="245.007" gradientUnits="userSpaceOnUse">
<stop stop-color="#BBCCFF"/>
<stop offset="1" stop-color="#9DB3FF"/>
</linearGradient>
<linearGradient id="paint14_linear" x1="592.28" y1="161.583" x2="598.128" y2="163.498" gradientUnits="userSpaceOnUse">
<stop stop-color="#BBCCFF"/>
<stop offset="1" stop-color="#9DB3FF"/>
</linearGradient>
<linearGradient id="paint15_linear" x1="35.1385" y1="572.518" x2="40.987" y2="574.434" gradientUnits="userSpaceOnUse">
<stop stop-color="#BBCCFF"/>
<stop offset="1" stop-color="#9DB3FF"/>
</linearGradient>
<linearGradient id="paint16_linear" x1="89.2175" y1="469.508" x2="92.7267" y2="470.657" gradientUnits="userSpaceOnUse">
<stop stop-color="#BBCCFF"/>
<stop offset="1" stop-color="#9DB3FF"/>
</linearGradient>
<linearGradient id="paint17_linear" x1="0.111111" y1="1.04408e-08" x2="5.95969" y2="1.91572" gradientUnits="userSpaceOnUse">
<stop stop-color="#BBCCFF"/>
<stop offset="1" stop-color="#9DB3FF"/>
</linearGradient>
<linearGradient id="paint18_linear" x1="0.0666667" y1="6.26445e-09" x2="3.57581" y2="1.14943" gradientUnits="userSpaceOnUse">
<stop stop-color="#BBCCFF"/>
<stop offset="1" stop-color="#9DB3FF"/>
</linearGradient>
<linearGradient id="paint19_linear" x1="0.0666667" y1="6.26445e-09" x2="3.57581" y2="1.14943" gradientUnits="userSpaceOnUse">
<stop stop-color="#BBCCFF"/>
<stop offset="1" stop-color="#9DB3FF"/>
</linearGradient>
<linearGradient id="paint20_linear" x1="0.0666667" y1="6.26445e-09" x2="3.57581" y2="1.14943" gradientUnits="userSpaceOnUse">
<stop stop-color="#BBCCFF"/>
<stop offset="1" stop-color="#9DB3FF"/>
</linearGradient>
<linearGradient id="paint21_linear" x1="0.0666667" y1="6.26445e-09" x2="3.57581" y2="1.14943" gradientUnits="userSpaceOnUse">
<stop stop-color="#BBCCFF"/>
<stop offset="1" stop-color="#9DB3FF"/>
</linearGradient>
<linearGradient id="paint22_linear" x1="0.0666667" y1="6.26445e-09" x2="3.57581" y2="1.14943" gradientUnits="userSpaceOnUse">
<stop stop-color="#BBCCFF"/>
<stop offset="1" stop-color="#9DB3FF"/>
</linearGradient>
<linearGradient id="paint23_linear" x1="0.0666667" y1="6.26445e-09" x2="3.57581" y2="1.14943" gradientUnits="userSpaceOnUse">
<stop stop-color="#BBCCFF"/>
<stop offset="1" stop-color="#9DB3FF"/>
</linearGradient>
<linearGradient id="paint24_linear" x1="0.0666667" y1="6.26445e-09" x2="3.57581" y2="1.14943" gradientUnits="userSpaceOnUse">
<stop stop-color="#BBCCFF"/>
<stop offset="1" stop-color="#9DB3FF"/>
</linearGradient>
</defs>
</svg>
