<svg width="1440" height="903" viewBox="0 0 1440 903" fill="none" xmlns="http://www.w3.org/2000/svg">
<path d="M13.3515 1L13.3515 902.445" stroke="#E1E9FF" stroke-width="0.8" stroke-linecap="round" stroke-linejoin="round" stroke-dasharray="6 4"/>
<path d="M65.4204 1L65.4204 902.445" stroke="#E1E9FF" stroke-width="0.8" stroke-linecap="round" stroke-linejoin="round" stroke-dasharray="6 4"/>
<path d="M117.49 1L117.49 902.445" stroke="#E1E9FF" stroke-width="0.8" stroke-linecap="round" stroke-linejoin="round" stroke-dasharray="6 4"/>
<path d="M169.559 1L169.559 902.445" stroke="#E1E9FF" stroke-width="0.8" stroke-linecap="round" stroke-linejoin="round" stroke-dasharray="6 4"/>
<path d="M221.628 1L221.628 902.445" stroke="#E1E9FF" stroke-width="0.8" stroke-linecap="round" stroke-linejoin="round" stroke-dasharray="6 4"/>
<path d="M273.697 1V902.445" stroke="#E1E9FF" stroke-width="0.8" stroke-linecap="round" stroke-linejoin="round" stroke-dasharray="6 4"/>
<path d="M325.766 1V902.445" stroke="#E1E9FF" stroke-width="0.8" stroke-linecap="round" stroke-linejoin="round" stroke-dasharray="6 4"/>
<path d="M377.835 1V902.445" stroke="#E1E9FF" stroke-width="0.8" stroke-linecap="round" stroke-linejoin="round" stroke-dasharray="6 4"/>
<path d="M429.904 1V902.445" stroke="#E1E9FF" stroke-width="0.8" stroke-linecap="round" stroke-linejoin="round" stroke-dasharray="6 4"/>
<path d="M481.973 1V902.445" stroke="#E1E9FF" stroke-width="0.8" stroke-linecap="round" stroke-linejoin="round" stroke-dasharray="6 4"/>
<path d="M534.042 1V902.445" stroke="#E1E9FF" stroke-width="0.8" stroke-linecap="round" stroke-linejoin="round" stroke-dasharray="6 4"/>
<path d="M586.111 1V902.445" stroke="#E1E9FF" stroke-width="0.8" stroke-linecap="round" stroke-linejoin="round" stroke-dasharray="6 4"/>
<path d="M638.18 1V902.445" stroke="#E1E9FF" stroke-width="0.8" stroke-linecap="round" stroke-linejoin="round" stroke-dasharray="6 4"/>
<path d="M690.249 1V902.445" stroke="#E1E9FF" stroke-width="0.8" stroke-linecap="round" stroke-linejoin="round" stroke-dasharray="6 4"/>
<path d="M1591 61.2046L-151 61.2045" stroke="#E1E9FF" stroke-width="0.8" stroke-linecap="round" stroke-linejoin="round" stroke-dasharray="6 4"/>
<path d="M1591 113.273L-151 113.273" stroke="#E1E9FF" stroke-width="0.8" stroke-linecap="round" stroke-linejoin="round" stroke-dasharray="6 4"/>
<path d="M1591 165.343L-151 165.343" stroke="#E1E9FF" stroke-width="0.8" stroke-linecap="round" stroke-linejoin="round" stroke-dasharray="6 4"/>
<path d="M1591 217.412L-151 217.412" stroke="#E1E9FF" stroke-width="0.8" stroke-linecap="round" stroke-linejoin="round" stroke-dasharray="6 4"/>
<path d="M1591 269.48L-151 269.48" stroke="#E1E9FF" stroke-width="0.8" stroke-linecap="round" stroke-linejoin="round" stroke-dasharray="6 4"/>
<path d="M1591 321.55L-151 321.55" stroke="#E1E9FF" stroke-width="0.8" stroke-linecap="round" stroke-linejoin="round" stroke-dasharray="6 4"/>
<path d="M1591 373.619L-151 373.619" stroke="#E1E9FF" stroke-width="0.8" stroke-linecap="round" stroke-linejoin="round" stroke-dasharray="6 4"/>
<path d="M1591 425.688L-151 425.687" stroke="#E1E9FF" stroke-width="0.8" stroke-linecap="round" stroke-linejoin="round" stroke-dasharray="6 4"/>
<path d="M1591 477.757L-151 477.757" stroke="#E1E9FF" stroke-width="0.8" stroke-linecap="round" stroke-linejoin="round" stroke-dasharray="6 4"/>
<path d="M1591 529.825L-151 529.825" stroke="#E1E9FF" stroke-width="0.8" stroke-linecap="round" stroke-linejoin="round" stroke-dasharray="6 4"/>
<path d="M1591 581.895L-151 581.894" stroke="#E1E9FF" stroke-width="0.8" stroke-linecap="round" stroke-linejoin="round" stroke-dasharray="6 4"/>
<path d="M1591 633.964L-151 633.964" stroke="#E1E9FF" stroke-width="0.8" stroke-linecap="round" stroke-linejoin="round" stroke-dasharray="6 4"/>
<path d="M1591 686.033L-151 686.033" stroke="#E1E9FF" stroke-width="0.8" stroke-linecap="round" stroke-linejoin="round" stroke-dasharray="6 4"/>
<path d="M1591 738.102L-151 738.101" stroke="#E1E9FF" stroke-width="0.8" stroke-linecap="round" stroke-linejoin="round" stroke-dasharray="6 4"/>
<path d="M1591 790.171L-151 790.171" stroke="#E1E9FF" stroke-width="0.8" stroke-linecap="round" stroke-linejoin="round" stroke-dasharray="6 4"/>
<path d="M1591 842.24L-151 842.24" stroke="#E1E9FF" stroke-width="0.8" stroke-linecap="round" stroke-linejoin="round" stroke-dasharray="6 4"/>
<path d="M743 1V902.445" stroke="#E1E9FF" stroke-width="0.8" stroke-linecap="round" stroke-linejoin="round" stroke-dasharray="6 4"/>
<path d="M795.069 1V902.445" stroke="#E1E9FF" stroke-width="0.8" stroke-linecap="round" stroke-linejoin="round" stroke-dasharray="6 4"/>
<path d="M847.138 1V902.445" stroke="#E1E9FF" stroke-width="0.8" stroke-linecap="round" stroke-linejoin="round" stroke-dasharray="6 4"/>
<path d="M899.207 1V902.445" stroke="#E1E9FF" stroke-width="0.8" stroke-linecap="round" stroke-linejoin="round" stroke-dasharray="6 4"/>
<path d="M951.276 1V902.445" stroke="#E1E9FF" stroke-width="0.8" stroke-linecap="round" stroke-linejoin="round" stroke-dasharray="6 4"/>
<path d="M1003.34 1V902.445" stroke="#E1E9FF" stroke-width="0.8" stroke-linecap="round" stroke-linejoin="round" stroke-dasharray="6 4"/>
<path d="M1055.41 1V902.445" stroke="#E1E9FF" stroke-width="0.8" stroke-linecap="round" stroke-linejoin="round" stroke-dasharray="6 4"/>
<path d="M1107.48 1V902.445" stroke="#E1E9FF" stroke-width="0.8" stroke-linecap="round" stroke-linejoin="round" stroke-dasharray="6 4"/>
<path d="M1159.55 1V902.445" stroke="#E1E9FF" stroke-width="0.8" stroke-linecap="round" stroke-linejoin="round" stroke-dasharray="6 4"/>
<path d="M1211.62 1V902.445" stroke="#E1E9FF" stroke-width="0.8" stroke-linecap="round" stroke-linejoin="round" stroke-dasharray="6 4"/>
<path d="M1263.69 1V902.445" stroke="#E1E9FF" stroke-width="0.8" stroke-linecap="round" stroke-linejoin="round" stroke-dasharray="6 4"/>
<path d="M1315.76 1V902.445" stroke="#E1E9FF" stroke-width="0.8" stroke-linecap="round" stroke-linejoin="round" stroke-dasharray="6 4"/>
<path d="M1367.83 1V902.445" stroke="#E1E9FF" stroke-width="0.8" stroke-linecap="round" stroke-linejoin="round" stroke-dasharray="6 4"/>
<path d="M1419.9 1V902.445" stroke="#E1E9FF" stroke-width="0.8" stroke-linecap="round" stroke-linejoin="round" stroke-dasharray="6 4"/>
<rect y="1" width="1440" height="216" fill="url(#paint0_linear)"/>
<rect x="1440" y="902" width="1440" height="216" transform="rotate(-180 1440 902)" fill="url(#paint1_linear)"/>
<rect x="709.276" y="89.5835" width="6.43539" height="6.43539" rx="2" transform="rotate(-101.434 709.276 89.5835)" fill="url(#paint2_linear)" fill-opacity="0.56"/>
<rect width="5" height="5" rx="2" transform="matrix(0.608318 -0.793694 -0.793694 -0.608318 95.9685 133.01)" fill="url(#paint3_linear)"/>
<rect width="3" height="3" rx="1.5" transform="matrix(0.938836 0.344364 0.344364 -0.938836 188.064 166.67)" fill="url(#paint4_linear)"/>
<g filter="url(#filter0_d)">
<rect x="72.4868" y="332.54" width="48" height="48" rx="12" transform="rotate(-101.399 72.4868 332.54)" fill="url(#paint5_linear)"/>
</g>
<path fill-rule="evenodd" clip-rule="evenodd" d="M91.5771 294.448C90.7706 294.298 89.9245 294.298 89.0765 294.469C85.7867 295.132 83.5217 298.163 83.8176 301.506L84.0187 303.777L84.0234 303.832C84.1071 304.818 83.9808 305.81 83.6527 306.744L83.6346 306.795L83.2583 307.854L83.2426 307.898C83.0854 308.34 82.943 308.741 82.8613 309.073C82.7782 309.411 82.7072 309.86 82.8774 310.318C83.0457 310.772 83.3724 311.149 83.7971 311.38C84.2269 311.613 84.6814 311.607 85.0274 311.572C85.3678 311.539 85.7846 311.455 86.2448 311.362L86.2907 311.353L98.1869 308.954L98.2329 308.945C98.693 308.852 99.1099 308.768 99.4368 308.667C99.7689 308.565 100.191 308.395 100.496 308.013C100.798 307.635 100.953 307.161 100.933 306.678C100.912 306.189 100.673 305.803 100.465 305.524C100.261 305.249 99.9746 304.935 99.6583 304.588L99.6267 304.554L98.8697 303.724L98.8331 303.683C98.336 303.134 97.9303 302.511 97.6298 301.838C97.3461 301.953 97.0479 302.043 96.737 302.106C96.3606 302.181 95.9855 302.213 95.6173 302.204C96.015 303.242 96.6022 304.199 97.3504 305.026L97.3919 305.071L98.1489 305.901C98.5071 306.294 98.7235 306.533 98.86 306.717C98.8675 306.727 98.8744 306.736 98.8807 306.745C98.8703 306.749 98.8592 306.752 98.8472 306.756C98.6285 306.824 98.3127 306.888 97.7916 306.993L85.8954 309.392C85.3743 309.497 85.0581 309.56 84.8303 309.582C84.8178 309.583 84.8062 309.584 84.7953 309.585C84.7977 309.575 84.8004 309.563 84.8034 309.551C84.8581 309.329 84.9649 309.025 85.1429 308.524L85.5191 307.465L85.5397 307.407C85.9615 306.207 86.1239 304.93 86.0162 303.662L86.0109 303.601L85.8098 301.33C85.6037 299.002 87.181 296.891 89.4718 296.429C89.9257 296.338 90.3789 296.317 90.8193 296.359C90.9375 295.671 91.1987 295.021 91.5771 294.448ZM94.4106 295.717C93.9031 296.175 93.6434 296.881 93.7882 297.599C93.8169 297.742 93.86 297.877 93.9157 298.005C94.0781 298.202 94.2251 298.413 94.3544 298.638C94.8115 299.082 95.4724 299.3 96.1441 299.165C96.3321 299.127 96.5087 299.064 96.6709 298.979L96.6514 298.919C96.2314 297.605 95.4333 296.508 94.4106 295.717Z" fill="white"/>
<path d="M89.3319 310.397C89.6885 311.302 90.2249 312.056 90.8576 312.544C91.4904 313.031 92.1843 313.225 92.8317 313.094C93.4791 312.964 94.0438 312.516 94.4382 311.822C94.8326 311.127 95.0347 310.224 95.0131 309.252" stroke="white" stroke-width="2" stroke-linecap="round"/>
<circle cx="95.7487" cy="297.204" r="2.5" transform="rotate(-11.3991 95.7487 297.204)" fill="white" stroke="white"/>
<g filter="url(#filter1_d)">
<rect x="338.458" y="531.793" width="37.281" height="37.281" rx="8" transform="rotate(35.5312 338.458 531.793)" fill="url(#paint6_linear)"/>
</g>
<path fill-rule="evenodd" clip-rule="evenodd" d="M348.331 562.016C346.159 565.214 341.805 566.045 338.607 563.873C335.41 561.7 334.579 557.346 336.751 554.149C338.924 550.951 343.277 550.12 346.475 552.292C349.673 554.465 350.504 558.818 348.331 562.016ZM349.986 563.14C347.192 567.252 341.595 568.32 337.484 565.527C333.372 562.734 332.304 557.136 335.097 553.025C337.89 548.913 343.488 547.845 347.599 550.638C351.71 553.431 352.779 559.029 349.986 563.14ZM342.451 559.382C342.49 559.613 342.428 559.848 342.265 560.088C342.109 560.318 341.909 560.452 341.667 560.488C341.427 560.521 341.179 560.45 340.922 560.276C340.612 560.065 340.437 559.812 340.396 559.515C340.375 559.347 340.398 559.172 340.463 558.989C340.556 558.729 340.51 558.421 340.281 558.266L339.843 557.968C339.614 557.813 339.298 557.871 339.178 558.119C338.958 558.571 338.88 559.018 338.941 559.461C339.027 560.044 339.308 560.544 339.862 561.015L339.553 561.47C339.398 561.698 339.457 562.008 339.684 562.163L339.82 562.257C340.049 562.414 340.361 562.355 340.517 562.126L340.827 561.67C341.407 561.984 341.732 561.931 342.252 561.832C342.771 561.733 343.2 561.435 343.537 560.939C343.717 560.673 343.834 560.413 343.887 560.159C343.942 559.902 343.945 559.644 343.895 559.384C343.848 559.121 343.753 558.852 343.612 558.577C343.472 558.299 343.275 557.971 343.02 557.593C342.768 557.216 342.623 556.918 342.586 556.696C342.549 556.475 342.605 556.253 342.756 556.031C342.919 555.792 343.111 555.649 343.334 555.604C343.558 555.556 343.79 555.614 344.03 555.776C344.272 555.941 344.405 556.16 344.429 556.432C344.445 556.584 344.42 556.748 344.352 556.925C344.254 557.183 344.301 557.49 344.529 557.645L344.968 557.943C345.196 558.098 345.512 558.041 345.633 557.793C345.839 557.37 345.924 556.952 345.886 556.539C345.838 555.981 345.717 555.583 345.25 555.159L345.615 554.623C345.77 554.394 345.71 554.083 345.482 553.928L345.345 553.835C345.116 553.68 344.806 553.739 344.65 553.967L344.295 554.491C343.737 554.188 343.32 554.174 342.791 554.275C342.261 554.376 341.829 554.674 341.494 555.167C341.299 555.453 341.177 555.73 341.127 555.999C341.079 556.27 341.085 556.538 341.143 556.804C341.206 557.069 341.313 557.339 341.462 557.616C341.613 557.889 341.807 558.194 342.044 558.53C342.281 558.865 342.417 559.149 342.451 559.382Z" fill="white"/>
<g filter="url(#filter2_b)">
<rect x="369.795" y="153.147" width="73.9889" height="73.9889" rx="16" transform="rotate(-164.838 369.795 153.147)" fill="url(#paint7_linear)" fill-opacity="0.56"/>
</g>
<path d="M330.926 100.511L325.966 117.554C325.812 118.084 326.117 118.639 326.647 118.794L353.531 126.618C354.062 126.773 354.617 126.468 354.771 125.938L359.731 108.895M330.926 100.511L335.575 97.9585M330.926 100.511L333.872 103.809M359.731 108.895L357.178 104.246M359.731 108.895L355.476 110.097M335.575 97.9585L337.391 91.7175C337.546 91.1872 338.101 90.8824 338.631 91.0367L358.314 96.7655C358.844 96.9198 359.149 97.4748 358.995 98.0051L357.178 104.246M335.575 97.9585L333.872 103.809M357.178 104.246L355.476 110.097M333.872 103.809L336.818 107.108L342.293 113.238C342.547 113.523 342.942 113.638 343.31 113.534L355.476 110.097" stroke="white" stroke-width="3" stroke-linejoin="round"/>
<rect x="290.525" y="563.406" width="5" height="5" rx="2" transform="rotate(-37.2355 290.525 563.406)" fill="url(#paint8_linear)" fill-opacity="0.56"/>
<rect x="261.962" y="228" width="6.43539" height="6.43539" rx="2" transform="rotate(23.5797 261.962 228)" fill="url(#paint9_linear)" fill-opacity="0.56"/>
<rect x="106.134" y="516.6" width="5" height="5" rx="2" transform="rotate(91.5594 106.134 516.6)" fill="url(#paint10_linear)"/>
<rect x="198.568" y="445.912" width="3" height="3" rx="1.5" transform="rotate(18.8844 198.568 445.912)" fill="url(#paint11_linear)"/>
<g filter="url(#filter3_d)">
<rect x="1254.49" y="507.676" width="46.7785" height="46.7785" rx="12" transform="rotate(126.062 1254.49 507.676)" fill="url(#paint12_linear)"/>
</g>
<path fill-rule="evenodd" clip-rule="evenodd" d="M1226.95 520.575C1223.44 523.02 1218.58 522.678 1215.45 519.548C1213.85 517.946 1212.98 515.89 1212.84 513.794L1221.34 514.164L1226.95 520.575ZM1228.46 519.257L1223.18 513.229L1228.85 507.566C1231.59 510.997 1231.47 515.972 1228.46 519.257ZM1227.43 506.152C1223.9 503.321 1218.73 503.544 1215.45 506.82C1214.05 508.223 1213.2 509.975 1212.92 511.796L1221.42 512.166L1227.43 506.152ZM1229.59 520.962C1225.3 525.258 1218.33 525.258 1214.04 520.962C1209.74 516.666 1209.74 509.701 1214.04 505.406C1218.33 501.11 1225.3 501.11 1229.59 505.406C1233.89 509.701 1233.89 516.666 1229.59 520.962Z" fill="white"/>
<g filter="url(#filter4_d)">
<rect x="1364.69" y="145.81" width="28.9178" height="28.9178" rx="8" transform="rotate(120.649 1364.69 145.81)" fill="url(#paint13_linear)"/>
</g>
<path d="M1341.1 146.005L1337.63 152.376C1337.37 152.861 1337.55 153.468 1338.04 153.732L1344.41 157.193M1341.1 146.005L1348.34 149.944M1341.1 146.005L1345.78 144.618C1346.04 144.543 1346.31 144.572 1346.54 144.698L1353.43 148.439M1344.41 157.193L1348.34 149.944M1344.41 157.193L1349.09 155.806C1349.35 155.73 1349.56 155.557 1349.69 155.324L1353.43 148.439M1348.34 149.944L1353.43 148.439" stroke="white" stroke-width="1.5" stroke-linejoin="round"/>
<g filter="url(#filter5_b)">
<rect x="1071" y="236.661" width="37.281" height="37.281" rx="8" transform="rotate(-39.3957 1071 236.661)" fill="url(#paint14_linear)" fill-opacity="0.56"/>
</g>
<path fill-rule="evenodd" clip-rule="evenodd" d="M1088.89 240.411L1088.47 239.932L1099.07 230.777L1099.48 231.257C1099.47 231.277 1099.47 231.297 1099.46 231.318L1097.23 239.363L1088.95 240.401C1088.93 240.404 1088.91 240.407 1088.89 240.411ZM1090.46 242.228L1095.01 247.497L1105.6 238.343L1101.05 233.073L1098.98 240.539C1098.88 240.928 1098.55 241.214 1098.14 241.264L1090.46 242.228ZM1086.31 240.483C1085.95 240.065 1085.99 239.434 1086.41 239.072L1098.51 228.61C1098.93 228.249 1099.56 228.295 1099.93 228.713L1107.77 237.792C1108.13 238.209 1108.09 238.841 1107.67 239.202L1095.56 249.665C1095.15 250.026 1094.51 249.98 1094.15 249.562L1086.31 240.483Z" fill="white"/>
<rect x="1129.88" y="450.419" width="5" height="5" rx="2" transform="rotate(-62.1109 1129.88 450.419)" fill="url(#paint15_linear)"/>
<rect x="1205" y="269.146" width="6.43539" height="6.43539" rx="2" transform="rotate(-1.2957 1205 269.146)" fill="url(#paint16_linear)" fill-opacity="0.56"/>
<rect x="1361" y="360.374" width="5" height="5" rx="2" transform="rotate(-61.0244 1361 360.374)" fill="url(#paint17_linear)"/>
<rect x="1035.05" y="68.5825" width="5" height="5" rx="2" transform="rotate(-127.563 1035.05 68.5825)" fill="url(#paint18_linear)"/>
<rect width="3" height="3" rx="1.5" transform="matrix(-0.504244 0.863561 0.863561 0.504244 1122.39 129)" fill="url(#paint19_linear)" fill-opacity="0.56"/>
<defs>
<filter id="filter0_d" x="9.24716" y="254.247" width="164.046" height="164.046" filterUnits="userSpaceOnUse" color-interpolation-filters="sRGB">
<feFlood flood-opacity="0" result="BackgroundImageFix"/>
<feColorMatrix in="SourceAlpha" type="matrix" values="0 0 0 0 0 0 0 0 0 0 0 0 0 0 0 0 0 0 127 0"/>
<feOffset dy="32"/>
<feGaussianBlur stdDeviation="28"/>
<feColorMatrix type="matrix" values="0 0 0 0 0.616667 0 0 0 0 0.700303 0 0 0 0 1 0 0 0 0.32 0"/>
<feBlend mode="normal" in2="BackgroundImageFix" result="effect1_dropShadow"/>
<feBlend mode="normal" in="SourceGraphic" in2="effect1_dropShadow" result="shape"/>
</filter>
<filter id="filter1_d" x="260.793" y="507.793" width="164.005" height="164.005" filterUnits="userSpaceOnUse" color-interpolation-filters="sRGB">
<feFlood flood-opacity="0" result="BackgroundImageFix"/>
<feColorMatrix in="SourceAlpha" type="matrix" values="0 0 0 0 0 0 0 0 0 0 0 0 0 0 0 0 0 0 127 0"/>
<feOffset dy="32"/>
<feGaussianBlur stdDeviation="28"/>
<feColorMatrix type="matrix" values="0 0 0 0 0.616667 0 0 0 0 0.700303 0 0 0 0 1 0 0 0 0.32 0"/>
<feBlend mode="normal" in2="BackgroundImageFix" result="effect1_dropShadow"/>
<feBlend mode="normal" in="SourceGraphic" in2="effect1_dropShadow" result="shape"/>
</filter>
<filter id="filter2_b" x="286.382" y="50.3817" width="114.766" height="114.766" filterUnits="userSpaceOnUse" color-interpolation-filters="sRGB">
<feFlood flood-opacity="0" result="BackgroundImageFix"/>
<feGaussianBlur in="BackgroundImage" stdDeviation="6"/>
<feComposite in2="SourceAlpha" operator="in" result="effect1_backgroundBlur"/>
<feBlend mode="normal" in="SourceGraphic" in2="effect1_backgroundBlur" result="shape"/>
</filter>
<filter id="filter3_d" x="1133.14" y="456.139" width="177.351" height="177.351" filterUnits="userSpaceOnUse" color-interpolation-filters="sRGB">
<feFlood flood-opacity="0" result="BackgroundImageFix"/>
<feColorMatrix in="SourceAlpha" type="matrix" values="0 0 0 0 0 0 0 0 0 0 0 0 0 0 0 0 0 0 127 0"/>
<feOffset dy="32"/>
<feGaussianBlur stdDeviation="28"/>
<feColorMatrix type="matrix" values="0 0 0 0 0.616667 0 0 0 0 0.700303 0 0 0 0 1 0 0 0 0.32 0"/>
<feBlend mode="normal" in2="BackgroundImageFix" result="effect1_dropShadow"/>
<feBlend mode="normal" in="SourceGraphic" in2="effect1_dropShadow" result="shape"/>
</filter>
<filter id="filter4_d" x="1272.03" y="110.029" width="145.699" height="145.699" filterUnits="userSpaceOnUse" color-interpolation-filters="sRGB">
<feFlood flood-opacity="0" result="BackgroundImageFix"/>
<feColorMatrix in="SourceAlpha" type="matrix" values="0 0 0 0 0 0 0 0 0 0 0 0 0 0 0 0 0 0 127 0"/>
<feOffset dy="32"/>
<feGaussianBlur stdDeviation="28"/>
<feColorMatrix type="matrix" values="0 0 0 0 0.616667 0 0 0 0 0.700303 0 0 0 0 1 0 0 0 0.32 0"/>
<feBlend mode="normal" in2="BackgroundImageFix" result="effect1_dropShadow"/>
<feBlend mode="normal" in="SourceGraphic" in2="effect1_dropShadow" result="shape"/>
</filter>
<filter id="filter5_b" x="1059" y="201" width="76.4713" height="76.4713" filterUnits="userSpaceOnUse" color-interpolation-filters="sRGB">
<feFlood flood-opacity="0" result="BackgroundImageFix"/>
<feGaussianBlur in="BackgroundImage" stdDeviation="6"/>
<feComposite in2="SourceAlpha" operator="in" result="effect1_backgroundBlur"/>
<feBlend mode="normal" in="SourceGraphic" in2="effect1_backgroundBlur" result="shape"/>
</filter>
<linearGradient id="paint0_linear" x1="720" y1="1" x2="720" y2="217" gradientUnits="userSpaceOnUse">
<stop stop-color="#FAFBFF"/>
<stop offset="1" stop-color="#FAFBFF" stop-opacity="0"/>
</linearGradient>
<linearGradient id="paint1_linear" x1="2160" y1="902" x2="2160" y2="1118" gradientUnits="userSpaceOnUse">
<stop stop-color="#FAFBFF"/>
<stop offset="1" stop-color="#FAFBFF" stop-opacity="0"/>
</linearGradient>
<linearGradient id="paint2_linear" x1="709.419" y1="89.5835" x2="716.946" y2="92.0492" gradientUnits="userSpaceOnUse">
<stop stop-color="#BBCCFF"/>
<stop offset="1" stop-color="#9DB3FF"/>
</linearGradient>
<linearGradient id="paint3_linear" x1="0.111111" y1="1.04408e-08" x2="5.95969" y2="1.91572" gradientUnits="userSpaceOnUse">
<stop stop-color="#BBCCFF"/>
<stop offset="1" stop-color="#9DB3FF"/>
</linearGradient>
<linearGradient id="paint4_linear" x1="0.0666667" y1="6.26445e-09" x2="3.57581" y2="1.14943" gradientUnits="userSpaceOnUse">
<stop stop-color="#BBCCFF"/>
<stop offset="1" stop-color="#9DB3FF"/>
</linearGradient>
<linearGradient id="paint5_linear" x1="73.5535" y1="332.54" x2="129.7" y2="350.931" gradientUnits="userSpaceOnUse">
<stop stop-color="#BBCCFF"/>
<stop offset="1" stop-color="#9DB3FF"/>
</linearGradient>
<linearGradient id="paint6_linear" x1="339.287" y1="531.793" x2="382.895" y2="546.077" gradientUnits="userSpaceOnUse">
<stop stop-color="#BBCCFF"/>
<stop offset="1" stop-color="#9DB3FF"/>
</linearGradient>
<linearGradient id="paint7_linear" x1="371.439" y1="153.147" x2="457.985" y2="181.496" gradientUnits="userSpaceOnUse">
<stop stop-color="#BBCCFF"/>
<stop offset="1" stop-color="#9DB3FF"/>
</linearGradient>
<linearGradient id="paint8_linear" x1="290.636" y1="563.406" x2="296.485" y2="565.321" gradientUnits="userSpaceOnUse">
<stop stop-color="#BBCCFF"/>
<stop offset="1" stop-color="#9DB3FF"/>
</linearGradient>
<linearGradient id="paint9_linear" x1="262.105" y1="228" x2="269.632" y2="230.466" gradientUnits="userSpaceOnUse">
<stop stop-color="#BBCCFF"/>
<stop offset="1" stop-color="#9DB3FF"/>
</linearGradient>
<linearGradient id="paint10_linear" x1="106.245" y1="516.6" x2="112.094" y2="518.515" gradientUnits="userSpaceOnUse">
<stop stop-color="#BBCCFF"/>
<stop offset="1" stop-color="#9DB3FF"/>
</linearGradient>
<linearGradient id="paint11_linear" x1="198.635" y1="445.912" x2="202.144" y2="447.061" gradientUnits="userSpaceOnUse">
<stop stop-color="#BBCCFF"/>
<stop offset="1" stop-color="#9DB3FF"/>
</linearGradient>
<linearGradient id="paint12_linear" x1="1255.53" y1="507.676" x2="1310.25" y2="525.599" gradientUnits="userSpaceOnUse">
<stop stop-color="#BBCCFF"/>
<stop offset="1" stop-color="#9DB3FF"/>
</linearGradient>
<linearGradient id="paint13_linear" x1="1365.33" y1="145.81" x2="1399.16" y2="156.89" gradientUnits="userSpaceOnUse">
<stop stop-color="#BBCCFF"/>
<stop offset="1" stop-color="#9DB3FF"/>
</linearGradient>
<linearGradient id="paint14_linear" x1="1071.83" y1="236.661" x2="1115.44" y2="250.945" gradientUnits="userSpaceOnUse">
<stop stop-color="#BBCCFF"/>
<stop offset="1" stop-color="#9DB3FF"/>
</linearGradient>
<linearGradient id="paint15_linear" x1="1129.99" y1="450.419" x2="1135.84" y2="452.335" gradientUnits="userSpaceOnUse">
<stop stop-color="#BBCCFF"/>
<stop offset="1" stop-color="#9DB3FF"/>
</linearGradient>
<linearGradient id="paint16_linear" x1="1205.14" y1="269.145" x2="1212.67" y2="271.611" gradientUnits="userSpaceOnUse">
<stop stop-color="#BBCCFF"/>
<stop offset="1" stop-color="#9DB3FF"/>
</linearGradient>
<linearGradient id="paint17_linear" x1="1361.11" y1="360.374" x2="1366.96" y2="362.29" gradientUnits="userSpaceOnUse">
<stop stop-color="#BBCCFF"/>
<stop offset="1" stop-color="#9DB3FF"/>
</linearGradient>
<linearGradient id="paint18_linear" x1="1035.16" y1="68.5825" x2="1041.01" y2="70.4982" gradientUnits="userSpaceOnUse">
<stop stop-color="#BBCCFF"/>
<stop offset="1" stop-color="#9DB3FF"/>
</linearGradient>
<linearGradient id="paint19_linear" x1="0.0666667" y1="6.26445e-09" x2="3.57581" y2="1.14943" gradientUnits="userSpaceOnUse">
<stop stop-color="#BBCCFF"/>
<stop offset="1" stop-color="#9DB3FF"/>
</linearGradient>
</defs>
</svg>
