<svg width="40" height="40" viewBox="0 0 40 40" fill="none" xmlns="http://www.w3.org/2000/svg">
<path d="M33.379 21.4482C32.2454 18.806 30.716 17.5623 29.1569 17.1547C26.595 16.4822 23.9529 18.0562 22.8668 19.3684C21.9682 20.4544 20.8584 21.6119 19.7902 21.9481C19.1267 22.1564 18.481 22.0433 17.9127 21.3976C16.431 19.7106 18.6536 18.3924 18.6536 18.3924C24.5331 15.4408 24.0034 10.9092 24.0034 10.9092C23.9856 9.05852 23.691 7.52023 23.212 6.24377C22.8133 5.18154 22.2836 4.29784 21.6796 3.56886C21.6469 3.53018 21.6171 3.49447 21.5844 3.45579C18.9095 0.32862 14.8302 0.0221504 13.7055 0.00132241C13.5151 -0.00165302 13.4079 0.00132241 13.4079 0.00132241C23.5512 11.9387 2.97311 13.4949 6.44246 23.9029C8.81685 31.0261 15.5562 29.9966 19.0464 28.9106C19.1535 28.8778 19.2576 28.8421 19.3618 28.8094C19.5373 28.7529 19.7039 28.6934 19.8587 28.6398C20.5609 28.3869 21.2363 28.0626 21.8701 27.6698C26.1993 24.9979 28.9129 24.5308 30.6119 25.0009C30.7011 25.0247 30.7844 25.0515 30.8677 25.0812C31.6681 25.3639 32.2216 25.8637 32.6054 26.4261C32.8583 26.7355 32.9952 27.0063 33.0398 27.2384C33.4712 28.2857 33.4623 29.2795 33.4623 29.2795C33.7569 28.2976 33.9146 27.3663 33.986 26.5124C34.23 23.5072 33.379 21.4482 33.379 21.4482Z" fill="url(#paint0_linear)"/>
<path d="M33.0576 30.7286C31.0551 35.9296 26.1159 39.6816 20.2573 39.9821C22.9679 39.4614 25.2679 37.7714 27.2793 35.0519C29.8888 31.526 31.8377 30.7405 32.9862 30.678C33.013 30.6958 33.0368 30.7107 33.0576 30.7286Z" fill="url(#paint1_linear)"/>
<path d="M22.4412 33.1774C18.8915 38.0273 13.012 36.2867 13.012 36.2867C10.233 35.7184 8.39714 34.427 7.19507 32.8679C8.09365 33.7963 9.2987 34.433 10.9084 34.558C16.7819 35.0221 19.1622 32.2401 22.3995 33.0911C22.4322 33.1446 22.4412 33.1774 22.4412 33.1774Z" fill="url(#paint2_linear)"/>
<path d="M33.3792 21.4482C32.2455 18.806 30.7161 17.5623 29.157 17.1547C26.5952 16.4822 23.953 18.0562 22.867 19.3684C21.9684 20.4544 20.8586 21.6119 19.7904 21.9481C19.1269 22.1564 18.4812 22.0433 17.9129 21.3976C16.4311 19.7106 18.6538 18.3925 18.6538 18.3925C24.5332 15.4408 24.0036 10.9093 24.0036 10.9093C23.9857 9.05854 23.6912 7.52025 23.2121 6.24379C22.8134 5.18156 22.2838 4.29786 21.6798 3.56888C21.647 3.5302 21.6173 3.49449 21.5846 3.45581C18.9096 0.32864 14.8303 0.0221708 13.7056 0.00134277C19.0673 2.92024 21.775 10.4778 17.2583 15.3754C16.3002 16.4138 15.1071 17.2082 14.1281 18.2258C12.4976 19.9218 12.1019 22.1921 12.9915 24.3731C13.4468 25.4889 14.2918 26.4648 15.3897 26.9587C20.442 29.2349 25.7859 22.9895 30.8679 25.0812C31.6683 25.3639 32.2217 25.8638 32.6055 26.4261C32.7841 26.6909 32.9269 26.9647 33.04 27.2384C33.4714 28.2858 33.4625 29.2795 33.4625 29.2795C33.757 28.2977 33.9147 27.3663 33.9861 26.5124C34.2301 23.5072 33.3792 21.4482 33.3792 21.4482Z" fill="url(#paint3_linear)"/>
<path d="M22.3997 33.091C19.1624 32.24 16.782 35.0221 10.9086 34.5579C9.29885 34.4299 8.0938 33.7932 7.19522 32.8678C4.15434 28.9314 5.1511 23.3108 5.17491 23.4268C5.96935 27.274 9.09355 31.755 15.5562 31.7015C21.0964 31.6539 22.1973 32.7726 22.3997 33.091Z" fill="url(#paint4_linear)"/>
<path d="M32.9893 30.678C31.8407 30.7375 29.8889 31.523 27.2824 35.0519C25.271 37.7714 22.971 39.4615 20.2604 39.9822C20.0104 39.9941 19.7575 40 19.5046 40C16.2763 40 13.2949 38.9497 10.8818 37.1764C17.1064 39.3514 20.8703 36.9978 25.6221 33.1744C30.2251 29.47 32.3168 30.2049 32.9893 30.678Z" fill="url(#paint5_linear)"/>
<defs>
<linearGradient id="paint0_linear" x1="22.4255" y1="27.8529" x2="9.72705" y2="2.20466" gradientUnits="userSpaceOnUse">
<stop offset="0.00446948" stop-color="#6943E6"/>
<stop offset="0.0784316" stop-color="#635BE9"/>
<stop offset="0.2165" stop-color="#5A83ED"/>
<stop offset="0.3593" stop-color="#52A4F1"/>
<stop offset="0.5058" stop-color="#4DBDF3"/>
<stop offset="0.6574" stop-color="#48CFF5"/>
<stop offset="0.8174" stop-color="#46DAF7"/>
<stop offset="1" stop-color="#45DDF7"/>
</linearGradient>
<linearGradient id="paint1_linear" x1="35.7271" y1="29.4281" x2="19.4141" y2="42.158" gradientUnits="userSpaceOnUse">
<stop offset="0.00446948" stop-color="#6943E6"/>
<stop offset="0.0521292" stop-color="#674DE7"/>
<stop offset="0.381" stop-color="#588AEE"/>
<stop offset="0.6599" stop-color="#4EB7F3"/>
<stop offset="0.8749" stop-color="#47D3F6"/>
<stop offset="1" stop-color="#45DDF7"/>
</linearGradient>
<linearGradient id="paint2_linear" x1="7.19479" y1="34.7284" x2="22.4417" y2="34.7284" gradientUnits="userSpaceOnUse">
<stop offset="0.00446962" stop-color="#F6E047"/>
<stop offset="0.0464795" stop-color="#F3CD51"/>
<stop offset="0.1484" stop-color="#ECA468"/>
<stop offset="0.2567" stop-color="#E7827B"/>
<stop offset="0.371" stop-color="#E2658A"/>
<stop offset="0.493" stop-color="#DE4F96"/>
<stop offset="0.6265" stop-color="#DC409E"/>
<stop offset="0.7802" stop-color="#DA37A3"/>
<stop offset="1" stop-color="#DA34A5"/>
</linearGradient>
<linearGradient id="paint3_linear" x1="26.1271" y1="29.634" x2="13.3659" y2="0.465405" gradientUnits="userSpaceOnUse">
<stop offset="0.00446948" stop-color="#6943E6"/>
<stop offset="0.0784316" stop-color="#635BE9"/>
<stop offset="0.2165" stop-color="#5A83ED"/>
<stop offset="0.3593" stop-color="#52A4F1"/>
<stop offset="0.5058" stop-color="#4DBDF3"/>
<stop offset="0.6574" stop-color="#48CFF5"/>
<stop offset="0.8174" stop-color="#46DAF7"/>
<stop offset="1" stop-color="#45DDF7"/>
</linearGradient>
<linearGradient id="paint4_linear" x1="21.4595" y1="35.1239" x2="2.41186" y2="26.7002" gradientUnits="userSpaceOnUse">
<stop stop-color="#DA34A5"/>
<stop offset="0.2019" stop-color="#DA37A3"/>
<stop offset="0.3551" stop-color="#DC419E"/>
<stop offset="0.4924" stop-color="#DF5195"/>
<stop offset="0.6202" stop-color="#E26889"/>
<stop offset="0.7417" stop-color="#E78678"/>
<stop offset="0.8582" stop-color="#EDAA64"/>
<stop offset="0.9687" stop-color="#F4D54D"/>
<stop offset="0.9955" stop-color="#F6E047"/>
</linearGradient>
<linearGradient id="paint5_linear" x1="34.3038" y1="27.9167" x2="14.5018" y2="39.515" gradientUnits="userSpaceOnUse">
<stop offset="0.0536899" stop-color="#6943E6"/>
<stop offset="0.3239" stop-color="#5D77EC"/>
<stop offset="0.6379" stop-color="#50AEF2"/>
<stop offset="0.8728" stop-color="#48D0F6"/>
<stop offset="1" stop-color="#45DDF7"/>
</linearGradient>
</defs>
</svg>
