<svg width="104" height="28" viewBox="0 0 104 28" fill="none" xmlns="http://www.w3.org/2000/svg">
<path fill-rule="evenodd" clip-rule="evenodd" d="M0.414138 2.6586C0.151154 2.94125 0 3.37628 0 3.94157V24.0488C0 24.6141 0.151154 25.0491 0.423969 25.3219L0.495245 25.3821L11.7618 14.1156V13.8625L0.485414 2.59839L0.414138 2.6586Z" fill="url(#paint0_linear)"/>
<path fill-rule="evenodd" clip-rule="evenodd" d="M15.5101 17.8859L11.7521 14.1267V13.8637L15.5113 10.1045L15.5924 10.1549L20.0386 12.6815C21.3117 13.3992 21.3117 14.5814 20.0386 15.3089L15.5924 17.8355C15.5912 17.8355 15.5101 17.8859 15.5101 17.8859Z" fill="url(#paint1_linear)"/>
<path fill-rule="evenodd" clip-rule="evenodd" d="M15.5911 17.8352L11.752 13.9949L0.414215 25.3327C0.828353 25.7775 1.52514 25.8279 2.30426 25.3929L15.5911 17.8352Z" fill="url(#paint2_linear)"/>
<path fill-rule="evenodd" clip-rule="evenodd" d="M15.5911 10.1559L2.30426 2.60804C1.52637 2.16318 0.828353 2.22339 0.414215 2.66826L11.7508 13.995L15.5911 10.1559Z" fill="url(#paint3_linear)"/>
<path opacity="0.2" fill-rule="evenodd" clip-rule="evenodd" d="M15.5099 17.7544L2.31402 25.2519C1.57669 25.6759 0.919226 25.6464 0.495257 25.2617L0.423981 25.333L0.495257 25.3932C0.919226 25.7766 1.57669 25.8074 2.31402 25.3834L15.6009 17.8355L15.5099 17.7544Z" fill="black"/>
<path opacity="0.12" fill-rule="evenodd" clip-rule="evenodd" d="M20.0372 15.1771L15.5001 17.7541L15.5812 17.8352L20.0274 15.3086C20.6639 14.9448 20.9773 14.4705 20.9773 13.9949C20.9368 14.4299 20.6136 14.844 20.0372 15.1771Z" fill="black"/>
<path opacity="0.25" fill-rule="evenodd" clip-rule="evenodd" d="M2.30418 2.73965L20.0372 12.8141C20.6135 13.1373 20.9367 13.5613 20.9871 13.9963C20.9871 13.522 20.6737 13.0464 20.0372 12.6826L2.30418 2.60816C1.03104 1.88065 0 2.4865 0 3.94151V4.073C0 2.61799 1.03104 2.02197 2.30418 2.73965Z" fill="white"/>
<path d="M33.9804 6.20728H32.9729L32.4204 4.47675H30.503L29.9749 6.20728H29L30.893 0.308838H32.063L33.9804 6.20728ZM32.2498 3.74553L31.7542 2.20186C31.7055 2.0475 31.608 1.67377 31.4536 1.0888H31.4374C31.3724 1.34066 31.2911 1.70627 31.153 2.20186L30.6655 3.74553H32.2498Z" fill="white"/>
<path d="M38.7252 1.94995L37.1165 6.20723H36.1984L34.6385 1.94995H35.6541L36.3771 4.20046C36.499 4.57419 36.6046 4.93167 36.6859 5.2729H36.7103C36.7834 4.96417 36.889 4.60669 37.019 4.20046L37.734 1.94995H38.7252Z" fill="white"/>
<path d="M42.154 6.20711L42.0809 5.71963H42.0565C41.764 6.10961 41.3496 6.3046 40.8134 6.3046C40.0497 6.3046 39.5135 5.76838 39.5135 5.05342C39.5135 4.00535 40.4234 3.461 41.9996 3.461V3.37976C41.9996 2.81916 41.699 2.54292 41.114 2.54292C40.6916 2.54292 40.3259 2.64854 40.001 2.85978L39.806 2.24231C40.196 1.99858 40.6916 1.87671 41.2684 1.87671C42.3815 1.87671 42.9421 2.46168 42.9421 3.63974V5.20778C42.9421 5.63839 42.9583 5.97149 43.0071 6.22336L42.154 6.20711ZM42.024 4.08659C40.9759 4.08659 40.4478 4.33845 40.4478 4.9478C40.4478 5.39465 40.7159 5.61401 41.0978 5.61401C41.5771 5.61401 42.024 5.24841 42.024 4.74468V4.08659Z" fill="white"/>
<path d="M45.0463 1.25114C44.7295 1.25114 44.4857 1.00741 44.4857 0.682422C44.4857 0.357439 44.7376 0.121826 45.0626 0.121826C45.3875 0.121826 45.6475 0.357439 45.6394 0.682422C45.6394 1.02365 45.3957 1.25114 45.0463 1.25114ZM44.5913 1.94986H45.5338V6.19901H44.5913V1.94986Z" fill="white"/>
<path d="M47.2156 0H48.1581V6.19905H47.2156V0Z" fill="white"/>
<path d="M52.1711 6.20718L52.098 5.7197H52.0736C51.7812 6.10968 51.3668 6.30467 50.8306 6.30467C50.0669 6.30467 49.5306 5.76845 49.5306 5.05349C49.5306 4.00542 50.4406 3.46107 52.0168 3.46107V3.37982C52.0168 2.81923 51.7162 2.54299 51.1312 2.54299C50.7087 2.54299 50.3431 2.64861 50.0181 2.85985L49.8231 2.23426C50.2131 1.99052 50.7087 1.86865 51.2856 1.86865C52.3986 1.86865 52.9592 2.45362 52.9592 3.63169V5.19973C52.9592 5.63033 52.9755 5.96344 53.0161 6.2153H52.1711V6.20718ZM52.0411 4.08666C50.9931 4.08666 50.465 4.33852 50.465 4.94787C50.465 5.39472 50.7331 5.61408 51.1149 5.61408C51.5943 5.61408 52.0411 5.24848 52.0411 4.74475V4.08666Z" fill="white"/>
<path d="M56.7942 6.30467C56.193 6.30467 55.7461 6.05281 55.4536 5.54909H55.4374L55.3805 6.20718H54.5762C54.6005 5.86594 54.6087 5.48409 54.6087 5.06161V0H55.5592V2.57549H55.5755C55.8599 2.10426 56.3067 1.86865 56.9323 1.86865C57.956 1.86865 58.6709 2.74611 58.6709 4.02166C58.6709 5.33785 57.8747 6.30467 56.7942 6.30467ZM56.5992 2.60799C56.0548 2.60799 55.5592 3.07921 55.5592 3.7373V4.48477C55.5592 5.06974 56.0061 5.54909 56.5829 5.54909C57.2898 5.54909 57.7123 4.97224 57.7123 4.05416C57.7123 3.19296 57.2735 2.60799 56.5992 2.60799Z" fill="white"/>
<path d="M60.0687 0H61.0112V6.19905H60.0687V0Z" fill="white"/>
<path d="M66.1538 4.30567H63.3183C63.3346 5.11001 63.8708 5.56498 64.6589 5.56498C65.0814 5.56498 65.4632 5.49186 65.8045 5.36187L65.9507 6.01996C65.5526 6.1987 65.0814 6.27994 64.5289 6.27994C63.1965 6.27994 62.4084 5.44311 62.4084 4.13506C62.4084 2.83512 63.2127 1.85205 64.4233 1.85205C65.5038 1.85205 66.1944 2.65638 66.1944 3.87507C66.1944 4.04569 66.1863 4.19193 66.1538 4.30567ZM65.2926 3.63133C65.2926 2.97324 64.9595 2.51014 64.3583 2.51014C63.8139 2.51014 63.3915 2.98137 63.3265 3.63133H65.2926Z" fill="white"/>
<path d="M71.8814 6.30467C70.6383 6.30467 69.834 5.37847 69.834 4.11916C69.834 2.80298 70.6546 1.86865 71.9545 1.86865C73.1813 1.86865 74.0019 2.75423 74.0019 4.04604C74.0019 5.37035 73.1569 6.30467 71.8814 6.30467ZM71.922 2.55924C71.2395 2.55924 70.8008 3.20108 70.8008 4.08666C70.8008 4.96412 71.2477 5.59783 71.9139 5.59783C72.5801 5.59783 73.0269 4.91537 73.0269 4.06229C73.0188 3.20108 72.5882 2.55924 71.922 2.55924Z" fill="white"/>
<path d="M79.0798 6.207H78.1374V3.7615C78.1374 3.00592 77.8449 2.63219 77.2762 2.63219C76.7156 2.63219 76.3337 3.11154 76.3337 3.67213V6.19888H75.3913V3.16841C75.3913 2.79468 75.3831 2.38845 75.3588 1.94972H76.1875L76.2281 2.60781H76.2525C76.5043 2.15284 77.0243 1.86035 77.6011 1.86035C78.4948 1.86035 79.0798 2.54282 79.0798 3.65588V6.207Z" fill="white"/>
<path d="M85.2626 2.66471H84.2227V4.72836C84.2227 5.25645 84.4096 5.51644 84.7752 5.51644C84.9376 5.51644 85.0839 5.50019 85.1976 5.47582L85.222 6.19078C85.0351 6.2639 84.7914 6.2964 84.4908 6.2964C83.7433 6.2964 83.3046 5.88205 83.3046 4.8096V2.66471H82.6871V1.95787H83.3046V1.17791L84.2308 0.893555V1.94975H85.2708V2.66471" fill="white"/>
<path d="M90.2675 6.20718H89.325V3.77793C89.325 3.01422 89.0325 2.63236 88.4638 2.63236C87.9763 2.63236 87.5214 2.96547 87.5214 3.63981V6.19905H86.5789V0H87.5214V2.55112H87.5376C87.8382 2.08802 88.2607 1.86053 88.8132 1.86053C89.715 1.86053 90.2675 2.55924 90.2675 3.67231V6.20718Z" fill="white"/>
<path d="M95.0933 4.30567H92.2578C92.274 5.11001 92.8103 5.56498 93.5984 5.56498C94.0208 5.56498 94.4027 5.49186 94.7439 5.36187L94.8902 6.01996C94.4921 6.1987 94.0208 6.27994 93.4684 6.27994C92.1359 6.27994 91.3478 5.44311 91.3478 4.13506C91.3478 2.83512 92.1522 1.85205 93.3628 1.85205C94.4433 1.85205 95.1339 2.65638 95.1339 3.87507C95.1339 4.04569 95.1258 4.19193 95.0933 4.30567ZM94.2321 3.63133C94.2321 2.97324 93.899 2.51014 93.2978 2.51014C92.7534 2.51014 92.3228 2.98137 92.2659 3.63133H94.2321Z" fill="white"/>
<path fill-rule="evenodd" clip-rule="evenodd" d="M28.9961 18.1481C28.9961 14.9272 31.7034 12.3047 34.9243 12.3047C36.705 12.3047 37.972 13.0039 38.9281 13.9145L37.8024 15.0402C37.1191 14.3987 36.1925 13.901 34.9231 13.901C32.571 13.901 30.7325 15.7948 30.7325 18.1469C30.7325 20.499 32.571 22.3952 34.9218 22.3952C36.4469 22.3952 37.3145 21.7832 37.8712 21.2252C38.3271 20.7693 38.6257 20.1143 38.7413 19.216H34.9243V17.6234H40.297C40.3536 17.9085 40.3831 18.2501 40.3831 18.62C40.3831 19.8157 40.055 21.299 38.9993 22.3546C37.972 23.4237 36.662 23.9939 34.9231 23.9939C31.7009 23.9939 28.9937 21.3739 28.9937 18.1505L28.9961 18.1481ZM44.726 16.467C42.6455 16.467 40.9471 18.0498 40.9471 20.2286C40.9471 22.3964 42.6442 23.9903 44.726 23.9903C46.8077 23.9903 48.5024 22.3939 48.5024 20.2274C48.5024 18.0485 46.8065 16.4657 44.726 16.467ZM44.726 22.5107C43.5868 22.5107 42.6025 21.5706 42.6025 20.2298C42.6025 18.8756 43.5856 17.949 44.726 17.949C45.8652 17.949 46.8483 18.8744 46.8483 20.2298C46.8483 21.5693 45.8664 22.5107 44.726 22.5107ZM52.9657 16.467C50.8852 16.467 49.1893 18.0498 49.1893 20.2286C49.1893 22.3964 50.8852 23.9903 52.9657 23.9903C55.0463 23.9903 56.7421 22.3939 56.7421 20.2274C56.7421 18.0485 55.0475 16.4657 52.9657 16.467ZM52.9657 22.5107C51.8266 22.5107 50.8422 21.5706 50.8422 20.2298C50.8422 18.8756 51.8253 17.949 52.9657 17.949C54.1049 17.949 55.0893 18.8744 55.0893 20.2298C55.0893 21.5693 54.1049 22.5107 52.9657 22.5107ZM63.0783 16.6955V17.3075H63.0218C62.6519 16.8639 61.9391 16.4657 61.042 16.4657C59.1606 16.4657 57.434 18.1198 57.434 20.2446C57.434 22.3521 59.1594 23.9927 61.042 23.9927C61.9391 23.9927 62.6519 23.5946 63.0218 23.1386H63.0783V23.6794C63.0783 25.1184 62.309 25.8889 61.0691 25.8889C60.0565 25.8889 59.4297 25.1614 59.1729 24.5506L57.7326 25.1491C58.1455 26.1457 59.2442 27.3722 61.0679 27.3722C63.0046 27.3722 64.6439 26.2305 64.6439 23.452V16.6943L63.0783 16.6955ZM61.1834 22.5107C60.0442 22.5107 59.0869 21.5546 59.0869 20.2446C59.0869 18.9198 60.043 17.9502 61.1834 17.9502C62.309 17.9502 63.1926 18.9186 63.1926 20.2446C63.1938 21.5546 62.3103 22.5107 61.1834 22.5107ZM65.7856 12.7041H67.4397V23.7641H65.7856V12.7041ZM71.9731 22.5107C71.1325 22.5107 70.5328 22.1248 70.1506 21.3715L75.1817 19.2885L75.0085 18.8608C74.6963 18.0215 73.7402 16.467 71.7875 16.467C69.8495 16.467 68.2385 17.992 68.2385 20.2298C68.2385 22.3374 69.8348 23.9915 71.9731 23.9915C73.6985 23.9915 74.6963 22.9383 75.1092 22.3239L73.8263 21.4698C73.3974 22.0978 72.8124 22.5119 71.9731 22.5107ZM71.8441 17.9207C72.4991 17.9207 73.0545 18.2489 73.2401 18.7183L69.8754 20.1156C69.8336 18.6618 71.0023 17.9207 71.8441 17.9207Z" fill="white"/>
<path fill-rule="evenodd" clip-rule="evenodd" d="M82.4393 12.7043H78.4847V23.7644H80.1351V19.5751H82.4405C84.2703 19.5751 86.0694 18.2504 86.0694 16.1391C86.0694 14.0316 84.2716 12.7056 82.443 12.7056L82.4393 12.7043ZM82.4823 18.0353H80.1351V14.2429H82.4823C83.7161 14.2429 84.419 15.2666 84.419 16.1391C84.419 16.9969 83.7161 18.0353 82.4823 18.0353ZM88.6292 23.7644V12.7043H86.9788V23.7644H88.6292ZM96.0432 23.7448V19.5051C96.0432 17.5413 94.5759 16.4463 92.6821 16.4463C91.4889 16.4463 90.2514 16.9735 89.7389 18.1398L91.2038 18.7505C91.5171 18.1398 92.0996 17.9394 92.7128 17.9394C93.5657 17.9394 94.4333 18.4519 94.4468 19.3637V19.478C94.1482 19.3072 93.5092 19.0504 92.7251 19.0504C91.146 19.0504 89.5386 19.918 89.5386 21.5401C89.5386 23.0209 90.8339 23.9733 92.2852 23.9733C93.3961 23.9733 94.0069 23.4756 94.3903 22.8931H94.4468V23.7472H96.0419L96.0432 23.7448ZM92.4855 22.5085C91.9448 22.5085 91.1902 22.2381 91.1902 21.5708C91.1902 20.7168 92.1304 20.3874 92.9414 20.3874C93.6677 20.3874 94.0081 20.5435 94.4505 20.7573C94.3239 21.7503 93.4846 22.4962 92.4855 22.5085ZM101.847 16.6884L99.9547 21.4824H99.8982L97.9344 16.6884H96.1562L99.1007 23.3908L97.4208 27.1181H99.1424L103.681 16.6884H101.847Z" fill="white"/>
<defs>
<linearGradient id="paint0_linear" x1="10.7501" y1="3.72544" x2="-7.29694" y2="8.53409" gradientUnits="userSpaceOnUse">
<stop stop-color="#00A0FF"/>
<stop offset="0.007" stop-color="#00A1FF"/>
<stop offset="0.26" stop-color="#00BEFF"/>
<stop offset="0.512" stop-color="#00D2FF"/>
<stop offset="0.76" stop-color="#00DFFF"/>
<stop offset="1" stop-color="#00E3FF"/>
</linearGradient>
<linearGradient id="paint1_linear" x1="21.6953" y1="13.9957" x2="-0.309228" y2="13.9957" gradientUnits="userSpaceOnUse">
<stop stop-color="#FFE000"/>
<stop offset="0.409" stop-color="#FFBD00"/>
<stop offset="0.775" stop-color="#FFA500"/>
<stop offset="1" stop-color="#FF9C00"/>
</linearGradient>
<linearGradient id="paint2_linear" x1="13.5035" y1="16.084" x2="-0.984704" y2="40.4686" gradientUnits="userSpaceOnUse">
<stop stop-color="#FF3A44"/>
<stop offset="1" stop-color="#C31162"/>
</linearGradient>
<linearGradient id="paint3_linear" x1="-2.43979" y1="-4.03021" x2="4.02385" y2="6.86035" gradientUnits="userSpaceOnUse">
<stop stop-color="#32A071"/>
<stop offset="0.069" stop-color="#2DA771"/>
<stop offset="0.476" stop-color="#15CF74"/>
<stop offset="0.801" stop-color="#06E775"/>
<stop offset="1" stop-color="#00F076"/>
</linearGradient>
</defs>
</svg>
