<svg width="656" height="901" viewBox="0 0 656 901" fill="none" xmlns="http://www.w3.org/2000/svg">
<mask id="mask0" mask-type="alpha" maskUnits="userSpaceOnUse" x="-304" y="0" width="901" height="901">
<rect x="-304" width="901" height="901" fill="url(#paint0_radial)"/>
</mask>
<g mask="url(#mask0)">
<path d="M16.55 0L16.55 901.445" stroke="#E6ECFE" stroke-width="0.8" stroke-linecap="round" stroke-linejoin="round" stroke-dasharray="6 4"/>
<path d="M68.6193 0L68.6193 901.445" stroke="#E6ECFE" stroke-width="0.8" stroke-linecap="round" stroke-linejoin="round" stroke-dasharray="6 4"/>
<path d="M120.688 0L120.688 901.445" stroke="#E6ECFE" stroke-width="0.8" stroke-linecap="round" stroke-linejoin="round" stroke-dasharray="6 4"/>
<path d="M172.757 0L172.757 901.445" stroke="#E6ECFE" stroke-width="0.8" stroke-linecap="round" stroke-linejoin="round" stroke-dasharray="6 4"/>
<path d="M224.826 0L224.826 901.445" stroke="#E6ECFE" stroke-width="0.8" stroke-linecap="round" stroke-linejoin="round" stroke-dasharray="6 4"/>
<path d="M276.895 0V901.445" stroke="#E6ECFE" stroke-width="0.8" stroke-linecap="round" stroke-linejoin="round" stroke-dasharray="6 4"/>
<path d="M328.964 0V901.445" stroke="#E6ECFE" stroke-width="0.8" stroke-linecap="round" stroke-linejoin="round" stroke-dasharray="6 4"/>
<path d="M381.033 0V901.445" stroke="#E6ECFE" stroke-width="0.8" stroke-linecap="round" stroke-linejoin="round" stroke-dasharray="6 4"/>
<path d="M433.102 0V901.445" stroke="#E6ECFE" stroke-width="0.8" stroke-linecap="round" stroke-linejoin="round" stroke-dasharray="6 4"/>
<path d="M485.171 0V901.445" stroke="#E6ECFE" stroke-width="0.8" stroke-linecap="round" stroke-linejoin="round" stroke-dasharray="6 4"/>
<path d="M537.24 0V901.445" stroke="#E6ECFE" stroke-width="0.8" stroke-linecap="round" stroke-linejoin="round" stroke-dasharray="6 4"/>
<path d="M597.444 60.2048L-304.001 60.2048" stroke="#E6ECFE" stroke-width="0.8" stroke-linecap="round" stroke-linejoin="round" stroke-dasharray="6 4"/>
<path d="M597.444 112.274L-304 112.274" stroke="#E6ECFE" stroke-width="0.8" stroke-linecap="round" stroke-linejoin="round" stroke-dasharray="6 4"/>
<path d="M597.444 164.343L-304 164.343" stroke="#E6ECFE" stroke-width="0.8" stroke-linecap="round" stroke-linejoin="round" stroke-dasharray="6 4"/>
<path d="M597.444 216.412L-304 216.412" stroke="#E6ECFE" stroke-width="0.8" stroke-linecap="round" stroke-linejoin="round" stroke-dasharray="6 4"/>
<path d="M597.444 268.481L-304 268.481" stroke="#E6ECFE" stroke-width="0.8" stroke-linecap="round" stroke-linejoin="round" stroke-dasharray="6 4"/>
<path d="M597.444 320.55L-304 320.55" stroke="#E6ECFE" stroke-width="0.8" stroke-linecap="round" stroke-linejoin="round" stroke-dasharray="6 4"/>
<path d="M597.444 372.619L-304 372.619" stroke="#E6ECFE" stroke-width="0.8" stroke-linecap="round" stroke-linejoin="round" stroke-dasharray="6 4"/>
<path d="M597.444 424.688L-304 424.688" stroke="#E6ECFE" stroke-width="0.8" stroke-linecap="round" stroke-linejoin="round" stroke-dasharray="6 4"/>
<path d="M597.444 476.757L-304 476.757" stroke="#E6ECFE" stroke-width="0.8" stroke-linecap="round" stroke-linejoin="round" stroke-dasharray="6 4"/>
<path d="M597.444 528.826L-304 528.826" stroke="#E6ECFE" stroke-width="0.8" stroke-linecap="round" stroke-linejoin="round" stroke-dasharray="6 4"/>
<path d="M597.444 580.895L-304 580.895" stroke="#E6ECFE" stroke-width="0.8" stroke-linecap="round" stroke-linejoin="round" stroke-dasharray="6 4"/>
<path d="M597.444 632.964L-304 632.964" stroke="#E6ECFE" stroke-width="0.8" stroke-linecap="round" stroke-linejoin="round" stroke-dasharray="6 4"/>
<path d="M597.444 685.033L-304 685.033" stroke="#E6ECFE" stroke-width="0.8" stroke-linecap="round" stroke-linejoin="round" stroke-dasharray="6 4"/>
<path d="M597.444 737.102L-304 737.102" stroke="#E6ECFE" stroke-width="0.8" stroke-linecap="round" stroke-linejoin="round" stroke-dasharray="6 4"/>
<path d="M597.444 789.171L-304 789.171" stroke="#E6ECFE" stroke-width="0.8" stroke-linecap="round" stroke-linejoin="round" stroke-dasharray="6 4"/>
<path d="M597.444 841.24L-304 841.24" stroke="#E6ECFE" stroke-width="0.8" stroke-linecap="round" stroke-linejoin="round" stroke-dasharray="6 4"/>
</g>
<g filter="url(#filter0_b)">
<rect x="578.53" y="503.272" width="46.7785" height="46.7785" rx="12" transform="rotate(75.354 578.53 503.272)" fill="url(#paint1_linear)" fill-opacity="0.56"/>
</g>
<path fill-rule="evenodd" clip-rule="evenodd" d="M571.074 532.752C570.745 537.017 567.4 540.564 562.995 541.004C560.741 541.229 558.598 540.602 556.886 539.385L562.561 533.034L571.074 532.752ZM571.007 530.754L563.002 531.018L562.206 523.048C566.601 523.094 570.369 526.346 571.007 530.754ZM560.216 523.247C555.788 524.19 552.684 528.334 553.145 532.944C553.342 534.918 554.164 536.68 555.395 538.052L561.062 531.71L560.216 523.247ZM573.046 530.955C573.65 537 569.239 542.39 563.194 542.994C557.149 543.598 551.759 539.188 551.155 533.142C550.551 527.097 554.961 521.707 561.006 521.103C567.051 520.499 572.442 524.91 573.046 530.955Z" fill="white"/>
<g filter="url(#filter1_d)">
<rect x="504.017" y="153.673" width="28.9178" height="28.9178" rx="8" transform="rotate(53.8318 504.017 153.673)" fill="url(#paint2_linear)"/>
</g>
<path d="M494.909 175.437L499.403 181.127C499.745 181.56 500.374 181.634 500.808 181.291L506.497 176.798M494.909 175.437L501.384 170.324M494.909 175.437L495.48 170.581C495.51 170.318 495.645 170.078 495.853 169.913L502.002 165.057M506.497 176.798L501.384 170.324M506.497 176.798L507.067 171.942C507.098 171.679 507.023 171.414 506.859 171.206L502.002 165.057M501.384 170.324L502.002 165.057" stroke="white" stroke-width="1.5" stroke-linejoin="round"/>
<g filter="url(#filter2_d)">
<rect x="51.944" y="495.796" width="37.281" height="37.281" rx="8" transform="rotate(-7.47814 51.944 495.796)" fill="url(#paint3_linear)"/>
</g>
<path fill-rule="evenodd" clip-rule="evenodd" d="M79.7793 511.162C80.3719 514.982 77.7553 518.56 73.935 519.152C70.1147 519.745 66.5374 517.128 65.9448 513.308C65.3522 509.488 67.9688 505.91 71.7891 505.318C75.6094 504.725 79.1867 507.342 79.7793 511.162ZM81.7557 510.855C82.5176 515.767 79.1534 520.367 74.2416 521.129C69.3298 521.891 64.7303 518.526 63.9684 513.615C63.2065 508.703 66.5707 504.103 71.4825 503.341C76.3943 502.579 80.9938 505.944 81.7557 510.855ZM73.6821 513.247C73.8685 513.389 73.9838 513.604 74.0282 513.89C74.0709 514.165 74.0161 514.399 73.8636 514.59C73.7107 514.778 73.4807 514.896 73.1739 514.943C72.8042 515.001 72.503 514.935 72.2701 514.746C72.1408 514.638 72.0376 514.494 71.9607 514.315C71.8515 514.062 71.6075 513.869 71.3346 513.911L70.811 513.992C70.5382 514.035 70.3462 514.292 70.4274 514.556C70.575 515.036 70.8225 515.417 71.1698 515.699C71.6304 516.067 72.1766 516.241 72.9034 516.207L72.9877 516.751C73.0299 517.023 73.284 517.209 73.5562 517.168L73.7202 517.144C73.9941 517.103 74.1823 516.846 74.1399 516.573L74.0554 516.028C74.6937 515.861 74.8954 515.601 75.2078 515.174C75.5201 514.747 75.6303 514.237 75.5383 513.645C75.4891 513.327 75.3972 513.058 75.2628 512.836C75.1278 512.61 74.9536 512.419 74.7401 512.263C74.5261 512.104 74.2734 511.971 73.9822 511.866C73.6904 511.758 73.3223 511.653 72.8779 511.55C72.4369 511.447 72.1273 511.327 71.949 511.191C71.7706 511.054 71.6609 510.853 71.6198 510.588C71.5754 510.302 71.6193 510.067 71.7513 509.882C71.8828 509.694 72.0916 509.578 72.3775 509.533C72.667 509.489 72.9134 509.557 73.1167 509.74C73.2323 509.84 73.3256 509.978 73.3968 510.153C73.5007 510.409 73.7447 510.602 74.0176 510.559L74.5411 510.478C74.814 510.436 75.0059 510.178 74.9252 509.914C74.788 509.465 74.5645 509.102 74.2549 508.824C73.8397 508.45 73.4796 508.241 72.8488 508.25L72.7494 507.609C72.7071 507.336 72.4515 507.149 72.1787 507.191L72.0148 507.217C71.7419 507.259 71.555 507.514 71.5974 507.787L71.6944 508.413C71.0799 508.572 70.7656 508.846 70.4474 509.281C70.1292 509.716 70.0158 510.228 70.1073 510.818C70.1603 511.159 70.26 511.446 70.4065 511.677C70.5565 511.907 70.7435 512.099 70.9675 512.254C71.1944 512.404 71.4567 512.53 71.7543 512.63C72.0515 512.727 72.4012 512.817 72.8035 512.901C73.2058 512.985 73.4986 513.1 73.6821 513.247Z" fill="white"/>
<g filter="url(#filter3_d)">
<rect x="27.3514" y="140.433" width="48" height="48" rx="12" transform="rotate(-23.4233 27.3514 140.433)" fill="url(#paint4_linear)"/>
</g>
<path fill-rule="evenodd" clip-rule="evenodd" d="M68.5846 151.168C68.5629 150.349 68.387 149.521 68.0432 148.727C66.7091 145.648 63.2728 144.064 60.0648 145.05L57.8853 145.719L57.8333 145.735C56.8862 146.023 55.889 146.106 54.9074 145.98L54.8535 145.973L53.7397 145.825L53.6932 145.819C53.2279 145.757 52.8063 145.701 52.4644 145.691C52.1169 145.68 51.663 145.704 51.2499 145.966C50.8417 146.225 50.5411 146.623 50.4037 147.087C50.2647 147.555 50.3658 147.999 50.4714 148.33C50.5753 148.656 50.7444 149.046 50.931 149.477L50.9496 149.52L55.7738 160.655L55.7924 160.698C55.979 161.129 56.148 161.519 56.3147 161.818C56.4841 162.121 56.7383 162.498 57.1755 162.718C57.6076 162.935 58.1036 162.988 58.5718 162.867C59.0454 162.745 59.3735 162.43 59.6032 162.169C59.8292 161.912 60.0768 161.567 60.3501 161.185L60.3774 161.147L61.0316 160.233L61.0633 160.189C61.4967 159.589 62.0217 159.062 62.6178 158.628C62.4464 158.374 62.296 158.101 62.17 157.81C62.0173 157.458 61.9084 157.098 61.8408 156.736C60.9079 157.341 60.094 158.115 59.4416 159.019L59.4057 159.069L58.7515 159.982C58.4419 160.414 58.2532 160.676 58.102 160.848C58.0937 160.857 58.0859 160.866 58.0785 160.874C58.073 160.864 58.0672 160.854 58.0611 160.843C57.9495 160.643 57.8203 160.348 57.609 159.86L52.7848 148.725C52.5735 148.237 52.4465 147.941 52.3769 147.723C52.3731 147.711 52.3697 147.699 52.3666 147.689C52.3775 147.689 52.3892 147.689 52.4017 147.69C52.6305 147.697 52.9502 147.738 53.4772 147.808L54.591 147.955L54.6521 147.963C55.9141 148.126 57.1963 148.019 58.4139 147.649L58.4728 147.631L60.6523 146.961C62.8862 146.275 65.279 147.378 66.208 149.522C66.3921 149.947 66.507 150.386 66.5572 150.826C67.2554 150.798 67.9457 150.918 68.5846 151.168ZM67.9333 154.204C67.3801 153.803 66.6354 153.696 65.9629 153.988C65.8298 154.045 65.7062 154.116 65.5928 154.197C65.4343 154.397 65.258 154.584 65.0649 154.758C64.7261 155.297 64.6504 155.989 64.9227 156.618C64.999 156.794 65.0976 156.953 65.2137 157.095L65.2692 157.063C66.466 156.378 67.3728 155.369 67.9333 154.204Z" fill="white"/>
<path d="M52.5174 152.295C51.7073 152.832 51.0812 153.514 50.7361 154.234C50.391 154.955 50.3463 155.674 50.6088 156.28C50.8714 156.886 51.4265 157.345 52.1881 157.586C52.9497 157.827 53.8753 157.837 54.8212 157.613" stroke="white" stroke-width="2" stroke-linecap="round"/>
<circle cx="66.7578" cy="155.823" r="2.5" transform="rotate(66.5767 66.7578 155.823)" fill="white" stroke="white"/>
<rect x="383" y="491.419" width="5" height="5" rx="2" transform="rotate(-62.1109 383 491.419)" fill="url(#paint5_linear)"/>
<rect x="184" y="467.419" width="5" height="5" rx="2" transform="rotate(-62.1109 184 467.419)" fill="url(#paint6_linear)" fill-opacity="0.56"/>
<rect x="434" y="362.146" width="6.43539" height="6.43539" rx="2" transform="rotate(-1.2957 434 362.146)" fill="url(#paint7_linear)" fill-opacity="0.56"/>
<rect x="531" y="453.374" width="5" height="5" rx="2" transform="rotate(-61.0244 531 453.374)" fill="url(#paint8_linear)"/>
<rect x="180.833" y="242.542" width="6.43539" height="6.43539" rx="2" transform="rotate(-67.8338 180.833 242.542)" fill="url(#paint9_linear)" fill-opacity="0.56"/>
<rect x="288.169" y="161.583" width="5" height="5" rx="2" transform="rotate(-127.563 288.169 161.583)" fill="url(#paint10_linear)"/>
<rect width="3" height="3" rx="1.5" transform="matrix(-0.504244 0.863561 0.863561 0.504244 148.513 140)" fill="url(#paint11_linear)"/>
<rect width="3" height="3" rx="1.5" transform="matrix(-0.504244 0.863561 0.863561 0.504244 254.513 548)" fill="url(#paint12_linear)"/>
<rect width="3" height="3" rx="1.5" transform="matrix(-0.504244 0.863561 0.863561 0.504244 544.513 154)" fill="url(#paint13_linear)"/>
<rect width="3" height="3" rx="1.5" transform="matrix(-0.504244 0.863561 0.863561 0.504244 375.513 222)" fill="url(#paint14_linear)" fill-opacity="0.56"/>
<rect width="3" height="3" rx="1.5" transform="matrix(-0.504244 0.863561 0.863561 0.504244 258.513 360)" fill="url(#paint15_linear)" fill-opacity="0.56"/>
<rect width="3" height="3" rx="1.5" transform="matrix(-0.504244 0.863561 0.863561 0.504244 50.5127 470)" fill="url(#paint16_linear)"/>
<defs>
<filter id="filter0_b" x="523.993" y="493.994" width="75.6431" height="75.6431" filterUnits="userSpaceOnUse" color-interpolation-filters="sRGB">
<feFlood flood-opacity="0" result="BackgroundImageFix"/>
<feGaussianBlur in="BackgroundImage" stdDeviation="6"/>
<feComposite in2="SourceAlpha" operator="in" result="effect1_backgroundBlur"/>
<feBlend mode="normal" in="SourceGraphic" in2="effect1_backgroundBlur" result="shape"/>
</filter>
<filter id="filter1_d" x="427.852" y="132.852" width="146.052" height="146.052" filterUnits="userSpaceOnUse" color-interpolation-filters="sRGB">
<feFlood flood-opacity="0" result="BackgroundImageFix"/>
<feColorMatrix in="SourceAlpha" type="matrix" values="0 0 0 0 0 0 0 0 0 0 0 0 0 0 0 0 0 0 127 0"/>
<feOffset dy="32"/>
<feGaussianBlur stdDeviation="28"/>
<feColorMatrix type="matrix" values="0 0 0 0 0.616667 0 0 0 0 0.700303 0 0 0 0 1 0 0 0 0.32 0"/>
<feBlend mode="normal" in2="BackgroundImageFix" result="effect1_dropShadow"/>
<feBlend mode="normal" in="SourceGraphic" in2="effect1_dropShadow" result="shape"/>
</filter>
<filter id="filter2_d" x="-2.98621" y="468.014" width="151.676" height="151.676" filterUnits="userSpaceOnUse" color-interpolation-filters="sRGB">
<feFlood flood-opacity="0" result="BackgroundImageFix"/>
<feColorMatrix in="SourceAlpha" type="matrix" values="0 0 0 0 0 0 0 0 0 0 0 0 0 0 0 0 0 0 127 0"/>
<feOffset dy="32"/>
<feGaussianBlur stdDeviation="28"/>
<feColorMatrix type="matrix" values="0 0 0 0 0.616667 0 0 0 0 0.700303 0 0 0 0 1 0 0 0 0.32 0"/>
<feBlend mode="normal" in2="BackgroundImageFix" result="effect1_dropShadow"/>
<feBlend mode="normal" in="SourceGraphic" in2="effect1_dropShadow" result="shape"/>
</filter>
<filter id="filter3_d" x="-24.8599" y="101.14" width="167.548" height="167.548" filterUnits="userSpaceOnUse" color-interpolation-filters="sRGB">
<feFlood flood-opacity="0" result="BackgroundImageFix"/>
<feColorMatrix in="SourceAlpha" type="matrix" values="0 0 0 0 0 0 0 0 0 0 0 0 0 0 0 0 0 0 127 0"/>
<feOffset dy="32"/>
<feGaussianBlur stdDeviation="28"/>
<feColorMatrix type="matrix" values="0 0 0 0 0.616667 0 0 0 0 0.700303 0 0 0 0 1 0 0 0 0.32 0"/>
<feBlend mode="normal" in2="BackgroundImageFix" result="effect1_dropShadow"/>
<feBlend mode="normal" in="SourceGraphic" in2="effect1_dropShadow" result="shape"/>
</filter>
<radialGradient id="paint0_radial" cx="0" cy="0" r="1" gradientUnits="userSpaceOnUse" gradientTransform="translate(-279.057 37.1598) rotate(53.3624) scale(976.214 1459.66)">
<stop stop-color="#C4C4C4"/>
<stop offset="1" stop-color="#C4C4C4" stop-opacity="0"/>
</radialGradient>
<linearGradient id="paint1_linear" x1="579.57" y1="503.272" x2="634.287" y2="521.195" gradientUnits="userSpaceOnUse">
<stop stop-color="#BBCCFF"/>
<stop offset="1" stop-color="#9DB3FF"/>
</linearGradient>
<linearGradient id="paint2_linear" x1="504.66" y1="153.673" x2="538.486" y2="164.752" gradientUnits="userSpaceOnUse">
<stop stop-color="#BBCCFF"/>
<stop offset="1" stop-color="#9DB3FF"/>
</linearGradient>
<linearGradient id="paint3_linear" x1="52.7724" y1="495.796" x2="96.3806" y2="510.08" gradientUnits="userSpaceOnUse">
<stop stop-color="#BBCCFF"/>
<stop offset="1" stop-color="#9DB3FF"/>
</linearGradient>
<linearGradient id="paint4_linear" x1="28.4181" y1="140.433" x2="84.5644" y2="158.824" gradientUnits="userSpaceOnUse">
<stop stop-color="#BBCCFF"/>
<stop offset="1" stop-color="#9DB3FF"/>
</linearGradient>
<linearGradient id="paint5_linear" x1="383.111" y1="491.419" x2="388.96" y2="493.335" gradientUnits="userSpaceOnUse">
<stop stop-color="#BBCCFF"/>
<stop offset="1" stop-color="#9DB3FF"/>
</linearGradient>
<linearGradient id="paint6_linear" x1="184.111" y1="467.419" x2="189.96" y2="469.335" gradientUnits="userSpaceOnUse">
<stop stop-color="#BBCCFF"/>
<stop offset="1" stop-color="#9DB3FF"/>
</linearGradient>
<linearGradient id="paint7_linear" x1="434.143" y1="362.145" x2="441.671" y2="364.611" gradientUnits="userSpaceOnUse">
<stop stop-color="#BBCCFF"/>
<stop offset="1" stop-color="#9DB3FF"/>
</linearGradient>
<linearGradient id="paint8_linear" x1="531.111" y1="453.374" x2="536.96" y2="455.29" gradientUnits="userSpaceOnUse">
<stop stop-color="#BBCCFF"/>
<stop offset="1" stop-color="#9DB3FF"/>
</linearGradient>
<linearGradient id="paint9_linear" x1="180.976" y1="242.541" x2="188.504" y2="245.007" gradientUnits="userSpaceOnUse">
<stop stop-color="#BBCCFF"/>
<stop offset="1" stop-color="#9DB3FF"/>
</linearGradient>
<linearGradient id="paint10_linear" x1="288.28" y1="161.583" x2="294.128" y2="163.498" gradientUnits="userSpaceOnUse">
<stop stop-color="#BBCCFF"/>
<stop offset="1" stop-color="#9DB3FF"/>
</linearGradient>
<linearGradient id="paint11_linear" x1="0.0666667" y1="6.26445e-09" x2="3.57581" y2="1.14943" gradientUnits="userSpaceOnUse">
<stop stop-color="#BBCCFF"/>
<stop offset="1" stop-color="#9DB3FF"/>
</linearGradient>
<linearGradient id="paint12_linear" x1="0.0666667" y1="6.26445e-09" x2="3.57581" y2="1.14943" gradientUnits="userSpaceOnUse">
<stop stop-color="#BBCCFF"/>
<stop offset="1" stop-color="#9DB3FF"/>
</linearGradient>
<linearGradient id="paint13_linear" x1="0.0666667" y1="6.26445e-09" x2="3.57581" y2="1.14943" gradientUnits="userSpaceOnUse">
<stop stop-color="#BBCCFF"/>
<stop offset="1" stop-color="#9DB3FF"/>
</linearGradient>
<linearGradient id="paint14_linear" x1="0.0666667" y1="6.26445e-09" x2="3.57581" y2="1.14943" gradientUnits="userSpaceOnUse">
<stop stop-color="#BBCCFF"/>
<stop offset="1" stop-color="#9DB3FF"/>
</linearGradient>
<linearGradient id="paint15_linear" x1="0.0666667" y1="6.26445e-09" x2="3.57581" y2="1.14943" gradientUnits="userSpaceOnUse">
<stop stop-color="#BBCCFF"/>
<stop offset="1" stop-color="#9DB3FF"/>
</linearGradient>
<linearGradient id="paint16_linear" x1="0.0666667" y1="6.26445e-09" x2="3.57581" y2="1.14943" gradientUnits="userSpaceOnUse">
<stop stop-color="#BBCCFF"/>
<stop offset="1" stop-color="#9DB3FF"/>
</linearGradient>
</defs>
</svg>
