<svg width="32" height="40" viewBox="0 0 32 40" fill="none" xmlns="http://www.w3.org/2000/svg">
<path d="M29.379 21.4482C28.2454 18.806 26.716 17.5623 25.1569 17.1547C22.595 16.4822 19.9529 18.0562 18.8668 19.3684C17.9682 20.4544 16.8584 21.6119 15.7902 21.9481C15.1267 22.1564 14.481 22.0433 13.9127 21.3976C12.431 19.7106 14.6536 18.3924 14.6536 18.3924C20.5331 15.4408 20.0034 10.9092 20.0034 10.9092C19.9856 9.05852 19.691 7.52023 19.212 6.24377C18.8133 5.18154 18.2836 4.29784 17.6796 3.56886C17.6469 3.53018 17.6171 3.49447 17.5844 3.45579C14.9095 0.32862 10.8302 0.0221504 9.70548 0.00132241C9.51505 -0.00165302 9.40794 0.00132241 9.40794 0.00132241C19.5512 11.9387 -1.02689 13.4949 2.44246 23.9029C4.81685 31.0261 11.5562 29.9966 15.0464 28.9106C15.1535 28.8778 15.2576 28.8421 15.3618 28.8094C15.5373 28.7529 15.7039 28.6934 15.8587 28.6398C16.5609 28.3869 17.2363 28.0626 17.8701 27.6698C22.1993 24.9979 24.9129 24.5308 26.6119 25.0009C26.7011 25.0247 26.7844 25.0515 26.8677 25.0812C27.6681 25.3639 28.2216 25.8637 28.6054 26.4261C28.8583 26.7355 28.9952 27.0063 29.0398 27.2384C29.4712 28.2857 29.4623 29.2795 29.4623 29.2795C29.7569 28.2976 29.9146 27.3663 29.986 26.5124C30.23 23.5072 29.379 21.4482 29.379 21.4482Z" fill="url(#paint0_linear)"/>
<path d="M29.0576 30.7286C27.0551 35.9296 22.1159 39.6816 16.2573 39.9821C18.9679 39.4614 21.2679 37.7714 23.2793 35.0519C25.8888 31.526 27.8377 30.7405 28.9862 30.678C29.013 30.6958 29.0368 30.7107 29.0576 30.7286Z" fill="url(#paint1_linear)"/>
<path d="M18.4412 33.1774C14.8915 38.0273 9.01203 36.2867 9.01203 36.2867C6.23298 35.7184 4.39714 34.427 3.19507 32.8679C4.09365 33.7963 5.2987 34.433 6.9084 34.558C12.7819 35.0221 15.1622 32.2401 18.3995 33.0911C18.4322 33.1446 18.4412 33.1774 18.4412 33.1774Z" fill="url(#paint2_linear)"/>
<path d="M29.3792 21.4482C28.2455 18.806 26.7161 17.5623 25.157 17.1547C22.5952 16.4822 19.953 18.0562 18.867 19.3684C17.9684 20.4544 16.8586 21.6119 15.7904 21.9481C15.1269 22.1564 14.4812 22.0433 13.9129 21.3976C12.4311 19.7106 14.6538 18.3925 14.6538 18.3925C20.5332 15.4408 20.0036 10.9093 20.0036 10.9093C19.9857 9.05854 19.6912 7.52025 19.2121 6.24379C18.8134 5.18156 18.2838 4.29786 17.6798 3.56888C17.647 3.5302 17.6173 3.49449 17.5846 3.45581C14.9096 0.32864 10.8303 0.0221708 9.70562 0.00134277C15.0673 2.92024 17.775 10.4778 13.2583 15.3754C12.3002 16.4138 11.1071 17.2082 10.1281 18.2258C8.4976 19.9218 8.10187 22.1921 8.99152 24.3731C9.44676 25.4889 10.2918 26.4648 11.3897 26.9587C16.442 29.2349 21.7859 22.9895 26.8679 25.0812C27.6683 25.3639 28.2217 25.8638 28.6055 26.4261C28.7841 26.6909 28.9269 26.9647 29.04 27.2384C29.4714 28.2858 29.4625 29.2795 29.4625 29.2795C29.757 28.2977 29.9147 27.3663 29.9861 26.5124C30.2301 23.5072 29.3792 21.4482 29.3792 21.4482Z" fill="url(#paint3_linear)"/>
<path d="M18.3997 33.091C15.1624 32.24 12.782 35.0221 6.90856 34.5579C5.29885 34.4299 4.0938 33.7932 3.19522 32.8678C0.154337 28.9314 1.1511 23.3108 1.17491 23.4268C1.96935 27.274 5.09355 31.755 11.5562 31.7015C17.0964 31.6539 18.1973 32.7726 18.3997 33.091Z" fill="url(#paint4_linear)"/>
<path d="M28.9893 30.678C27.8407 30.7375 25.8889 31.523 23.2824 35.0519C21.271 37.7714 18.971 39.4615 16.2604 39.9822C16.0104 39.9941 15.7575 40 15.5046 40C12.2763 40 9.29491 38.9497 6.88184 37.1764C13.1064 39.3514 16.8703 36.9978 21.6221 33.1744C26.2251 29.47 28.3168 30.2049 28.9893 30.678Z" fill="url(#paint5_linear)"/>
<defs>
<linearGradient id="paint0_linear" x1="18.4255" y1="27.8529" x2="5.72705" y2="2.20466" gradientUnits="userSpaceOnUse">
<stop offset="0.00446948" stop-color="#6943E6"/>
<stop offset="0.0784316" stop-color="#635BE9"/>
<stop offset="0.2165" stop-color="#5A83ED"/>
<stop offset="0.3593" stop-color="#52A4F1"/>
<stop offset="0.5058" stop-color="#4DBDF3"/>
<stop offset="0.6574" stop-color="#48CFF5"/>
<stop offset="0.8174" stop-color="#46DAF7"/>
<stop offset="1" stop-color="#45DDF7"/>
</linearGradient>
<linearGradient id="paint1_linear" x1="31.7271" y1="29.4281" x2="15.4141" y2="42.158" gradientUnits="userSpaceOnUse">
<stop offset="0.00446948" stop-color="#6943E6"/>
<stop offset="0.0521292" stop-color="#674DE7"/>
<stop offset="0.381" stop-color="#588AEE"/>
<stop offset="0.6599" stop-color="#4EB7F3"/>
<stop offset="0.8749" stop-color="#47D3F6"/>
<stop offset="1" stop-color="#45DDF7"/>
</linearGradient>
<linearGradient id="paint2_linear" x1="3.19479" y1="34.7284" x2="18.4417" y2="34.7284" gradientUnits="userSpaceOnUse">
<stop offset="0.00446962" stop-color="#F6E047"/>
<stop offset="0.0464795" stop-color="#F3CD51"/>
<stop offset="0.1484" stop-color="#ECA468"/>
<stop offset="0.2567" stop-color="#E7827B"/>
<stop offset="0.371" stop-color="#E2658A"/>
<stop offset="0.493" stop-color="#DE4F96"/>
<stop offset="0.6265" stop-color="#DC409E"/>
<stop offset="0.7802" stop-color="#DA37A3"/>
<stop offset="1" stop-color="#DA34A5"/>
</linearGradient>
<linearGradient id="paint3_linear" x1="22.1271" y1="29.634" x2="9.36586" y2="0.465405" gradientUnits="userSpaceOnUse">
<stop offset="0.00446948" stop-color="#6943E6"/>
<stop offset="0.0784316" stop-color="#635BE9"/>
<stop offset="0.2165" stop-color="#5A83ED"/>
<stop offset="0.3593" stop-color="#52A4F1"/>
<stop offset="0.5058" stop-color="#4DBDF3"/>
<stop offset="0.6574" stop-color="#48CFF5"/>
<stop offset="0.8174" stop-color="#46DAF7"/>
<stop offset="1" stop-color="#45DDF7"/>
</linearGradient>
<linearGradient id="paint4_linear" x1="17.4595" y1="35.1239" x2="-1.58814" y2="26.7002" gradientUnits="userSpaceOnUse">
<stop stop-color="#DA34A5"/>
<stop offset="0.2019" stop-color="#DA37A3"/>
<stop offset="0.3551" stop-color="#DC419E"/>
<stop offset="0.4924" stop-color="#DF5195"/>
<stop offset="0.6202" stop-color="#E26889"/>
<stop offset="0.7417" stop-color="#E78678"/>
<stop offset="0.8582" stop-color="#EDAA64"/>
<stop offset="0.9687" stop-color="#F4D54D"/>
<stop offset="0.9955" stop-color="#F6E047"/>
</linearGradient>
<linearGradient id="paint5_linear" x1="30.3038" y1="27.9167" x2="10.5018" y2="39.515" gradientUnits="userSpaceOnUse">
<stop offset="0.0536899" stop-color="#6943E6"/>
<stop offset="0.3239" stop-color="#5D77EC"/>
<stop offset="0.6379" stop-color="#50AEF2"/>
<stop offset="0.8728" stop-color="#48D0F6"/>
<stop offset="1" stop-color="#45DDF7"/>
</linearGradient>
</defs>
</svg>
