<svg width="122" height="152" viewBox="0 0 122 152" fill="none" xmlns="http://www.w3.org/2000/svg">
<rect x="0.5" y="0.5" width="121" height="151" rx="24.5" fill="white" stroke="url(#paint0_linear)"/>
<path d="M38.8081 122.31H33V110.167H38.666C41.1564 110.167 42.6941 111.396 42.6941 113.309V113.343C42.6941 114.713 41.9587 115.474 41.0895 115.958C42.5019 116.493 43.371 117.312 43.371 118.942V118.975C43.371 121.198 41.5575 122.31 38.8081 122.31ZM40.0282 113.761C40.0282 112.967 39.4014 112.515 38.2649 112.515H35.6157V115.081H38.0894C39.2761 115.081 40.0282 114.697 40.0282 113.794V113.761ZM40.7051 118.616C40.7051 117.797 40.095 117.296 38.7161 117.296H35.6157V119.97H38.8081C39.9948 119.97 40.7051 119.552 40.7051 118.649V118.616Z" fill="#121620"/>
<path d="M47.3323 122.31V110.167H50.0149V119.878H56.0987V122.31H47.3323Z" fill="#121620"/>
<path d="M59.9844 122.31V110.167H62.667V122.31H59.9844Z" fill="#121620"/>
<path d="M71.8011 122.485C69.9543 122.485 68.0906 121.842 66.6282 120.546L68.216 118.658C69.3108 119.56 70.464 120.129 71.8596 120.129C72.9544 120.129 73.623 119.694 73.623 118.984V118.95C73.623 118.273 73.2051 117.931 71.166 117.404C68.7091 116.777 67.1212 116.101 67.1212 113.694V113.66C67.1212 111.454 68.9013 110 71.3916 110C73.1717 110 74.6843 110.552 75.9211 111.546L74.5255 113.56C73.4474 112.816 72.3778 112.365 71.3498 112.365C70.3219 112.365 69.7788 112.833 69.7788 113.426V113.46C69.7788 114.254 70.3052 114.521 72.4112 115.056C74.8849 115.699 76.2804 116.585 76.2804 118.7V118.733C76.2804 121.131 74.4336 122.485 71.8011 122.485Z" fill="#121620"/>
<path d="M84.5206 122.485C82.6737 122.485 80.8101 121.842 79.3477 120.546L80.9355 118.658C82.0302 119.56 83.1835 120.129 84.5791 120.129C85.6739 120.129 86.3424 119.694 86.3424 118.984V118.95C86.3424 118.273 85.9246 117.931 83.8855 117.404C81.4285 116.777 79.8407 116.101 79.8407 113.694V113.66C79.8407 111.454 81.6207 110 84.1111 110C85.8911 110 87.4038 110.552 88.6406 111.546L87.245 113.56C86.1669 112.816 85.0972 112.365 84.0693 112.365C83.0414 112.365 82.4982 112.833 82.4982 113.426V113.46C82.4982 114.254 83.0247 114.521 85.1307 115.056C87.6043 115.699 88.9999 116.585 88.9999 118.7V118.733C88.9999 121.131 87.153 122.485 84.5206 122.485Z" fill="#121620"/>
<path d="M80.103 60.5534C78.541 56.9127 76.4337 55.199 74.2853 54.6373C70.7554 53.7108 67.1148 55.8796 65.6183 57.6876C64.3802 59.184 62.8509 60.7789 61.3791 61.2421C60.4648 61.5291 59.5752 61.3733 58.7921 60.4837C56.7504 58.1591 59.813 56.3428 59.813 56.3428C67.9142 52.2758 67.1845 46.0318 67.1845 46.0318C67.1599 43.4817 66.754 41.3621 66.0939 39.6033C65.5445 38.1396 64.8148 36.922 63.9825 35.9175C63.9374 35.8642 63.8964 35.815 63.8513 35.7617C60.1655 31.4528 54.5447 31.0305 52.995 31.0018C52.7326 30.9977 52.585 31.0018 52.585 31.0018C66.5613 47.4503 38.2069 49.5945 42.9873 63.9357C46.2589 73.7507 55.545 72.3322 60.3541 70.8357C60.5017 70.7906 60.6452 70.7414 60.7887 70.6963C61.0306 70.6184 61.2602 70.5364 61.4734 70.4626C62.441 70.1141 63.3716 69.6673 64.2449 69.1261C70.2101 65.4445 73.9492 64.8008 76.2902 65.4486C76.4132 65.4813 76.528 65.5182 76.6427 65.5592C77.7456 65.9487 78.5082 66.6375 79.037 67.4124C79.3855 67.8387 79.5741 68.2118 79.6356 68.5316C80.2301 69.9748 80.2178 71.3441 80.2178 71.3441C80.6237 69.9912 80.841 68.7079 80.9394 67.5313C81.2755 63.3904 80.103 60.5534 80.103 60.5534Z" fill="url(#paint1_linear)"/>
<path d="M79.6601 73.3407C76.901 80.5072 70.0953 85.6771 62.0227 86.0912C65.7576 85.3737 68.9268 83.045 71.6983 79.2977C75.2938 74.4394 77.9792 73.3571 79.5618 73.271C79.5987 73.2956 79.6315 73.3161 79.6601 73.3407Z" fill="url(#paint2_linear)"/>
<path d="M65.0322 76.715C60.1411 83.3977 52.0398 80.9993 52.0398 80.9993C48.2106 80.2162 45.681 78.4369 44.0247 76.2886C45.2628 77.5677 46.9232 78.4451 49.1412 78.6173C57.2343 79.2568 60.5142 75.4235 64.9748 76.5961C65.0199 76.6699 65.0322 76.715 65.0322 76.715Z" fill="url(#paint3_linear)"/>
<path d="M80.1028 60.5535C78.5408 56.9128 76.4335 55.1991 74.2852 54.6374C70.7552 53.7109 67.1146 55.8797 65.6181 57.6877C64.38 59.1841 62.8508 60.779 61.3789 61.2423C60.4647 61.5292 59.575 61.3735 58.7919 60.4838C56.7502 58.1592 59.8128 56.343 59.8128 56.343C67.9141 52.2759 67.1843 46.0319 67.1843 46.0319C67.1597 43.4818 66.7538 41.3622 66.0937 39.6034C65.5444 38.1397 64.8146 36.9221 63.9823 35.9176C63.9372 35.8643 63.8962 35.8151 63.8511 35.7618C60.1654 31.4529 54.5445 31.0307 52.9948 31.002C60.3827 35.0239 64.1135 45.4374 57.89 52.1857C56.5698 53.6166 54.9258 54.7112 53.577 56.1134C51.3303 58.4503 50.785 61.5784 52.0108 64.5836C52.6381 66.1211 53.8025 67.4658 55.3153 68.1464C62.2768 71.2827 69.6401 62.6772 76.6426 65.5594C77.7454 65.9489 78.508 66.6376 79.0369 67.4125C79.2829 67.7774 79.4797 68.1546 79.6354 68.5317C80.2299 69.9749 80.2176 71.3442 80.2176 71.3442C80.6235 69.9913 80.8408 68.708 80.9392 67.5314C81.2754 63.3906 80.1028 60.5535 80.1028 60.5535Z" fill="url(#paint4_linear)"/>
<path d="M64.9749 76.5959C60.5143 75.4233 57.2344 79.2567 49.1414 78.6171C46.9234 78.4408 45.2629 77.5634 44.0248 76.2884C39.8348 70.8643 41.2082 63.1198 41.241 63.2797C42.3357 68.5807 46.6405 74.7551 55.5453 74.6813C63.1792 74.6157 64.6961 76.1572 64.9749 76.5959Z" fill="url(#paint5_linear)"/>
<path d="M79.5659 73.2711C77.9834 73.3531 75.2939 74.4354 71.7025 79.2978C68.931 83.045 65.7618 85.3737 62.0269 86.0912C61.6825 86.1076 61.334 86.1158 60.9855 86.1158C56.5372 86.1158 52.4292 84.6686 49.1042 82.2251C57.6811 85.2221 62.8674 81.9791 69.4148 76.7108C75.7572 71.6065 78.6394 72.6192 79.5659 73.2711Z" fill="url(#paint6_linear)"/>
<defs>
<linearGradient id="paint0_linear" x1="61" y1="1" x2="61" y2="151" gradientUnits="userSpaceOnUse">
<stop stop-color="#5786FF"/>
<stop offset="1" stop-color="#6A52FF"/>
</linearGradient>
<linearGradient id="paint1_linear" x1="65.0102" y1="69.3784" x2="47.5131" y2="34.0378" gradientUnits="userSpaceOnUse">
<stop offset="0.00446948" stop-color="#6943E6"/>
<stop offset="0.0784316" stop-color="#635BE9"/>
<stop offset="0.2165" stop-color="#5A83ED"/>
<stop offset="0.3593" stop-color="#52A4F1"/>
<stop offset="0.5058" stop-color="#4DBDF3"/>
<stop offset="0.6574" stop-color="#48CFF5"/>
<stop offset="0.8174" stop-color="#46DAF7"/>
<stop offset="1" stop-color="#45DDF7"/>
</linearGradient>
<linearGradient id="paint2_linear" x1="83.3385" y1="71.5488" x2="60.8608" y2="89.0892" gradientUnits="userSpaceOnUse">
<stop offset="0.00446948" stop-color="#6943E6"/>
<stop offset="0.0521292" stop-color="#674DE7"/>
<stop offset="0.381" stop-color="#588AEE"/>
<stop offset="0.6599" stop-color="#4EB7F3"/>
<stop offset="0.8749" stop-color="#47D3F6"/>
<stop offset="1" stop-color="#45DDF7"/>
</linearGradient>
<linearGradient id="paint3_linear" x1="44.0243" y1="78.8521" x2="65.0329" y2="78.8521" gradientUnits="userSpaceOnUse">
<stop offset="0.00446962" stop-color="#F6E047"/>
<stop offset="0.0464795" stop-color="#F3CD51"/>
<stop offset="0.1484" stop-color="#ECA468"/>
<stop offset="0.2567" stop-color="#E7827B"/>
<stop offset="0.371" stop-color="#E2658A"/>
<stop offset="0.493" stop-color="#DE4F96"/>
<stop offset="0.6265" stop-color="#DC409E"/>
<stop offset="0.7802" stop-color="#DA37A3"/>
<stop offset="1" stop-color="#DA34A5"/>
</linearGradient>
<linearGradient id="paint4_linear" x1="70.1103" y1="71.8327" x2="52.5266" y2="31.6414" gradientUnits="userSpaceOnUse">
<stop offset="0.00446948" stop-color="#6943E6"/>
<stop offset="0.0784316" stop-color="#635BE9"/>
<stop offset="0.2165" stop-color="#5A83ED"/>
<stop offset="0.3593" stop-color="#52A4F1"/>
<stop offset="0.5058" stop-color="#4DBDF3"/>
<stop offset="0.6574" stop-color="#48CFF5"/>
<stop offset="0.8174" stop-color="#46DAF7"/>
<stop offset="1" stop-color="#45DDF7"/>
</linearGradient>
<linearGradient id="paint5_linear" x1="63.6794" y1="79.3969" x2="37.4338" y2="67.79" gradientUnits="userSpaceOnUse">
<stop stop-color="#DA34A5"/>
<stop offset="0.2019" stop-color="#DA37A3"/>
<stop offset="0.3551" stop-color="#DC419E"/>
<stop offset="0.4924" stop-color="#DF5195"/>
<stop offset="0.6202" stop-color="#E26889"/>
<stop offset="0.7417" stop-color="#E78678"/>
<stop offset="0.8582" stop-color="#EDAA64"/>
<stop offset="0.9687" stop-color="#F4D54D"/>
<stop offset="0.9955" stop-color="#F6E047"/>
</linearGradient>
<linearGradient id="paint6_linear" x1="81.3773" y1="69.4662" x2="54.0922" y2="85.4474" gradientUnits="userSpaceOnUse">
<stop offset="0.0536899" stop-color="#6943E6"/>
<stop offset="0.3239" stop-color="#5D77EC"/>
<stop offset="0.6379" stop-color="#50AEF2"/>
<stop offset="0.8728" stop-color="#48D0F6"/>
<stop offset="1" stop-color="#45DDF7"/>
</linearGradient>
</defs>
</svg>
