<svg width="72" height="72" viewBox="0 0 72 72" fill="none" xmlns="http://www.w3.org/2000/svg">
<path d="M36 45.9609C41.5013 45.9609 45.9609 41.5013 45.9609 36C45.9609 30.4987 41.5013 26.0391 36 26.0391C30.4987 26.0391 26.0391 30.4987 26.0391 36C26.0391 41.5013 30.4987 45.9609 36 45.9609Z" fill="#008DF9"/>
<path d="M22.8344 33.1186C24.1577 27.0676 29.5576 22.5234 35.9998 22.5234H62.8195C61.3965 19.6984 59.5148 17.0885 57.2131 14.7867C51.5468 9.12059 44.0131 6 35.9998 6C27.9866 6 20.4529 9.12059 14.7866 14.7867C14.2416 15.3316 13.7209 15.8941 13.2236 16.4723L22.8344 33.1186Z" fill="#FF5346"/>
<path d="M40.0875 48.8422C38.7977 49.2537 37.4244 49.4766 36 49.4766C30.994 49.4766 26.617 46.7327 24.2932 42.6701C24.2766 42.6444 24.26 42.6189 24.2446 42.5921L10.9232 19.5188C7.72043 24.3703 6 30.0527 6 36C6 44.0133 9.12059 51.5469 14.7867 57.2133C19.1277 61.5541 24.5652 64.3988 30.4741 65.493L40.0875 48.8422Z" fill="#00A25A"/>
<path d="M45.0679 26.0391C47.7751 28.5056 49.4766 32.0578 49.4766 36C49.4766 38.4795 48.8028 40.8041 47.6298 42.802C47.6178 42.825 47.6075 42.8483 47.5945 42.8709L34.2703 65.9494C34.8441 65.9817 35.4207 66 36.0001 66C44.0133 66 51.547 62.8794 57.2133 57.2133C62.8795 51.5469 66.0001 44.0133 66.0001 36C66.0001 32.554 65.4214 29.1973 64.313 26.0391H45.0679Z" fill="#FFCF2D"/>
</svg>
