<svg width="72" height="72" viewBox="0 0 72 72" fill="none" xmlns="http://www.w3.org/2000/svg">
<path d="M53.2995 5.90013C52.0337 4.63291 50.533 4 48.7998 4H23.2004C21.4667 4 19.9669 4.63343 18.7002 5.90013C17.4335 7.16612 16.8 8.66643 16.8 10.3997V61.6C16.8 63.333 17.4335 64.8332 18.7002 66.0995C19.9669 67.3664 21.4667 68 23.2004 68H48.7998C50.5328 68 52.0337 67.3659 53.2993 66.0995C54.5662 64.8332 55.1998 63.333 55.1998 61.6V10.3997C55.1998 8.66643 54.5671 7.16682 53.2995 5.90013Z" fill="#83A4F8"/>
<rect x="22.1333" y="15" width="27.7333" height="37.3333" rx="3" fill="#CDDBFF"/>
<rect x="32" y="56" width="8" height="8" rx="4" fill="#ABC3FF"/>
<rect x="30" y="8.40002" width="12" height="2" rx="1" fill="#ABC3FF"/>
</svg>
