<svg width="72" height="72" viewBox="0 0 72 72" fill="none" xmlns="http://www.w3.org/2000/svg">
<path d="M64.7655 48.5712C64.6446 48.0069 64.2213 47.5433 63.6771 47.382L62.5282 47.0394C65.7935 37.9087 64.8461 22.3483 50.4145 13.1975C50.4145 13.2378 50.4145 13.258 50.4145 13.2983C50.4145 15.0922 49.5074 16.7248 48.0159 17.6923L43.3599 20.6754C48.5198 23.0135 57.2876 31.2371 52.9743 44.1571L52.289 43.9555C52.1479 43.9152 51.9866 43.895 51.8254 43.895C51.4222 43.895 51.0191 44.0563 50.7168 44.3385C50.3137 44.7416 50.1524 45.3463 50.2935 45.8905L53.2968 56.5127C53.4378 57.0367 53.841 57.4399 54.365 57.6011C54.5061 57.6414 54.6674 57.6616 54.8286 57.6616C55.1914 57.6616 55.5744 57.5205 55.8566 57.2786L64.2414 50.0829C64.6849 49.7201 64.8864 49.1356 64.7655 48.5712Z" fill="#6A52FF"/>
<path d="M49.83 57.5002L48.0563 51.1914C34.068 62.5997 22.5791 51.3124 20.4426 48.0269L21.5512 47.3416C22.0349 47.0393 22.3373 46.4951 22.2969 45.9106C22.2768 45.326 21.9341 44.8221 21.4101 44.5601L11.453 39.763C11.2313 39.6622 11.0096 39.6017 10.7677 39.6017C10.4855 39.6017 10.1832 39.6824 9.94133 39.8436C9.47775 40.1258 9.19556 40.6297 9.19556 41.1538L9.01416 52.2194C9.01416 52.8039 9.3165 53.328 9.8204 53.6101C10.0623 53.7512 10.3243 53.8117 10.6065 53.8117C10.8887 53.8117 11.191 53.7311 11.4329 53.5698L11.9569 53.2473C20.8256 67.6185 40.8203 69.4124 52.3495 60.6446C51.1401 59.9996 50.213 58.8708 49.83 57.5002Z" fill="#57C3FF"/>
<path d="M8.02659 36.78C8.85298 36.2761 9.80032 35.9939 10.7678 35.9939C11.5539 35.9939 12.34 36.1753 13.0253 36.518L17.1371 38.4932C16.7138 31.8418 21.2489 20.4738 34.31 19.0629V19.2241C34.31 19.8087 34.6325 20.3327 35.1364 20.6149C35.3782 20.7358 35.6403 20.8165 35.9023 20.8165C36.2046 20.8165 36.4868 20.7358 36.7488 20.5746L46.0609 14.6286C46.5245 14.3464 46.7865 13.8425 46.7865 13.2983C46.7865 12.7541 46.5043 12.2502 46.0609 11.968L36.7488 6.00182C36.4868 5.84057 36.1845 5.75995 35.9023 5.75995C35.6403 5.75995 35.3782 5.82042 35.1364 5.96151C34.6325 6.24369 34.31 6.76775 34.31 7.35227V9.08568C21.2086 9.02522 7.30098 20.9979 7.2002 37.4048C7.46222 37.1831 7.72425 36.9614 8.02659 36.78Z" fill="#5786FF"/>
</svg>
